<?xml version="1.0" encoding="utf-8" standalone="no"?>
<!DOCTYPE svg PUBLIC "-//W3C//DTD SVG 1.1//EN"
  "http://www.w3.org/Graphics/SVG/1.1/DTD/svg11.dtd">
<svg xmlns:xlink="http://www.w3.org/1999/xlink" width="1166.4pt" height="662.4pt" viewBox="0 0 1166.4 662.4" xmlns="http://www.w3.org/2000/svg" version="1.1">
 <metadata>
  <rdf:RDF xmlns:dc="http://purl.org/dc/elements/1.1/" xmlns:cc="http://creativecommons.org/ns#" xmlns:rdf="http://www.w3.org/1999/02/22-rdf-syntax-ns#">
   <cc:Work>
    <dc:type rdf:resource="http://purl.org/dc/dcmitype/StillImage"/>
    <dc:date>2026-04-20T15:50:37.975099</dc:date>
    <dc:format>image/svg+xml</dc:format>
    <dc:creator>
     <cc:Agent>
      <dc:title>Matplotlib v3.10.8, https://matplotlib.org/</dc:title>
     </cc:Agent>
    </dc:creator>
   </cc:Work>
  </rdf:RDF>
 </metadata>
 <defs>
  <style type="text/css">*{stroke-linejoin: round; stroke-linecap: butt}</style>
 </defs>
 <g id="figure_1">
  <g id="patch_1">
   <path d="M 0 662.4 
L 1166.4 662.4 
L 1166.4 0 
L 0 0 
z
" style="fill: #efefef"/>
  </g>
  <g id="axes_1">
   <g id="patch_2">
    <path d="M 525.6 379.8 
C 611.143912 379.8 693.195683 370.582555 753.684363 354.177701 
C 814.173044 337.772847 848.16 315.519967 848.16 292.32 
C 848.16 269.120033 814.173044 246.867153 753.684363 230.462299 
C 693.195683 214.057445 611.143912 204.84 525.6 204.84 
C 440.056088 204.84 358.004317 214.057445 297.515637 230.462299 
C 237.026956 246.867153 203.04 269.120033 203.04 292.32 
C 203.04 315.519967 237.026956 337.772847 297.515637 354.177701 
C 358.004317 370.582555 440.056088 379.8 525.6 379.8 
z
" clip-path="url(#pe7b2268d91)" style="fill: #c9ced3; opacity: 0.2"/>
   </g>
   <g id="patch_3">
    <path d="M 698.4 402.48 
C 753.392515 402.48 806.140082 394.96949 845.025662 381.602571 
C 883.911242 368.235653 905.76 350.103677 905.76 331.2 
C 905.76 312.296323 883.911242 294.164347 845.025662 280.797429 
C 806.140082 267.43051 753.392515 259.92 698.4 259.92 
C 643.407485 259.92 590.659918 267.43051 551.774338 280.797429 
C 512.888758 294.164347 491.04 312.296323 491.04 331.2 
C 491.04 350.103677 512.888758 368.235653 551.774338 381.602571 
C 590.659918 394.96949 643.407485 402.48 698.4 402.48 
z
" clip-path="url(#pe7b2268d91)" style="fill: #c9ced3; opacity: 0.2"/>
   </g>
   <g id="patch_4">
    <path d="M 387.36 392.76 
C 424.021677 392.76 459.186721 387.639197 485.110441 378.52539 
C 511.034162 369.411582 525.6 357.048871 525.6 344.16 
C 525.6 331.271129 511.034162 318.908418 485.110441 309.79461 
C 459.186721 300.680803 424.021677 295.56 387.36 295.56 
C 350.698323 295.56 315.533279 300.680803 289.609559 309.79461 
C 263.685838 318.908418 249.12 331.271129 249.12 344.16 
C 249.12 357.048871 263.685838 369.411582 289.609559 378.52539 
C 315.533279 387.639197 350.698323 392.76 387.36 392.76 
z
" clip-path="url(#pe7b2268d91)" style="fill: #c9ced3; opacity: 0.2"/>
   </g>
  </g>
  <g id="axes_2">
   <g id="patch_5">
    <path d="M 99.36 512.64 
L 1020.96 512.64 
L 1020.96 149.76 
L 99.36 149.76 
L 99.36 512.64 
z
" style="fill: none"/>
   </g>
   <g id="matplotlib.axis_1">
    <g id="xtick_1">
     <g id="line2d_1"/>
     <g id="text_1">
      <!-- 2021年 -->
      <g transform="translate(171.44625 525.7325) scale(0.12 -0.12)">
       <defs>
        <path id="MicrosoftYaHei-32" d="M 2666 3572 
Q 2666 3963 2419 4186 
Q 2172 4409 1747 4409 
Q 1447 4409 1140 4256 
Q 834 4103 569 3819 
L 569 4413 
Q 806 4659 1107 4790 
Q 1409 4922 1816 4922 
Q 2472 4922 2872 4570 
Q 3272 4219 3272 3619 
Q 3272 3084 3026 2693 
Q 2781 2303 2188 1894 
Q 1581 1475 1376 1294 
Q 1172 1113 1090 947 
Q 1009 781 1009 544 
L 3416 544 
L 3416 0 
L 372 0 
L 372 241 
Q 372 659 486 951 
Q 600 1244 862 1520 
Q 1125 1797 1681 2184 
Q 2250 2584 2458 2886 
Q 2666 3188 2666 3572 
z
" transform="scale(0.015625)"/>
        <path id="MicrosoftYaHei-30" d="M 284 2325 
Q 284 3606 709 4264 
Q 1134 4922 1941 4922 
Q 3478 4922 3478 2441 
Q 3478 1216 3045 567 
Q 2613 -81 1831 -81 
Q 1094 -81 689 534 
Q 284 1150 284 2325 
z
M 909 2353 
Q 909 425 1888 425 
Q 2850 425 2850 2384 
Q 2850 4413 1906 4413 
Q 909 4413 909 2353 
z
" transform="scale(0.015625)"/>
        <path id="MicrosoftYaHei-31" d="M 1781 0 
L 1781 4141 
Q 1638 3997 1295 3819 
Q 953 3641 663 3569 
L 663 4169 
Q 1047 4275 1484 4508 
Q 1922 4741 2156 4947 
L 2388 4947 
L 2388 0 
L 1781 0 
z
" transform="scale(0.015625)"/>
        <path id="MicrosoftYaHei-5e74" d="M 119 1278 
L 1125 1278 
L 1125 3066 
L 3338 3066 
L 3338 4178 
L 1500 4178 
Q 1078 3419 556 2778 
Q 394 2953 169 3128 
Q 1056 4128 1500 5372 
L 2013 5228 
Q 1881 4919 1738 4628 
L 6038 4628 
L 6038 4178 
L 3844 4178 
L 3844 3066 
L 5931 3066 
L 5931 2628 
L 3844 2628 
L 3844 1278 
L 6319 1278 
L 6319 828 
L 3844 828 
L 3844 -859 
L 3338 -859 
L 3338 828 
L 119 828 
L 119 1278 
z
M 1619 1278 
L 3338 1278 
L 3338 2628 
L 1619 2628 
L 1619 1278 
z
" transform="scale(0.015625)"/>
       </defs>
       <use xlink:href="#MicrosoftYaHei-32"/>
       <use xlink:href="#MicrosoftYaHei-30" transform="translate(58.642578 0)"/>
       <use xlink:href="#MicrosoftYaHei-32" transform="translate(117.285156 0)"/>
       <use xlink:href="#MicrosoftYaHei-31" transform="translate(175.927734 0)"/>
       <use xlink:href="#MicrosoftYaHei-5e74" transform="translate(234.570312 0)"/>
      </g>
     </g>
    </g>
    <g id="xtick_2">
     <g id="line2d_2"/>
     <g id="text_2">
      <!-- 2022年 -->
      <g transform="translate(355.76625 525.7325) scale(0.12 -0.12)">
       <use xlink:href="#MicrosoftYaHei-32"/>
       <use xlink:href="#MicrosoftYaHei-30" transform="translate(58.642578 0)"/>
       <use xlink:href="#MicrosoftYaHei-32" transform="translate(117.285156 0)"/>
       <use xlink:href="#MicrosoftYaHei-32" transform="translate(175.927734 0)"/>
       <use xlink:href="#MicrosoftYaHei-5e74" transform="translate(234.570312 0)"/>
      </g>
     </g>
    </g>
    <g id="xtick_3">
     <g id="line2d_3"/>
     <g id="text_3">
      <!-- 2023年 -->
      <g transform="translate(540.08625 525.7325) scale(0.12 -0.12)">
       <defs>
        <path id="MicrosoftYaHei-33" d="M 447 809 
Q 944 425 1569 425 
Q 2069 425 2361 670 
Q 2653 916 2653 1328 
Q 2653 2247 1338 2247 
L 934 2247 
L 934 2753 
L 1319 2753 
Q 2484 2753 2484 3616 
Q 2484 4413 1594 4413 
Q 1084 4413 634 4069 
L 634 4647 
Q 1109 4922 1744 4922 
Q 2363 4922 2738 4598 
Q 3113 4275 3113 3759 
Q 3113 2809 2144 2538 
L 2144 2525 
Q 2669 2469 2973 2155 
Q 3278 1841 3278 1372 
Q 3278 719 2808 319 
Q 2338 -81 1556 -81 
Q 869 -81 447 175 
L 447 809 
z
" transform="scale(0.015625)"/>
       </defs>
       <use xlink:href="#MicrosoftYaHei-32"/>
       <use xlink:href="#MicrosoftYaHei-30" transform="translate(58.642578 0)"/>
       <use xlink:href="#MicrosoftYaHei-32" transform="translate(117.285156 0)"/>
       <use xlink:href="#MicrosoftYaHei-33" transform="translate(175.927734 0)"/>
       <use xlink:href="#MicrosoftYaHei-5e74" transform="translate(234.570312 0)"/>
      </g>
     </g>
    </g>
    <g id="xtick_4">
     <g id="line2d_4"/>
     <g id="text_4">
      <!-- 2024年 -->
      <g transform="translate(724.40625 525.7325) scale(0.12 -0.12)">
       <defs>
        <path id="MicrosoftYaHei-34" d="M 2906 4841 
L 2906 1644 
L 3631 1644 
L 3631 1138 
L 2906 1138 
L 2906 0 
L 2313 0 
L 2313 1138 
L 53 1138 
L 53 1616 
Q 656 2294 1265 3178 
Q 1875 4063 2272 4841 
L 2906 4841 
z
M 741 1644 
L 2313 1644 
L 2313 3950 
Q 1988 3366 1616 2817 
Q 1244 2269 741 1644 
z
" transform="scale(0.015625)"/>
       </defs>
       <use xlink:href="#MicrosoftYaHei-32"/>
       <use xlink:href="#MicrosoftYaHei-30" transform="translate(58.642578 0)"/>
       <use xlink:href="#MicrosoftYaHei-32" transform="translate(117.285156 0)"/>
       <use xlink:href="#MicrosoftYaHei-34" transform="translate(175.927734 0)"/>
       <use xlink:href="#MicrosoftYaHei-5e74" transform="translate(234.570312 0)"/>
      </g>
     </g>
    </g>
    <g id="xtick_5">
     <g id="line2d_5"/>
     <g id="text_5">
      <!-- 2025年 -->
      <g transform="translate(908.72625 525.7325) scale(0.12 -0.12)">
       <defs>
        <path id="MicrosoftYaHei-35" d="M 3294 1494 
Q 3294 784 2823 350 
Q 2353 -84 1559 -84 
Q 878 -84 544 119 
L 544 744 
Q 1034 425 1544 425 
Q 2050 425 2361 704 
Q 2672 984 2672 1447 
Q 2672 1909 2348 2167 
Q 2025 2425 1434 2425 
Q 978 2425 613 2384 
L 791 4841 
L 3053 4841 
L 3053 4303 
L 1306 4303 
L 1206 2931 
L 1647 2950 
Q 2416 2950 2855 2567 
Q 3294 2184 3294 1494 
z
" transform="scale(0.015625)"/>
       </defs>
       <use xlink:href="#MicrosoftYaHei-32"/>
       <use xlink:href="#MicrosoftYaHei-30" transform="translate(58.642578 0)"/>
       <use xlink:href="#MicrosoftYaHei-32" transform="translate(117.285156 0)"/>
       <use xlink:href="#MicrosoftYaHei-35" transform="translate(175.927734 0)"/>
       <use xlink:href="#MicrosoftYaHei-5e74" transform="translate(234.570312 0)"/>
      </g>
     </g>
    </g>
   </g>
   <g id="matplotlib.axis_2">
    <g id="ytick_1">
     <g id="line2d_6">
      <path d="M 99.36 512.64 
L 1020.96 512.64 
" clip-path="url(#pd170c559a1)" style="fill: none; stroke: #d0d0d0; stroke-opacity: 0.8; stroke-linecap: square"/>
     </g>
     <g id="line2d_7"/>
     <g id="text_6">
      <!-- 0 -->
      <g transform="translate(89.995937 516.636875) scale(0.1 -0.1)">
       <use xlink:href="#MicrosoftYaHei-30"/>
      </g>
     </g>
    </g>
    <g id="ytick_2">
     <g id="line2d_8">
      <path d="M 99.36 457.658182 
L 1020.96 457.658182 
" clip-path="url(#pd170c559a1)" style="fill: none; stroke: #d0d0d0; stroke-opacity: 0.8; stroke-linecap: square"/>
     </g>
     <g id="line2d_9"/>
     <g id="text_7">
      <!-- 500 -->
      <g transform="translate(78.267812 461.655057) scale(0.1 -0.1)">
       <use xlink:href="#MicrosoftYaHei-35"/>
       <use xlink:href="#MicrosoftYaHei-30" transform="translate(58.642578 0)"/>
       <use xlink:href="#MicrosoftYaHei-30" transform="translate(117.285156 0)"/>
      </g>
     </g>
    </g>
    <g id="ytick_3">
     <g id="line2d_10">
      <path d="M 99.36 402.676364 
L 1020.96 402.676364 
" clip-path="url(#pd170c559a1)" style="fill: none; stroke: #d0d0d0; stroke-opacity: 0.8; stroke-linecap: square"/>
     </g>
     <g id="line2d_11"/>
     <g id="text_8">
      <!-- 1000 -->
      <g transform="translate(72.40375 406.673239) scale(0.1 -0.1)">
       <use xlink:href="#MicrosoftYaHei-31"/>
       <use xlink:href="#MicrosoftYaHei-30" transform="translate(58.642578 0)"/>
       <use xlink:href="#MicrosoftYaHei-30" transform="translate(117.285156 0)"/>
       <use xlink:href="#MicrosoftYaHei-30" transform="translate(175.927734 0)"/>
      </g>
     </g>
    </g>
    <g id="ytick_4">
     <g id="line2d_12">
      <path d="M 99.36 347.694545 
L 1020.96 347.694545 
" clip-path="url(#pd170c559a1)" style="fill: none; stroke: #d0d0d0; stroke-opacity: 0.8; stroke-linecap: square"/>
     </g>
     <g id="line2d_13"/>
     <g id="text_9">
      <!-- 1500 -->
      <g transform="translate(72.40375 351.69142) scale(0.1 -0.1)">
       <use xlink:href="#MicrosoftYaHei-31"/>
       <use xlink:href="#MicrosoftYaHei-35" transform="translate(58.642578 0)"/>
       <use xlink:href="#MicrosoftYaHei-30" transform="translate(117.285156 0)"/>
       <use xlink:href="#MicrosoftYaHei-30" transform="translate(175.927734 0)"/>
      </g>
     </g>
    </g>
    <g id="ytick_5">
     <g id="line2d_14">
      <path d="M 99.36 292.712727 
L 1020.96 292.712727 
" clip-path="url(#pd170c559a1)" style="fill: none; stroke: #d0d0d0; stroke-opacity: 0.8; stroke-linecap: square"/>
     </g>
     <g id="line2d_15"/>
     <g id="text_10">
      <!-- 2000 -->
      <g transform="translate(72.40375 296.709602) scale(0.1 -0.1)">
       <use xlink:href="#MicrosoftYaHei-32"/>
       <use xlink:href="#MicrosoftYaHei-30" transform="translate(58.642578 0)"/>
       <use xlink:href="#MicrosoftYaHei-30" transform="translate(117.285156 0)"/>
       <use xlink:href="#MicrosoftYaHei-30" transform="translate(175.927734 0)"/>
      </g>
     </g>
    </g>
    <g id="ytick_6">
     <g id="line2d_16">
      <path d="M 99.36 237.730909 
L 1020.96 237.730909 
" clip-path="url(#pd170c559a1)" style="fill: none; stroke: #d0d0d0; stroke-opacity: 0.8; stroke-linecap: square"/>
     </g>
     <g id="line2d_17"/>
     <g id="text_11">
      <!-- 2500 -->
      <g transform="translate(72.40375 241.727784) scale(0.1 -0.1)">
       <use xlink:href="#MicrosoftYaHei-32"/>
       <use xlink:href="#MicrosoftYaHei-35" transform="translate(58.642578 0)"/>
       <use xlink:href="#MicrosoftYaHei-30" transform="translate(117.285156 0)"/>
       <use xlink:href="#MicrosoftYaHei-30" transform="translate(175.927734 0)"/>
      </g>
     </g>
    </g>
    <g id="ytick_7">
     <g id="line2d_18">
      <path d="M 99.36 182.749091 
L 1020.96 182.749091 
" clip-path="url(#pd170c559a1)" style="fill: none; stroke: #d0d0d0; stroke-opacity: 0.8; stroke-linecap: square"/>
     </g>
     <g id="line2d_19"/>
     <g id="text_12">
      <!-- 3000 -->
      <g transform="translate(72.40375 186.745966) scale(0.1 -0.1)">
       <use xlink:href="#MicrosoftYaHei-33"/>
       <use xlink:href="#MicrosoftYaHei-30" transform="translate(58.642578 0)"/>
       <use xlink:href="#MicrosoftYaHei-30" transform="translate(117.285156 0)"/>
       <use xlink:href="#MicrosoftYaHei-30" transform="translate(175.927734 0)"/>
      </g>
     </g>
    </g>
    <g id="text_13">
     <!-- 万吨 -->
     <g transform="translate(65.172031 344.2) rotate(-90) scale(0.13 -0.13)">
      <defs>
       <path id="MicrosoftYaHei-4e07" d="M 188 4803 
L 6213 4803 
L 6213 4322 
L 2634 4322 
Q 2609 3625 2569 3016 
L 5469 3016 
Q 5406 1741 5325 597 
Q 5269 -97 5006 -403 
Q 4756 -684 4100 -691 
Q 3756 -703 2938 -641 
Q 2906 -403 2844 -66 
Q 3638 -172 4056 -172 
Q 4725 -222 4794 672 
Q 4869 1547 4906 2541 
L 2531 2541 
Q 2297 253 481 -859 
Q 338 -666 113 -416 
Q 1869 653 1994 2772 
Q 2053 3456 2072 4322 
L 188 4322 
L 188 4803 
z
" transform="scale(0.015625)"/>
       <path id="MicrosoftYaHei-5428" d="M 2313 4509 
L 3950 4509 
L 3950 5297 
L 4413 5297 
L 4413 4509 
L 6138 4509 
L 6138 4059 
L 4413 4059 
L 4413 1834 
L 5325 1834 
L 5325 3528 
L 5775 3528 
L 5775 1141 
L 5325 1141 
L 5325 1397 
L 4413 1397 
L 4413 216 
Q 4413 -197 4750 -197 
L 5369 -197 
Q 5713 -197 5756 141 
Q 5813 566 5850 1059 
Q 6106 947 6319 859 
Q 6256 341 6194 -34 
Q 6100 -647 5375 -647 
L 4644 -647 
Q 3950 -647 3950 147 
L 3950 1397 
L 2594 1397 
L 2594 3522 
L 3044 3522 
L 3044 1834 
L 3950 1834 
L 3950 4059 
L 2313 4059 
L 2313 4509 
z
M 450 4634 
L 2069 4634 
L 2069 353 
L 1619 353 
L 1619 684 
L 900 684 
L 900 253 
L 450 253 
L 450 4634 
z
M 1619 4197 
L 900 4197 
L 900 1122 
L 1619 1122 
L 1619 4197 
z
" transform="scale(0.015625)"/>
      </defs>
      <use xlink:href="#MicrosoftYaHei-4e07"/>
      <use xlink:href="#MicrosoftYaHei-5428" transform="translate(100 0)"/>
     </g>
    </g>
   </g>
   <g id="patch_6">
    <path d="M 147.2832 512.64 
L 235.7568 512.64 
L 235.7568 287.269527 
L 147.2832 287.269527 
z
" clip-path="url(#pd170c559a1)" style="fill: #3f67ad"/>
   </g>
   <g id="patch_7">
    <path d="M 331.6032 512.64 
L 420.0768 512.64 
L 420.0768 240.205091 
L 331.6032 240.205091 
z
" clip-path="url(#pd170c559a1)" style="fill: #3f67ad"/>
   </g>
   <g id="patch_8">
    <path d="M 515.9232 512.64 
L 604.3968 512.64 
L 604.3968 205.566545 
L 515.9232 205.566545 
z
" clip-path="url(#pd170c559a1)" style="fill: #3f67ad"/>
   </g>
   <g id="patch_9">
    <path d="M 700.2432 512.64 
L 788.7168 512.64 
L 788.7168 198.418909 
L 700.2432 198.418909 
z
" clip-path="url(#pd170c559a1)" style="fill: #3f67ad"/>
   </g>
   <g id="patch_10">
    <path d="M 884.5632 512.64 
L 973.0368 512.64 
L 973.0368 193.415564 
L 884.5632 193.415564 
z
" clip-path="url(#pd170c559a1)" style="fill: #3f67ad"/>
   </g>
   <g id="line2d_20">
    <path d="M 191.52 376.614982 
L 375.84 362.132771 
L 560.16 328.121018 
L 744.48 297.111273 
L 928.8 281.716364 
" clip-path="url(#pd170c559a1)" style="fill: none; stroke: #ed7d31; stroke-width: 3; stroke-linecap: square"/>
    <defs>
     <path id="m2207a07d98" d="M 0 3.5 
C 0.928211 3.5 1.81853 3.131218 2.474874 2.474874 
C 3.131218 1.81853 3.5 0.928211 3.5 0 
C 3.5 -0.928211 3.131218 -1.81853 2.474874 -2.474874 
C 1.81853 -3.131218 0.928211 -3.5 0 -3.5 
C -0.928211 -3.5 -1.81853 -3.131218 -2.474874 -2.474874 
C -3.131218 -1.81853 -3.5 -0.928211 -3.5 0 
C -3.5 0.928211 -3.131218 1.81853 -2.474874 2.474874 
C -1.81853 3.131218 -0.928211 3.5 0 3.5 
z
" style="stroke: #ed7d31"/>
    </defs>
    <g clip-path="url(#pd170c559a1)">
     <use xlink:href="#m2207a07d98" x="191.52" y="376.614982" style="fill: #ed7d31; stroke: #ed7d31"/>
     <use xlink:href="#m2207a07d98" x="375.84" y="362.132771" style="fill: #ed7d31; stroke: #ed7d31"/>
     <use xlink:href="#m2207a07d98" x="560.16" y="328.121018" style="fill: #ed7d31; stroke: #ed7d31"/>
     <use xlink:href="#m2207a07d98" x="744.48" y="297.111273" style="fill: #ed7d31; stroke: #ed7d31"/>
     <use xlink:href="#m2207a07d98" x="928.8" y="281.716364" style="fill: #ed7d31; stroke: #ed7d31"/>
    </g>
   </g>
   <g id="text_14">
    <!-- 2049.5 -->
    <g style="fill: #1e2e4b" transform="translate(174.862734 279.710929) scale(0.105 -0.105)">
     <defs>
      <path id="MicrosoftYaHei-39" d="M 578 656 
Q 978 425 1441 425 
Q 2091 425 2448 937 
Q 2806 1450 2806 2394 
Q 2800 2388 2794 2394 
Q 2475 1788 1722 1788 
Q 1113 1788 713 2206 
Q 313 2625 313 3294 
Q 313 4006 750 4464 
Q 1188 4922 1884 4922 
Q 2606 4922 3012 4355 
Q 3419 3788 3419 2703 
Q 3419 1363 2894 641 
Q 2369 -81 1441 -81 
Q 931 -81 578 84 
L 578 656 
z
M 931 3372 
Q 931 2884 1181 2598 
Q 1431 2313 1872 2313 
Q 2253 2313 2512 2573 
Q 2772 2834 2772 3206 
Q 2772 3728 2514 4070 
Q 2256 4413 1834 4413 
Q 1444 4413 1187 4116 
Q 931 3819 931 3372 
z
" transform="scale(0.015625)"/>
      <path id="MicrosoftYaHei-2e" d="M 372 322 
Q 372 491 487 606 
Q 603 722 775 722 
Q 950 722 1065 605 
Q 1181 488 1181 322 
Q 1181 159 1065 42 
Q 950 -75 772 -75 
Q 600 -75 486 42 
Q 372 159 372 322 
z
" transform="scale(0.015625)"/>
     </defs>
     <use xlink:href="#MicrosoftYaHei-32"/>
     <use xlink:href="#MicrosoftYaHei-30" transform="translate(58.642578 0)"/>
     <use xlink:href="#MicrosoftYaHei-34" transform="translate(117.285156 0)"/>
     <use xlink:href="#MicrosoftYaHei-39" transform="translate(175.927734 0)"/>
     <use xlink:href="#MicrosoftYaHei-2e" transform="translate(234.570312 0)"/>
     <use xlink:href="#MicrosoftYaHei-35" transform="translate(258.642578 0)"/>
    </g>
   </g>
   <g id="text_15">
    <!-- 2477.5 -->
    <g style="fill: #1e2e4b" transform="translate(359.182734 232.646493) scale(0.105 -0.105)">
     <defs>
      <path id="MicrosoftYaHei-37" d="M 3422 4463 
Q 2659 3131 2223 1998 
Q 1788 866 1684 0 
L 1047 0 
Q 1163 853 1594 1947 
Q 2025 3041 2747 4300 
L 347 4300 
L 347 4841 
L 3422 4841 
L 3422 4463 
z
" transform="scale(0.015625)"/>
     </defs>
     <use xlink:href="#MicrosoftYaHei-32"/>
     <use xlink:href="#MicrosoftYaHei-34" transform="translate(58.642578 0)"/>
     <use xlink:href="#MicrosoftYaHei-37" transform="translate(117.285156 0)"/>
     <use xlink:href="#MicrosoftYaHei-37" transform="translate(175.927734 0)"/>
     <use xlink:href="#MicrosoftYaHei-2e" transform="translate(234.570312 0)"/>
     <use xlink:href="#MicrosoftYaHei-35" transform="translate(258.642578 0)"/>
    </g>
   </g>
   <g id="text_16">
    <!-- 2792.5 -->
    <g style="fill: #1e2e4b" transform="translate(543.502734 198.007947) scale(0.105 -0.105)">
     <use xlink:href="#MicrosoftYaHei-32"/>
     <use xlink:href="#MicrosoftYaHei-37" transform="translate(58.642578 0)"/>
     <use xlink:href="#MicrosoftYaHei-39" transform="translate(117.285156 0)"/>
     <use xlink:href="#MicrosoftYaHei-32" transform="translate(175.927734 0)"/>
     <use xlink:href="#MicrosoftYaHei-2e" transform="translate(234.570312 0)"/>
     <use xlink:href="#MicrosoftYaHei-35" transform="translate(258.642578 0)"/>
    </g>
   </g>
   <g id="text_17">
    <!-- 2857.5 -->
    <g style="fill: #1e2e4b" transform="translate(727.822734 190.860311) scale(0.105 -0.105)">
     <defs>
      <path id="MicrosoftYaHei-38" d="M 306 1350 
Q 306 1769 556 2122 
Q 806 2475 1200 2625 
Q 884 2803 700 3081 
Q 516 3359 516 3684 
Q 516 4028 692 4312 
Q 869 4597 1183 4759 
Q 1497 4922 1875 4922 
Q 2256 4922 2572 4761 
Q 2888 4600 3063 4315 
Q 3238 4031 3238 3684 
Q 3238 3366 3058 3086 
Q 2878 2806 2559 2625 
Q 2953 2472 3200 2119 
Q 3447 1766 3447 1350 
Q 3447 938 3250 611 
Q 3053 284 2690 103 
Q 2328 -78 1875 -78 
Q 1425 -78 1065 103 
Q 706 284 506 612 
Q 306 941 306 1350 
z
M 906 1378 
Q 906 947 1172 687 
Q 1438 428 1878 428 
Q 2309 428 2582 692 
Q 2856 956 2856 1378 
Q 2856 1778 2579 2051 
Q 2303 2325 1878 2325 
Q 1456 2325 1181 2058 
Q 906 1791 906 1378 
z
M 1081 3634 
Q 1081 3309 1312 3076 
Q 1544 2844 1878 2844 
Q 2206 2844 2445 3078 
Q 2684 3313 2684 3634 
Q 2684 3963 2454 4191 
Q 2225 4419 1878 4419 
Q 1534 4419 1307 4195 
Q 1081 3972 1081 3634 
z
" transform="scale(0.015625)"/>
     </defs>
     <use xlink:href="#MicrosoftYaHei-32"/>
     <use xlink:href="#MicrosoftYaHei-38" transform="translate(58.642578 0)"/>
     <use xlink:href="#MicrosoftYaHei-35" transform="translate(117.285156 0)"/>
     <use xlink:href="#MicrosoftYaHei-37" transform="translate(175.927734 0)"/>
     <use xlink:href="#MicrosoftYaHei-2e" transform="translate(234.570312 0)"/>
     <use xlink:href="#MicrosoftYaHei-35" transform="translate(258.642578 0)"/>
    </g>
   </g>
   <g id="text_18">
    <!-- 2903 -->
    <g style="fill: #1e2e4b" transform="translate(916.485469 185.856966) scale(0.105 -0.105)">
     <use xlink:href="#MicrosoftYaHei-32"/>
     <use xlink:href="#MicrosoftYaHei-39" transform="translate(58.642578 0)"/>
     <use xlink:href="#MicrosoftYaHei-30" transform="translate(117.285156 0)"/>
     <use xlink:href="#MicrosoftYaHei-33" transform="translate(175.927734 0)"/>
    </g>
   </g>
   <g id="text_19">
    <!-- 1237 -->
    <g style="fill: #7a3f00" transform="translate(179.205469 370.15602) scale(0.105 -0.105)">
     <use xlink:href="#MicrosoftYaHei-31"/>
     <use xlink:href="#MicrosoftYaHei-32" transform="translate(58.642578 0)"/>
     <use xlink:href="#MicrosoftYaHei-33" transform="translate(117.285156 0)"/>
     <use xlink:href="#MicrosoftYaHei-37" transform="translate(175.927734 0)"/>
    </g>
   </g>
   <g id="text_20">
    <!-- 1368.7 -->
    <g style="fill: #7a3f00" transform="translate(359.182734 355.673809) scale(0.105 -0.105)">
     <defs>
      <path id="MicrosoftYaHei-36" d="M 3181 4219 
Q 2803 4413 2391 4413 
Q 1763 4413 1381 3866 
Q 1000 3319 994 2372 
L 1009 2372 
Q 1353 3038 2106 3038 
Q 2734 3038 3109 2628 
Q 3484 2219 3484 1541 
Q 3484 831 3051 375 
Q 2619 -81 1947 -81 
Q 1209 -81 789 495 
Q 369 1072 369 2131 
Q 369 3413 920 4167 
Q 1472 4922 2372 4922 
Q 2888 4922 3181 4781 
L 3181 4219 
z
M 1031 1584 
Q 1031 1106 1286 765 
Q 1541 425 1963 425 
Q 2363 425 2613 719 
Q 2863 1013 2863 1475 
Q 2863 1975 2627 2253 
Q 2391 2531 1956 2531 
Q 1544 2531 1287 2250 
Q 1031 1969 1031 1584 
z
" transform="scale(0.015625)"/>
     </defs>
     <use xlink:href="#MicrosoftYaHei-31"/>
     <use xlink:href="#MicrosoftYaHei-33" transform="translate(58.642578 0)"/>
     <use xlink:href="#MicrosoftYaHei-36" transform="translate(117.285156 0)"/>
     <use xlink:href="#MicrosoftYaHei-38" transform="translate(175.927734 0)"/>
     <use xlink:href="#MicrosoftYaHei-2e" transform="translate(234.570312 0)"/>
     <use xlink:href="#MicrosoftYaHei-37" transform="translate(258.642578 0)"/>
    </g>
   </g>
   <g id="text_21">
    <!-- 1678 -->
    <g style="fill: #7a3f00" transform="translate(547.845469 321.662057) scale(0.105 -0.105)">
     <use xlink:href="#MicrosoftYaHei-31"/>
     <use xlink:href="#MicrosoftYaHei-36" transform="translate(58.642578 0)"/>
     <use xlink:href="#MicrosoftYaHei-37" transform="translate(117.285156 0)"/>
     <use xlink:href="#MicrosoftYaHei-38" transform="translate(175.927734 0)"/>
    </g>
   </g>
   <g id="text_22">
    <!-- 1960 -->
    <g style="fill: #7a3f00" transform="translate(732.165469 290.652311) scale(0.105 -0.105)">
     <use xlink:href="#MicrosoftYaHei-31"/>
     <use xlink:href="#MicrosoftYaHei-39" transform="translate(58.642578 0)"/>
     <use xlink:href="#MicrosoftYaHei-36" transform="translate(117.285156 0)"/>
     <use xlink:href="#MicrosoftYaHei-30" transform="translate(175.927734 0)"/>
    </g>
   </g>
   <g id="text_23">
    <!-- 2100 -->
    <g style="fill: #7a3f00" transform="translate(916.485469 275.257402) scale(0.105 -0.105)">
     <use xlink:href="#MicrosoftYaHei-32"/>
     <use xlink:href="#MicrosoftYaHei-31" transform="translate(58.642578 0)"/>
     <use xlink:href="#MicrosoftYaHei-30" transform="translate(117.285156 0)"/>
     <use xlink:href="#MicrosoftYaHei-30" transform="translate(175.927734 0)"/>
    </g>
   </g>
   <g id="legend_1">
    <g id="line2d_21">
     <path d="M 110.16 165.9525 
L 122.16 165.9525 
L 134.16 165.9525 
" style="fill: none; stroke: #3f67ad; stroke-width: 8; stroke-linecap: square"/>
    </g>
    <g id="text_24">
     <!-- 产能（万吨，左轴） -->
     <g transform="translate(143.76 170.1525) scale(0.12 -0.12)">
      <defs>
       <path id="MicrosoftYaHei-4ea7" d="M 744 2809 
L 3700 2809 
Q 4122 3431 4456 4047 
L 4938 3741 
Q 4606 3275 4244 2809 
L 6094 2809 
L 6094 2372 
L 1250 2372 
L 1250 1934 
Q 1250 828 1081 284 
Q 906 -322 419 -853 
Q 256 -653 81 -428 
Q 450 -34 600 497 
Q 744 1016 744 1934 
L 744 2809 
z
M 231 4597 
L 3084 4597 
Q 2947 4853 2781 5122 
L 3244 5353 
Q 3447 5022 3659 4597 
L 6256 4597 
L 6256 4153 
L 231 4153 
L 231 4597 
z
M 1538 3797 
L 1950 4072 
Q 2338 3584 2638 3147 
L 2194 2841 
Q 1950 3253 1538 3797 
z
" transform="scale(0.015625)"/>
       <path id="MicrosoftYaHei-80fd" d="M 950 -759 
L 463 -759 
L 463 2928 
L 3000 2928 
L 3000 -28 
Q 3000 -703 2375 -703 
Q 2100 -709 1669 -709 
Q 1638 -516 1575 -234 
Q 1969 -266 2206 -266 
Q 2513 -266 2513 53 
L 2513 572 
L 950 572 
L 950 -759 
z
M 3606 2253 
L 4094 2253 
L 4094 1222 
Q 4981 1553 5950 2091 
L 6231 1659 
Q 5209 1122 4094 706 
L 4094 166 
Q 4094 -228 4400 -228 
L 5319 -228 
Q 5638 -228 5688 78 
Q 5731 353 5763 897 
Q 6000 803 6250 722 
Q 6200 172 6144 -109 
Q 6063 -659 5363 -659 
L 4319 -659 
Q 3606 -659 3606 72 
L 3606 2253 
z
M 3619 5303 
L 4106 5303 
L 4106 4231 
Q 4966 4572 5813 5053 
L 6094 4622 
Q 5119 4128 4106 3719 
L 4106 3359 
Q 4106 2941 4438 2941 
L 5231 2941 
Q 5625 2941 5675 3266 
Q 5719 3534 5750 4047 
Q 5988 3953 6238 3866 
Q 6188 3366 6131 3053 
Q 6038 2509 5288 2509 
L 4375 2509 
Q 3619 2509 3619 3259 
L 3619 5303 
z
M 2463 4772 
Q 3031 4034 3450 3353 
Q 3213 3191 3019 3066 
Q 2897 3281 2759 3506 
Q 1231 3394 313 3303 
L 113 3828 
Q 388 3978 719 4391 
Q 1063 4841 1394 5397 
L 1888 5216 
Q 1369 4466 794 3797 
Q 1731 3856 2497 3919 
Q 2300 4216 2075 4528 
L 2463 4772 
z
M 950 947 
L 2513 947 
L 2513 1553 
L 950 1553 
L 950 947 
z
M 2513 2528 
L 950 2528 
L 950 1928 
L 2513 1928 
L 2513 2528 
z
" transform="scale(0.015625)"/>
       <path id="MicrosoftYaHei-ff08" d="M 5288 -1100 
Q 4172 119 4172 1850 
Q 4172 3603 5288 4838 
L 5825 4838 
Q 4716 3572 4716 1856 
Q 4716 166 5819 -1100 
L 5288 -1100 
z
" transform="scale(0.015625)"/>
       <path id="MicrosoftYaHei-ff0c" d="M 1931 775 
L 1403 -891 
L 966 -891 
L 1350 775 
L 1931 775 
z
" transform="scale(0.015625)"/>
       <path id="MicrosoftYaHei-5de6" d="M 1150 9 
L 3425 9 
L 3425 2034 
L 1884 2034 
Q 1363 913 413 -291 
Q 250 -53 69 128 
Q 1425 1803 1988 3878 
L 300 3878 
L 300 4359 
L 2106 4359 
Q 2209 4822 2281 5328 
L 2813 5259 
Q 2728 4784 2634 4359 
L 6250 4359 
L 6250 3878 
L 2519 3878 
Q 2363 3228 2088 2509 
L 5850 2509 
L 5850 2034 
L 3956 2034 
L 3956 9 
L 6250 9 
L 6250 -459 
L 1150 -459 
L 1150 9 
z
" transform="scale(0.015625)"/>
       <path id="MicrosoftYaHei-8f74" d="M 2775 4078 
L 4163 4078 
L 4163 5253 
L 4613 5253 
L 4613 4078 
L 6000 4078 
L 6000 -784 
L 5538 -784 
L 5538 -384 
L 3238 -384 
L 3238 -784 
L 2775 -784 
L 2775 4078 
z
M 706 2516 
L 1369 2516 
L 1369 3622 
L 1819 3622 
L 1819 2516 
L 2400 2516 
L 2400 2091 
L 1819 2091 
L 1819 1000 
Q 2144 1044 2488 1091 
Q 2456 847 2444 647 
Q 2141 613 1819 569 
L 1819 -841 
L 1369 -841 
L 1369 509 
Q 784 431 131 334 
L 81 803 
Q 691 863 1369 944 
L 1369 2091 
L 244 2091 
L 244 2516 
Q 538 3275 769 3941 
L 156 3941 
L 156 4366 
L 913 4366 
Q 1084 4888 1213 5347 
L 1688 5247 
Q 1547 4809 1391 4366 
L 2488 4366 
L 2488 3941 
L 1244 3941 
Q 991 3234 706 2516 
z
M 4613 53 
L 5538 53 
L 5538 1653 
L 4613 1653 
L 4613 53 
z
M 3238 53 
L 4163 53 
L 4163 1653 
L 3238 1653 
L 3238 53 
z
M 5538 3641 
L 4613 3641 
L 4613 2078 
L 5538 2078 
L 5538 3641 
z
M 3238 2078 
L 4163 2078 
L 4163 3641 
L 3238 3641 
L 3238 2078 
z
" transform="scale(0.015625)"/>
       <path id="MicrosoftYaHei-ff09" d="M 1113 -1100 
L 575 -1100 
Q 1684 163 1684 1888 
Q 1684 3581 581 4838 
L 1113 4838 
Q 2222 3628 2222 1888 
Q 2222 128 1113 -1100 
z
" transform="scale(0.015625)"/>
      </defs>
      <use xlink:href="#MicrosoftYaHei-4ea7"/>
      <use xlink:href="#MicrosoftYaHei-80fd" transform="translate(100 0)"/>
      <use xlink:href="#MicrosoftYaHei-ff08" transform="translate(200 0)"/>
      <use xlink:href="#MicrosoftYaHei-4e07" transform="translate(300 0)"/>
      <use xlink:href="#MicrosoftYaHei-5428" transform="translate(400 0)"/>
      <use xlink:href="#MicrosoftYaHei-ff0c" transform="translate(500 0)"/>
      <use xlink:href="#MicrosoftYaHei-5de6" transform="translate(600 0)"/>
      <use xlink:href="#MicrosoftYaHei-8f74" transform="translate(700 0)"/>
      <use xlink:href="#MicrosoftYaHei-ff09" transform="translate(800 0)"/>
     </g>
    </g>
    <g id="line2d_22">
     <path d="M 110.16 184.528125 
L 122.16 184.528125 
L 134.16 184.528125 
" style="fill: none; stroke: #ed7d31; stroke-width: 3; stroke-linecap: square"/>
     <defs>
      <path id="m0bde89753a" d="M 0 3 
C 0.795609 3 1.55874 2.683901 2.12132 2.12132 
C 2.683901 1.55874 3 0.795609 3 0 
C 3 -0.795609 2.683901 -1.55874 2.12132 -2.12132 
C 1.55874 -2.683901 0.795609 -3 0 -3 
C -0.795609 -3 -1.55874 -2.683901 -2.12132 -2.12132 
C -2.683901 -1.55874 -3 -0.795609 -3 0 
C -3 0.795609 -2.683901 1.55874 -2.12132 2.12132 
C -1.55874 2.683901 -0.795609 3 0 3 
z
" style="stroke: #ed7d31"/>
     </defs>
     <g>
      <use xlink:href="#m0bde89753a" x="122.16" y="184.528125" style="fill: #ed7d31; stroke: #ed7d31"/>
     </g>
    </g>
    <g id="text_25">
     <!-- 产量（万吨，左轴） -->
     <g transform="translate(143.76 188.728125) scale(0.12 -0.12)">
      <defs>
       <path id="MicrosoftYaHei-91cf" d="M 113 -278 
L 2981 -278 
L 2981 78 
L 475 78 
L 475 403 
L 2981 403 
L 2981 759 
L 1494 759 
L 1494 597 
L 1069 597 
L 1069 2516 
L 5350 2516 
L 5350 597 
L 4925 597 
L 4925 759 
L 3419 759 
L 3419 403 
L 5931 403 
L 5931 78 
L 3419 78 
L 3419 -278 
L 6288 -278 
L 6288 -616 
L 113 -616 
L 113 -278 
z
M 1119 5072 
L 5306 5072 
L 5306 3284 
L 4881 3284 
L 4881 3453 
L 1544 3453 
L 1544 3284 
L 1119 3284 
L 1119 5072 
z
M 163 3153 
L 6263 3153 
L 6263 2816 
L 163 2816 
L 163 3153 
z
M 1544 3778 
L 4881 3778 
L 4881 4116 
L 1544 4116 
L 1544 3778 
z
M 4881 4747 
L 1544 4747 
L 1544 4416 
L 4881 4416 
L 4881 4747 
z
M 3419 1084 
L 4925 1084 
L 4925 1491 
L 3419 1491 
L 3419 1084 
z
M 1494 1084 
L 2981 1084 
L 2981 1491 
L 1494 1491 
L 1494 1084 
z
M 4925 2191 
L 3419 2191 
L 3419 1791 
L 4925 1791 
L 4925 2191 
z
M 1494 1791 
L 2981 1791 
L 2981 2191 
L 1494 2191 
L 1494 1791 
z
" transform="scale(0.015625)"/>
      </defs>
      <use xlink:href="#MicrosoftYaHei-4ea7"/>
      <use xlink:href="#MicrosoftYaHei-91cf" transform="translate(100 0)"/>
      <use xlink:href="#MicrosoftYaHei-ff08" transform="translate(200 0)"/>
      <use xlink:href="#MicrosoftYaHei-4e07" transform="translate(300 0)"/>
      <use xlink:href="#MicrosoftYaHei-5428" transform="translate(400 0)"/>
      <use xlink:href="#MicrosoftYaHei-ff0c" transform="translate(500 0)"/>
      <use xlink:href="#MicrosoftYaHei-5de6" transform="translate(600 0)"/>
      <use xlink:href="#MicrosoftYaHei-8f74" transform="translate(700 0)"/>
      <use xlink:href="#MicrosoftYaHei-ff09" transform="translate(800 0)"/>
     </g>
    </g>
    <g id="line2d_23">
     <path d="M 110.16 203.10375 
L 122.16 203.10375 
L 134.16 203.10375 
" style="fill: none; stroke: #70ad47; stroke-width: 3; stroke-linecap: square"/>
     <defs>
      <path id="m3dc1c74eee" d="M -3 3 
L 3 3 
L 3 -3 
L -3 -3 
z
" style="stroke: #70ad47; stroke-linejoin: miter"/>
     </defs>
     <g>
      <use xlink:href="#m3dc1c74eee" x="122.16" y="203.10375" style="fill: #70ad47; stroke: #70ad47; stroke-linejoin: miter"/>
     </g>
    </g>
    <g id="text_26">
     <!-- 进口依存度（右轴） -->
     <g transform="translate(143.76 207.30375) scale(0.12 -0.12)">
      <defs>
       <path id="MicrosoftYaHei-8fdb" d="M 1756 2416 
L 2828 2416 
Q 2838 2903 2838 3741 
L 2050 3741 
L 2050 4191 
L 2838 4191 
L 2838 5291 
L 3338 5291 
L 3338 4191 
L 4575 4191 
L 4575 5291 
L 5075 5291 
L 5075 4191 
L 6000 4191 
L 6000 3741 
L 5075 3741 
L 5075 2416 
L 6244 2416 
L 6244 1966 
L 5075 1966 
L 5075 66 
L 4575 66 
L 4575 1966 
L 3291 1966 
Q 3106 691 2213 66 
Q 2050 247 1831 447 
Q 2597 931 2778 1966 
L 1756 1966 
L 1756 2416 
z
M 2606 -191 
L 4088 -222 
L 6300 -166 
Q 6231 -372 6125 -659 
L 4050 -666 
L 2544 -634 
Q 1513 -616 1081 91 
Q 825 -147 331 -747 
L 75 -228 
Q 628 306 875 538 
L 875 2641 
L 131 2641 
L 131 3103 
L 1356 3103 
L 1356 438 
Q 1744 -175 2606 -191 
z
M 3331 2416 
L 4575 2416 
L 4575 3741 
L 3338 3741 
Q 3338 2666 3331 2416 
z
M 813 5216 
Q 1288 4622 1688 4034 
Q 1425 3866 1225 3722 
Q 881 4322 413 4947 
L 813 5216 
z
" transform="scale(0.015625)"/>
       <path id="MicrosoftYaHei-53e3" d="M 713 4684 
L 5675 4684 
L 5675 -578 
L 5138 -578 
L 5138 28 
L 1250 28 
L 1250 -578 
L 713 -578 
L 713 4684 
z
M 5138 497 
L 5138 4216 
L 1250 4216 
L 1250 497 
L 5138 497 
z
" transform="scale(0.015625)"/>
       <path id="MicrosoftYaHei-4f9d" d="M 5681 3141 
L 6038 2753 
Q 5388 2222 4644 1688 
Q 5250 531 6331 -3 
Q 6106 -253 5938 -478 
Q 4159 622 3675 3138 
Q 3413 2719 3100 2322 
L 3100 22 
Q 3631 322 4194 666 
Q 4238 366 4294 159 
Q 3650 -197 3094 -559 
Q 2906 -691 2731 -853 
L 2394 -422 
Q 2613 -216 2613 141 
L 2613 1759 
Q 2153 1266 1600 816 
Q 1494 1034 1344 1297 
Q 2784 2416 3497 3847 
L 1738 3847 
L 1738 4272 
L 6263 4272 
L 6263 3847 
L 4066 3847 
Q 4038 3791 4009 3731 
Q 4153 2831 4441 2125 
Q 5100 2613 5681 3141 
z
M 69 2272 
Q 906 3522 1369 5303 
L 1831 5166 
Q 1578 4341 1275 3625 
L 1275 -841 
L 825 -841 
L 825 2681 
Q 559 2188 263 1759 
Q 175 2022 69 2272 
z
M 3338 5116 
L 3750 5372 
Q 4075 4966 4338 4591 
L 3900 4303 
Q 3638 4741 3338 5116 
z
" transform="scale(0.015625)"/>
       <path id="MicrosoftYaHei-5b58" d="M 169 4641 
L 1925 4641 
Q 2053 4991 2163 5359 
L 2675 5228 
Q 2578 4928 2472 4641 
L 6275 4641 
L 6275 4178 
L 2291 4178 
Q 1963 3384 1563 2709 
L 1563 -797 
L 1081 -797 
L 1081 1984 
Q 747 1528 369 1141 
Q 244 1359 69 1591 
Q 1113 2688 1744 4178 
L 169 4178 
L 169 4641 
z
M 1838 1791 
L 3994 1791 
L 3994 2203 
Q 4656 2628 5156 3047 
L 2256 3047 
L 2256 3503 
L 5869 3503 
L 5869 2997 
Q 5231 2491 4475 1978 
L 4475 1791 
L 6319 1791 
L 6319 1334 
L 4475 1334 
L 4475 -72 
Q 4475 -784 3763 -784 
Q 3425 -784 2856 -766 
Q 2825 -528 2775 -259 
Q 3375 -322 3663 -322 
Q 3994 -322 3994 9 
L 3994 1334 
L 1838 1334 
L 1838 1791 
z
" transform="scale(0.015625)"/>
       <path id="MicrosoftYaHei-5ea6" d="M 1550 1216 
L 1550 1628 
L 5469 1628 
L 5469 1222 
Q 4903 613 4147 163 
Q 5050 -200 6263 -309 
L 6019 -797 
Q 4625 -603 3644 -109 
Q 2600 -619 1250 -866 
Q 1150 -666 994 -416 
Q 2231 -222 3166 166 
Q 2497 600 2066 1216 
L 1550 1216 
z
M 1363 3541 
L 2294 3541 
L 2294 4066 
L 2769 4066 
L 2769 3541 
L 4538 3541 
L 4538 4072 
L 5013 4072 
L 5013 3541 
L 6150 3541 
L 6150 3128 
L 5013 3128 
L 5013 1928 
L 4538 1928 
L 4538 2147 
L 2769 2147 
L 2769 1922 
L 2294 1922 
L 2294 3128 
L 1363 3128 
L 1363 3541 
z
M 3025 5172 
L 3481 5391 
Q 3694 5056 3909 4634 
L 6213 4634 
L 6213 4197 
L 1225 4197 
L 1225 2316 
Q 1225 178 394 -872 
Q 238 -666 38 -447 
Q 725 397 738 2347 
L 738 4634 
L 3331 4634 
Q 3188 4909 3025 5172 
z
M 2769 2547 
L 4538 2547 
L 4538 3128 
L 2769 3128 
L 2769 2547 
z
M 4819 1216 
L 2588 1216 
Q 3031 728 3656 391 
Q 4334 741 4819 1216 
z
" transform="scale(0.015625)"/>
       <path id="MicrosoftYaHei-53f3" d="M 250 4359 
L 2469 4359 
Q 2700 4834 2900 5341 
L 3406 5172 
Q 3225 4753 3031 4359 
L 6250 4359 
L 6250 3884 
L 2791 3884 
Q 2431 3200 2028 2584 
L 5688 2584 
L 5688 -803 
L 5188 -803 
L 5188 -266 
L 2000 -266 
L 2000 -803 
L 1500 -803 
L 1500 1828 
Q 1028 1197 506 647 
Q 388 784 119 1022 
Q 1366 2278 2228 3884 
L 250 3884 
L 250 4359 
z
M 5188 2109 
L 2000 2109 
L 2000 197 
L 5188 197 
L 5188 2109 
z
" transform="scale(0.015625)"/>
      </defs>
      <use xlink:href="#MicrosoftYaHei-8fdb"/>
      <use xlink:href="#MicrosoftYaHei-53e3" transform="translate(100 0)"/>
      <use xlink:href="#MicrosoftYaHei-4f9d" transform="translate(200 0)"/>
      <use xlink:href="#MicrosoftYaHei-5b58" transform="translate(300 0)"/>
      <use xlink:href="#MicrosoftYaHei-5ea6" transform="translate(400 0)"/>
      <use xlink:href="#MicrosoftYaHei-ff08" transform="translate(500 0)"/>
      <use xlink:href="#MicrosoftYaHei-53f3" transform="translate(600 0)"/>
      <use xlink:href="#MicrosoftYaHei-8f74" transform="translate(700 0)"/>
      <use xlink:href="#MicrosoftYaHei-ff09" transform="translate(800 0)"/>
     </g>
    </g>
   </g>
  </g>
  <g id="axes_3">
   <g id="matplotlib.axis_3">
    <g id="ytick_8">
     <g id="line2d_24"/>
     <g id="text_27">
      <!-- 0 -->
      <g transform="translate(1024.46 516.636875) scale(0.1 -0.1)">
       <use xlink:href="#MicrosoftYaHei-30"/>
      </g>
     </g>
    </g>
    <g id="ytick_9">
     <g id="line2d_25"/>
     <g id="text_28">
      <!-- 10 -->
      <g transform="translate(1024.46 444.060875) scale(0.1 -0.1)">
       <use xlink:href="#MicrosoftYaHei-31"/>
       <use xlink:href="#MicrosoftYaHei-30" transform="translate(58.642578 0)"/>
      </g>
     </g>
    </g>
    <g id="ytick_10">
     <g id="line2d_26"/>
     <g id="text_29">
      <!-- 20 -->
      <g transform="translate(1024.46 371.484875) scale(0.1 -0.1)">
       <use xlink:href="#MicrosoftYaHei-32"/>
       <use xlink:href="#MicrosoftYaHei-30" transform="translate(58.642578 0)"/>
      </g>
     </g>
    </g>
    <g id="ytick_11">
     <g id="line2d_27"/>
     <g id="text_30">
      <!-- 30 -->
      <g transform="translate(1024.46 298.908875) scale(0.1 -0.1)">
       <use xlink:href="#MicrosoftYaHei-33"/>
       <use xlink:href="#MicrosoftYaHei-30" transform="translate(58.642578 0)"/>
      </g>
     </g>
    </g>
    <g id="ytick_12">
     <g id="line2d_28"/>
     <g id="text_31">
      <!-- 40 -->
      <g transform="translate(1024.46 226.332875) scale(0.1 -0.1)">
       <use xlink:href="#MicrosoftYaHei-34"/>
       <use xlink:href="#MicrosoftYaHei-30" transform="translate(58.642578 0)"/>
      </g>
     </g>
    </g>
    <g id="ytick_13">
     <g id="line2d_29"/>
     <g id="text_32">
      <!-- 50 -->
      <g transform="translate(1024.46 153.756875) scale(0.1 -0.1)">
       <use xlink:href="#MicrosoftYaHei-35"/>
       <use xlink:href="#MicrosoftYaHei-30" transform="translate(58.642578 0)"/>
      </g>
     </g>
    </g>
    <g id="text_33">
     <!-- 进口依存度（%） -->
     <g transform="translate(1050.58 382.482969) rotate(-90) scale(0.13 -0.13)">
      <defs>
       <path id="MicrosoftYaHei-25" d="M 272 3619 
Q 272 4213 589 4563 
Q 906 4913 1444 4913 
Q 1959 4913 2248 4591 
Q 2538 4269 2538 3694 
Q 2538 3122 2219 2765 
Q 1900 2409 1372 2409 
Q 872 2409 572 2740 
Q 272 3072 272 3619 
z
M 753 3650 
Q 753 3247 928 3028 
Q 1103 2809 1406 2809 
Q 1719 2809 1889 3036 
Q 2059 3263 2059 3675 
Q 2059 4078 1892 4298 
Q 1725 4519 1422 4519 
Q 1113 4519 933 4289 
Q 753 4059 753 3650 
z
M 4647 4841 
L 1538 -31 
L 1016 -31 
L 4125 4841 
L 4647 4841 
z
M 3172 1134 
Q 3172 1728 3489 2083 
Q 3806 2438 4341 2438 
Q 4853 2438 5143 2114 
Q 5434 1791 5434 1203 
Q 5434 634 5112 279 
Q 4791 -75 4272 -75 
Q 3769 -75 3470 261 
Q 3172 597 3172 1134 
z
M 3650 1163 
Q 3650 769 3825 548 
Q 4000 328 4303 328 
Q 4616 328 4786 556 
Q 4956 784 4956 1194 
Q 4956 1600 4786 1815 
Q 4616 2031 4319 2031 
Q 4000 2031 3825 1801 
Q 3650 1572 3650 1163 
z
" transform="scale(0.015625)"/>
      </defs>
      <use xlink:href="#MicrosoftYaHei-8fdb"/>
      <use xlink:href="#MicrosoftYaHei-53e3" transform="translate(100 0)"/>
      <use xlink:href="#MicrosoftYaHei-4f9d" transform="translate(200 0)"/>
      <use xlink:href="#MicrosoftYaHei-5b58" transform="translate(300 0)"/>
      <use xlink:href="#MicrosoftYaHei-5ea6" transform="translate(400 0)"/>
      <use xlink:href="#MicrosoftYaHei-ff08" transform="translate(500 0)"/>
      <use xlink:href="#MicrosoftYaHei-25" transform="translate(600 0)"/>
      <use xlink:href="#MicrosoftYaHei-ff09" transform="translate(688.964844 0)"/>
     </g>
    </g>
   </g>
   <g id="line2d_30">
    <path d="M 191.52 216.52992 
L 375.84 254.9952 
L 560.16 294.912 
L 744.48 329.74848 
L 928.8 316.6848 
" clip-path="url(#pbab6909cde)" style="fill: none; stroke: #70ad47; stroke-width: 2.8; stroke-linecap: square"/>
    <g clip-path="url(#pbab6909cde)">
     <use xlink:href="#m3dc1c74eee" x="191.52" y="216.52992" style="fill: #70ad47; stroke: #70ad47; stroke-linejoin: miter"/>
     <use xlink:href="#m3dc1c74eee" x="375.84" y="254.9952" style="fill: #70ad47; stroke: #70ad47; stroke-linejoin: miter"/>
     <use xlink:href="#m3dc1c74eee" x="560.16" y="294.912" style="fill: #70ad47; stroke: #70ad47; stroke-linejoin: miter"/>
     <use xlink:href="#m3dc1c74eee" x="744.48" y="329.74848" style="fill: #70ad47; stroke: #70ad47; stroke-linejoin: miter"/>
     <use xlink:href="#m3dc1c74eee" x="928.8" y="316.6848" style="fill: #70ad47; stroke: #70ad47; stroke-linejoin: miter"/>
    </g>
   </g>
   <g id="text_34">
    <!-- 40.8% -->
    <g style="fill: #385723" transform="translate(177.071562 206.786383) scale(0.1 -0.1)">
     <use xlink:href="#MicrosoftYaHei-34"/>
     <use xlink:href="#MicrosoftYaHei-30" transform="translate(58.642578 0)"/>
     <use xlink:href="#MicrosoftYaHei-2e" transform="translate(117.285156 0)"/>
     <use xlink:href="#MicrosoftYaHei-38" transform="translate(141.357422 0)"/>
     <use xlink:href="#MicrosoftYaHei-25" transform="translate(200 0)"/>
    </g>
   </g>
   <g id="text_35">
    <!-- 35.5% -->
    <g style="fill: #385723" transform="translate(361.391562 245.251663) scale(0.1 -0.1)">
     <use xlink:href="#MicrosoftYaHei-33"/>
     <use xlink:href="#MicrosoftYaHei-35" transform="translate(58.642578 0)"/>
     <use xlink:href="#MicrosoftYaHei-2e" transform="translate(117.285156 0)"/>
     <use xlink:href="#MicrosoftYaHei-35" transform="translate(141.357422 0)"/>
     <use xlink:href="#MicrosoftYaHei-25" transform="translate(200 0)"/>
    </g>
   </g>
   <g id="text_36">
    <!-- 30.0% -->
    <g style="fill: #385723" transform="translate(545.711562 285.168463) scale(0.1 -0.1)">
     <use xlink:href="#MicrosoftYaHei-33"/>
     <use xlink:href="#MicrosoftYaHei-30" transform="translate(58.642578 0)"/>
     <use xlink:href="#MicrosoftYaHei-2e" transform="translate(117.285156 0)"/>
     <use xlink:href="#MicrosoftYaHei-30" transform="translate(141.357422 0)"/>
     <use xlink:href="#MicrosoftYaHei-25" transform="translate(200 0)"/>
    </g>
   </g>
   <g id="text_37">
    <!-- 25.2% -->
    <g style="fill: #385723" transform="translate(730.031562 320.004943) scale(0.1 -0.1)">
     <use xlink:href="#MicrosoftYaHei-32"/>
     <use xlink:href="#MicrosoftYaHei-35" transform="translate(58.642578 0)"/>
     <use xlink:href="#MicrosoftYaHei-2e" transform="translate(117.285156 0)"/>
     <use xlink:href="#MicrosoftYaHei-32" transform="translate(141.357422 0)"/>
     <use xlink:href="#MicrosoftYaHei-25" transform="translate(200 0)"/>
    </g>
   </g>
   <g id="text_38">
    <!-- 27.0% -->
    <g style="fill: #385723" transform="translate(914.351562 306.941263) scale(0.1 -0.1)">
     <use xlink:href="#MicrosoftYaHei-32"/>
     <use xlink:href="#MicrosoftYaHei-37" transform="translate(58.642578 0)"/>
     <use xlink:href="#MicrosoftYaHei-2e" transform="translate(117.285156 0)"/>
     <use xlink:href="#MicrosoftYaHei-30" transform="translate(141.357422 0)"/>
     <use xlink:href="#MicrosoftYaHei-25" transform="translate(200 0)"/>
    </g>
   </g>
  </g>
  <g id="line2d_31">
   <path d="M 41.76 72 
L 1136.16 72 
" style="fill: none; stroke: #4a4a4a; stroke-width: 2.4; stroke-linecap: square"/>
  </g>
  <g id="line2d_32">
   <path d="M 41.76 72 
L 168.48 72 
" style="fill: none; stroke: #c81d24; stroke-width: 4.2; stroke-linecap: square"/>
  </g>
  <g id="text_39">
   <!-- 中国MEG生产消费情况（2021-2025） -->
   <g style="fill: #4a4a4a" transform="translate(41.76 46.08) scale(0.3 -0.3)">
    <defs>
     <path id="MicrosoftYaHei-Bold-4e2d" d="M 2719 5341 
L 3669 5341 
L 3669 4234 
L 6000 4234 
L 6000 728 
L 5075 728 
L 5075 1159 
L 3669 1159 
L 3669 -853 
L 2719 -853 
L 2719 1159 
L 1313 1159 
L 1313 709 
L 388 709 
L 388 4234 
L 2719 4234 
L 2719 5341 
z
M 5075 3372 
L 3669 3372 
L 3669 2022 
L 5075 2022 
L 5075 3372 
z
M 1313 2022 
L 2719 2022 
L 2719 3372 
L 1313 3372 
L 1313 2022 
z
" transform="scale(0.015625)"/>
     <path id="MicrosoftYaHei-Bold-56fd" d="M 356 -797 
L 356 5078 
L 6044 5078 
L 6044 -791 
L 5150 -791 
L 5150 -572 
L 1250 -572 
L 1250 -797 
L 356 -797 
z
M 5150 4309 
L 1250 4309 
L 1250 197 
L 5150 197 
L 5150 4309 
z
M 4800 2047 
L 4334 2047 
Q 4594 1822 4856 1566 
L 4525 1266 
L 4950 1266 
L 4950 534 
L 1419 534 
L 1419 1266 
L 2694 1266 
L 2694 2047 
L 1581 2047 
L 1581 2778 
L 2694 2778 
L 2694 3222 
L 1481 3222 
L 1481 3953 
L 4888 3953 
L 4888 3222 
L 3531 3222 
L 3531 2778 
L 4800 2778 
L 4800 2047 
z
M 3706 1734 
L 4069 2047 
L 3531 2047 
L 3531 1266 
L 4144 1266 
Q 3897 1547 3706 1734 
z
" transform="scale(0.015625)"/>
     <path id="MicrosoftYaHei-Bold-4d" d="M 4991 0 
L 4991 2938 
Q 4991 3344 5031 3959 
L 5006 3959 
Q 4913 3494 4856 3338 
L 3663 0 
L 2841 0 
L 1631 3306 
Q 1588 3425 1478 3959 
L 1450 3959 
Q 1491 3350 1491 2738 
L 1491 0 
L 559 0 
L 559 4841 
L 2059 4841 
L 3103 1916 
Q 3234 1553 3281 1234 
L 3303 1234 
Q 3400 1631 3503 1922 
L 4550 4841 
L 6009 4841 
L 6009 0 
L 4991 0 
z
" transform="scale(0.015625)"/>
     <path id="MicrosoftYaHei-Bold-45" d="M 3425 0 
L 559 0 
L 559 4841 
L 3313 4841 
L 3313 3997 
L 1591 3997 
L 1591 2856 
L 3191 2856 
L 3191 2016 
L 1591 2016 
L 1591 844 
L 3425 844 
L 3425 0 
z
" transform="scale(0.015625)"/>
     <path id="MicrosoftYaHei-Bold-47" d="M 4494 325 
Q 3784 -84 2750 -84 
Q 1594 -84 925 566 
Q 256 1216 256 2344 
Q 256 3488 992 4205 
Q 1728 4922 2931 4922 
Q 3706 4922 4284 4703 
L 4284 3725 
Q 3722 4053 2909 4053 
Q 2209 4053 1775 3597 
Q 1341 3141 1341 2394 
Q 1341 1634 1733 1209 
Q 2125 784 2803 784 
Q 3206 784 3463 909 
L 3463 1903 
L 2484 1903 
L 2484 2731 
L 4494 2731 
L 4494 325 
z
" transform="scale(0.015625)"/>
     <path id="MicrosoftYaHei-Bold-751f" d="M 350 291 
L 2981 291 
L 2981 1353 
L 1131 1353 
L 1131 2197 
L 2981 2197 
L 2981 3234 
L 1469 3234 
Q 1059 2428 550 1728 
Q 356 2247 125 2803 
Q 769 3659 1219 5084 
L 2150 4853 
Q 2013 4456 1856 4078 
L 2981 4078 
L 2981 5316 
L 3919 5316 
L 3919 4078 
L 5994 4078 
L 5994 3234 
L 3919 3234 
L 3919 2197 
L 5750 2197 
L 5750 1353 
L 3919 1353 
L 3919 291 
L 6219 291 
L 6219 -578 
L 350 -578 
L 350 291 
z
" transform="scale(0.015625)"/>
     <path id="MicrosoftYaHei-Bold-4ea7" d="M 725 2766 
L 1925 2766 
Q 1666 3084 1313 3491 
L 1963 3878 
L 313 3878 
L 313 4666 
L 2806 4666 
Q 2706 4947 2600 5216 
L 3588 5366 
L 3766 4666 
L 6200 4666 
L 6200 3878 
L 4469 3878 
L 5269 3491 
L 4628 2766 
L 6094 2766 
L 6094 1978 
L 1550 1978 
L 1550 1828 
Q 1550 447 731 -878 
Q 500 -622 69 -234 
Q 694 803 725 1934 
L 725 2766 
z
M 2881 2959 
L 2569 2766 
L 3609 2766 
Q 3975 3269 4369 3878 
L 2106 3878 
L 2881 2959 
z
" transform="scale(0.015625)"/>
     <path id="MicrosoftYaHei-Bold-6d88" d="M 3538 5353 
L 4406 5353 
L 4406 3641 
L 5988 3641 
L 5988 97 
Q 5988 -281 5809 -492 
Q 5631 -703 5275 -747 
Q 4919 -791 4050 -778 
Q 3963 -366 3819 66 
Q 4325 47 4688 47 
Q 5106 47 5106 447 
L 5106 553 
L 2838 553 
L 2838 -734 
L 1956 -734 
L 1956 3641 
L 3538 3641 
L 3538 5353 
z
M 5106 2891 
L 2838 2891 
L 2838 2416 
L 5106 2416 
L 5106 2891 
z
M 2838 1247 
L 5106 1247 
L 5106 1722 
L 2838 1722 
L 2838 1247 
z
M 700 5253 
Q 1188 4909 1725 4447 
L 1163 3809 
Q 619 4347 181 4697 
L 700 5253 
z
M 2375 5216 
Q 2881 4716 3313 4228 
L 2669 3741 
Q 2281 4222 1781 4759 
L 2375 5216 
z
M 5519 5209 
L 6194 4716 
Q 5706 4166 5200 3684 
L 4613 4184 
Q 5100 4666 5519 5209 
z
M 631 3591 
Q 1206 3178 1656 2784 
L 1069 2134 
Q 681 2522 88 3003 
L 631 3591 
z
M 719 1909 
Q 1213 1716 1556 1628 
L 1013 -797 
Q 556 -647 150 -547 
Q 463 528 719 1909 
z
" transform="scale(0.015625)"/>
     <path id="MicrosoftYaHei-Bold-8d39" d="M 1088 291 
L 1088 1344 
Q 809 1225 481 1116 
Q 331 1416 94 1772 
Q 1222 2050 1638 2503 
L 413 2503 
L 650 4003 
L 2100 4003 
Q 2106 4147 2106 4353 
L 438 4353 
L 438 4928 
L 2106 4928 
L 2106 5341 
L 2881 5341 
L 2881 4928 
L 3663 4928 
L 3663 5341 
L 4438 5341 
L 4438 4928 
L 5913 4928 
L 5913 3428 
L 4438 3428 
L 4438 3078 
L 6150 3078 
Q 6138 2588 6105 2239 
Q 6072 1891 5917 1730 
Q 5763 1569 5450 1556 
L 5450 416 
L 4663 416 
L 4663 1384 
L 1875 1384 
L 1875 291 
L 1088 291 
z
M 2875 4003 
L 3663 4003 
L 3663 4353 
L 2881 4353 
Q 2881 4241 2875 4003 
z
M 5175 4003 
L 5175 4353 
L 4438 4353 
L 4438 4003 
L 5175 4003 
z
M 2759 3078 
L 3663 3078 
L 3663 3428 
L 2828 3428 
Q 2800 3241 2759 3078 
z
M 1300 3428 
L 1231 3078 
L 1963 3078 
Q 2009 3234 2044 3428 
L 1300 3428 
z
M 4769 2147 
Q 5238 2131 5292 2164 
Q 5347 2197 5373 2275 
Q 5400 2353 5400 2503 
L 4438 2503 
L 4438 2028 
L 3663 2028 
L 3663 2503 
L 2544 2503 
Q 2313 2116 2075 1928 
L 4838 1928 
L 4769 2147 
z
M 2881 1216 
L 3681 1216 
Q 3659 872 3575 594 
Q 4731 275 6188 -197 
L 5806 -878 
Q 4647 -441 3266 0 
Q 2713 -684 663 -866 
Q 525 -522 325 -116 
Q 1681 -41 2270 214 
Q 2859 469 2881 1216 
z
" transform="scale(0.015625)"/>
     <path id="MicrosoftYaHei-Bold-60c5" d="M 1950 3209 
L 3688 3209 
L 3688 3478 
L 2269 3478 
L 2269 4016 
L 3688 4016 
L 3688 4284 
L 2131 4284 
L 2131 4822 
L 3688 4822 
L 3688 5316 
L 4500 5316 
L 4500 4822 
L 6156 4822 
L 6156 4284 
L 4500 4284 
L 4500 4016 
L 6000 4016 
L 6000 3478 
L 4500 3478 
L 4500 3209 
L 6300 3209 
L 6300 2672 
L 1950 2672 
L 1950 3209 
z
M 925 5303 
L 1700 5303 
L 1700 4128 
L 2200 3928 
L 2000 3266 
L 1700 3422 
L 1700 -847 
L 925 -847 
L 925 5303 
z
M 38 2316 
Q 244 3334 338 4191 
L 881 4147 
Q 769 3191 581 2216 
L 38 2316 
z
M 3038 -797 
L 2250 -797 
L 2250 2422 
L 5938 2422 
L 5938 41 
Q 5938 -322 5788 -522 
Q 5638 -722 5359 -762 
Q 5081 -803 4113 -809 
Q 4050 -509 3938 -141 
Q 4538 -178 4844 -178 
Q 5150 -178 5150 122 
L 5150 209 
L 3038 209 
L 3038 -797 
z
M 5150 1847 
L 3038 1847 
L 3038 1534 
L 5150 1534 
L 5150 1847 
z
M 3038 728 
L 5150 728 
L 5150 1016 
L 3038 1016 
L 3038 728 
z
" transform="scale(0.015625)"/>
     <path id="MicrosoftYaHei-Bold-51b5" d="M 5500 1241 
Q 5888 1109 6325 991 
Q 6178 -228 5926 -456 
Q 5675 -684 5300 -684 
L 4869 -684 
Q 4050 -684 4050 272 
L 4050 2028 
L 3597 2028 
Q 3544 44 1988 -872 
Q 1806 -609 1363 -128 
Q 1800 66 2247 534 
Q 2694 1003 2722 2028 
L 2000 2028 
L 2000 5034 
L 5850 5034 
L 5850 2028 
L 4925 2028 
L 4925 478 
Q 4925 303 4964 209 
Q 5003 116 5138 116 
Q 5350 116 5398 320 
Q 5447 525 5500 1241 
z
M 4975 2816 
L 4975 4247 
L 2875 4247 
L 2875 2816 
L 4975 2816 
z
M 675 5003 
Q 1075 4616 1813 3791 
L 1125 3172 
Q 613 3847 50 4441 
L 675 5003 
z
M 1056 2484 
Q 1263 2353 1869 2034 
L 800 -584 
Q 475 -334 25 -47 
Q 500 959 1056 2484 
z
" transform="scale(0.015625)"/>
     <path id="MicrosoftYaHei-Bold-ff08" d="M 5197 -1088 
Q 4056 184 4056 1881 
Q 4056 3616 5203 4838 
L 6034 4838 
Q 4922 3503 4922 1888 
Q 4922 266 6028 -1088 
L 5197 -1088 
z
" transform="scale(0.015625)"/>
     <path id="MicrosoftYaHei-Bold-32" d="M 1500 841 
L 3553 841 
L 3553 0 
L 334 0 
L 334 359 
Q 334 738 473 1050 
Q 613 1363 856 1633 
Q 1100 1903 1613 2266 
Q 2081 2616 2268 2886 
Q 2456 3156 2456 3459 
Q 2456 4113 1744 4113 
Q 1119 4113 550 3613 
L 550 4513 
Q 1184 4922 1975 4922 
Q 2700 4922 3122 4551 
Q 3544 4181 3544 3531 
Q 3544 3169 3422 2876 
Q 3300 2584 3069 2328 
Q 2838 2072 2328 1713 
Q 1838 1363 1669 1172 
Q 1500 981 1500 841 
z
" transform="scale(0.015625)"/>
     <path id="MicrosoftYaHei-Bold-30" d="M 244 2341 
Q 244 3597 706 4259 
Q 1169 4922 2044 4922 
Q 3713 4922 3713 2453 
Q 3713 1238 3259 577 
Q 2806 -84 1950 -84 
Q 244 -84 244 2341 
z
M 1266 2366 
Q 1266 691 1981 691 
Q 2684 691 2684 2416 
Q 2684 4147 2000 4147 
Q 1266 4147 1266 2366 
z
" transform="scale(0.015625)"/>
     <path id="MicrosoftYaHei-Bold-31" d="M 2716 4947 
L 2716 0 
L 1700 0 
L 1700 3809 
Q 1513 3647 1188 3517 
Q 863 3388 591 3356 
L 591 4222 
Q 1447 4472 2072 4947 
L 2716 4947 
z
" transform="scale(0.015625)"/>
     <path id="MicrosoftYaHei-Bold-2d" d="M 2328 1497 
L 481 1497 
L 481 2209 
L 2328 2209 
L 2328 1497 
z
" transform="scale(0.015625)"/>
     <path id="MicrosoftYaHei-Bold-35" d="M 541 125 
L 541 997 
Q 1044 691 1613 691 
Q 2041 691 2283 902 
Q 2525 1113 2525 1472 
Q 2525 2225 1494 2225 
Q 1113 2225 616 2169 
L 797 4841 
L 3359 4841 
L 3359 4009 
L 1613 4009 
L 1544 2991 
Q 1803 3013 2022 3013 
Q 2731 3013 3142 2625 
Q 3553 2238 3553 1575 
Q 3553 844 3056 380 
Q 2559 -84 1706 -84 
Q 1016 -84 541 125 
z
" transform="scale(0.015625)"/>
     <path id="MicrosoftYaHei-Bold-ff09" d="M 1191 -1088 
L 359 -1088 
Q 1472 238 1472 1863 
Q 1472 3478 366 4838 
L 1197 4838 
Q 2338 3572 2338 1863 
Q 2338 125 1191 -1088 
z
" transform="scale(0.015625)"/>
    </defs>
    <use xlink:href="#MicrosoftYaHei-Bold-4e2d"/>
    <use xlink:href="#MicrosoftYaHei-Bold-56fd" transform="translate(100 0)"/>
    <use xlink:href="#MicrosoftYaHei-Bold-4d" transform="translate(200 0)"/>
    <use xlink:href="#MicrosoftYaHei-Bold-45" transform="translate(302.832031 0)"/>
    <use xlink:href="#MicrosoftYaHei-Bold-47" transform="translate(360.009766 0)"/>
    <use xlink:href="#MicrosoftYaHei-Bold-751f" transform="translate(436.523438 0)"/>
    <use xlink:href="#MicrosoftYaHei-Bold-4ea7" transform="translate(536.523438 0)"/>
    <use xlink:href="#MicrosoftYaHei-Bold-6d88" transform="translate(636.523438 0)"/>
    <use xlink:href="#MicrosoftYaHei-Bold-8d39" transform="translate(736.523438 0)"/>
    <use xlink:href="#MicrosoftYaHei-Bold-60c5" transform="translate(836.523438 0)"/>
    <use xlink:href="#MicrosoftYaHei-Bold-51b5" transform="translate(936.523438 0)"/>
    <use xlink:href="#MicrosoftYaHei-Bold-ff08" transform="translate(1036.523438 0)"/>
    <use xlink:href="#MicrosoftYaHei-Bold-32" transform="translate(1136.523438 0)"/>
    <use xlink:href="#MicrosoftYaHei-Bold-30" transform="translate(1198.193359 0)"/>
    <use xlink:href="#MicrosoftYaHei-Bold-32" transform="translate(1259.863281 0)"/>
    <use xlink:href="#MicrosoftYaHei-Bold-31" transform="translate(1321.533203 0)"/>
    <use xlink:href="#MicrosoftYaHei-Bold-2d" transform="translate(1383.203125 0)"/>
    <use xlink:href="#MicrosoftYaHei-Bold-32" transform="translate(1426.855469 0)"/>
    <use xlink:href="#MicrosoftYaHei-Bold-30" transform="translate(1488.525391 0)"/>
    <use xlink:href="#MicrosoftYaHei-Bold-32" transform="translate(1550.195312 0)"/>
    <use xlink:href="#MicrosoftYaHei-Bold-35" transform="translate(1611.865234 0)"/>
    <use xlink:href="#MicrosoftYaHei-Bold-ff09" transform="translate(1673.535156 0)"/>
   </g>
  </g>
  <g id="text_40">
   <!-- CIEC -->
   <g style="fill: #5a5a5a" transform="translate(1067.04 42.84) scale(0.27 -0.27)">
    <defs>
     <path id="MicrosoftYaHei-Bold-43" d="M 4013 175 
Q 3484 -84 2634 -84 
Q 1541 -84 898 570 
Q 256 1225 256 2316 
Q 256 3463 973 4192 
Q 1691 4922 2825 4922 
Q 3534 4922 4013 4738 
L 4013 3741 
Q 3522 4028 2900 4028 
Q 2191 4028 1766 3575 
Q 1341 3122 1341 2391 
Q 1341 1678 1744 1243 
Q 2147 809 2834 809 
Q 3481 809 4013 1122 
L 4013 175 
z
" transform="scale(0.015625)"/>
     <path id="MicrosoftYaHei-Bold-49" d="M 1588 4841 
L 1588 0 
L 556 0 
L 556 4841 
L 1588 4841 
z
" transform="scale(0.015625)"/>
    </defs>
    <use xlink:href="#MicrosoftYaHei-Bold-43"/>
    <use xlink:href="#MicrosoftYaHei-Bold-49" transform="translate(67.333984 0)"/>
    <use xlink:href="#MicrosoftYaHei-Bold-45" transform="translate(100.878906 0)"/>
    <use xlink:href="#MicrosoftYaHei-Bold-43" transform="translate(158.056641 0)"/>
   </g>
  </g>
  <g id="text_41">
   <!-- - 中国MEG产能持续扩张，2025年达到2903万吨。 -->
   <g style="fill: #1f2a33" transform="translate(99.36 564.48) scale(0.16 -0.16)">
    <defs>
     <path id="MicrosoftYaHei-2d" d="M 2328 1681 
L 488 1681 
L 488 2153 
L 2328 2153 
L 2328 1681 
z
" transform="scale(0.015625)"/>
     <path id="MicrosoftYaHei-20" transform="scale(0.015625)"/>
     <path id="MicrosoftYaHei-4e2d" d="M 525 3972 
L 2931 3972 
L 2931 5334 
L 3469 5334 
L 3469 3972 
L 5900 3972 
L 5900 1122 
L 5388 1122 
L 5388 1459 
L 3469 1459 
L 3469 -866 
L 2931 -866 
L 2931 1459 
L 1038 1459 
L 1038 1122 
L 525 1122 
L 525 3972 
z
M 5388 3509 
L 3469 3509 
L 3469 1922 
L 5388 1922 
L 5388 3509 
z
M 1038 1922 
L 2931 1922 
L 2931 3509 
L 1038 3509 
L 1038 1922 
z
" transform="scale(0.015625)"/>
     <path id="MicrosoftYaHei-56fd" d="M 469 4997 
L 5938 4997 
L 5938 -834 
L 5456 -834 
L 5456 -522 
L 950 -522 
L 950 -841 
L 469 -841 
L 469 4997 
z
M 5456 4553 
L 950 4553 
L 950 -78 
L 5456 -78 
L 5456 4553 
z
M 1238 1009 
L 2963 1009 
L 2963 2247 
L 1456 2247 
L 1456 2672 
L 2963 2672 
L 2963 3509 
L 1338 3509 
L 1338 3934 
L 5063 3934 
L 5063 3509 
L 3425 3509 
L 3425 2672 
L 4938 2672 
L 4938 2247 
L 3425 2247 
L 3425 1009 
L 5163 1009 
L 5163 584 
L 1238 584 
L 1238 1009 
z
M 3750 1847 
L 4100 2109 
Q 4444 1753 4688 1441 
L 4319 1159 
Q 4019 1566 3750 1847 
z
" transform="scale(0.015625)"/>
     <path id="MicrosoftYaHei-4d" d="M 5003 0 
L 5003 3206 
Q 5003 3603 5050 4159 
L 5034 4159 
Q 4953 3809 4891 3672 
L 3294 0 
L 2947 0 
L 1353 3644 
Q 1297 3769 1209 4159 
L 1191 4159 
Q 1222 3822 1222 3178 
L 1222 0 
L 625 0 
L 625 4841 
L 1472 4841 
L 2900 1522 
Q 3063 1141 3116 928 
L 3138 928 
Q 3300 1375 3366 1534 
L 4819 4841 
L 5625 4841 
L 5625 0 
L 5003 0 
z
" transform="scale(0.015625)"/>
     <path id="MicrosoftYaHei-45" d="M 3228 0 
L 625 0 
L 625 4841 
L 3119 4841 
L 3119 4284 
L 1250 4284 
L 1250 2734 
L 2981 2734 
L 2981 2181 
L 1250 2181 
L 1250 553 
L 3228 553 
L 3228 0 
z
" transform="scale(0.015625)"/>
     <path id="MicrosoftYaHei-47" d="M 4284 331 
Q 3559 -81 2647 -81 
Q 1597 -81 955 583 
Q 313 1247 313 2356 
Q 313 3478 1022 4200 
Q 1731 4922 2841 4922 
Q 3625 4922 4169 4672 
L 4169 3997 
Q 3588 4363 2784 4363 
Q 1994 4363 1481 3822 
Q 969 3281 969 2397 
Q 969 1488 1441 981 
Q 1913 475 2716 475 
Q 3269 475 3656 688 
L 3656 1997 
L 2606 1997 
L 2606 2550 
L 4284 2550 
L 4284 331 
z
" transform="scale(0.015625)"/>
     <path id="MicrosoftYaHei-6301" d="M 88 1978 
Q 563 2084 963 2181 
L 963 3647 
L 144 3647 
L 144 4097 
L 963 4097 
L 963 5303 
L 1450 5303 
L 1450 4097 
L 2250 4097 
L 2250 3647 
L 1450 3647 
L 1450 2303 
Q 1841 2406 2138 2497 
Q 2144 2272 2181 2009 
Q 1791 1906 1450 1813 
L 1450 -72 
Q 1450 -772 813 -772 
Q 619 -772 219 -759 
Q 194 -503 138 -241 
Q 531 -284 706 -284 
Q 963 -284 963 9 
L 963 1678 
Q 500 1547 150 1441 
L 88 1978 
z
M 2175 3097 
L 3975 3097 
L 3975 3972 
L 2531 3972 
L 2531 4422 
L 3975 4422 
L 3975 5303 
L 4463 5303 
L 4463 4422 
L 5925 4422 
L 5925 3972 
L 4463 3972 
L 4463 3097 
L 6319 3097 
L 6319 2647 
L 2175 2647 
L 2175 3097 
z
M 2200 1797 
L 4844 1797 
L 4844 2434 
L 5331 2434 
L 5331 1797 
L 6263 1797 
L 6263 1347 
L 5331 1347 
L 5331 -72 
Q 5331 -759 4688 -766 
Q 4300 -772 3763 -759 
Q 3738 -553 3694 -266 
Q 4169 -316 4544 -316 
Q 4844 -316 4844 22 
L 4844 1347 
L 2200 1347 
L 2200 1797 
z
M 2594 972 
L 2944 1228 
Q 3406 741 3731 309 
L 3313 16 
Q 3006 491 2594 972 
z
" transform="scale(0.015625)"/>
     <path id="MicrosoftYaHei-7eed" d="M 2263 3584 
L 3975 3584 
L 3975 4216 
L 2506 4216 
L 2506 4641 
L 3975 4641 
L 3975 5303 
L 4450 5303 
L 4450 4641 
L 5938 4641 
L 5938 4216 
L 4450 4216 
L 4450 3584 
L 6231 3584 
L 6231 3159 
Q 5944 2609 5644 2191 
Q 5400 2303 5194 2359 
Q 5494 2759 5719 3159 
L 2263 3159 
L 2263 3584 
z
M 2238 1141 
L 4119 1141 
Q 4263 1716 4250 2941 
L 4706 2941 
Q 4706 1753 4588 1141 
L 6238 1141 
L 6238 716 
L 4588 716 
Q 5444 147 6294 -478 
L 5944 -866 
Q 5206 -222 4306 391 
Q 3744 -491 2281 -903 
Q 2175 -691 2019 -466 
Q 3556 -47 3956 716 
L 2238 716 
L 2238 1141 
z
M 838 1672 
Q 1519 1734 2113 1822 
Q 2088 1553 2069 1397 
Q 1338 1309 294 1159 
L 194 1616 
Q 581 1947 1144 2903 
Q 569 2866 213 2834 
L 88 3247 
Q 563 3897 1131 5278 
L 1606 5103 
Q 1044 4003 606 3284 
Q 938 3284 1363 3297 
Q 1581 3697 1825 4184 
L 2263 3978 
Q 1469 2572 838 1672 
z
M 131 172 
Q 1113 334 2150 547 
Q 2125 209 2125 84 
Q 1213 -97 269 -303 
L 131 172 
z
M 2338 1953 
L 2588 2247 
Q 3200 1866 3531 1578 
L 3244 1234 
Q 2963 1503 2338 1953 
z
M 2775 2647 
L 3031 2947 
Q 3531 2666 3963 2316 
L 3681 1978 
Q 3281 2303 2775 2647 
z
" transform="scale(0.015625)"/>
     <path id="MicrosoftYaHei-6269" d="M 88 1997 
Q 550 2119 1013 2247 
L 1013 3716 
L 119 3716 
L 119 4141 
L 1013 4141 
L 1013 5297 
L 1488 5297 
L 1488 4141 
L 2331 4141 
L 2331 3716 
L 1488 3716 
L 1488 2384 
Q 1881 2497 2275 2616 
Q 2281 2303 2288 2122 
Q 1884 2006 1488 1888 
L 1488 -34 
Q 1488 -716 838 -722 
Q 650 -728 263 -722 
Q 225 -466 175 -209 
Q 544 -241 744 -241 
Q 1013 -241 1013 47 
L 1013 1741 
Q 578 1606 150 1466 
L 88 1997 
z
M 3138 3891 
L 3138 2191 
Q 3138 266 2181 -847 
Q 2000 -684 1756 -509 
Q 2650 541 2650 2116 
L 2650 4353 
L 4463 4353 
Q 4247 4691 3969 5066 
L 4381 5322 
Q 4688 4953 4925 4603 
L 4544 4353 
L 6275 4353 
L 6275 3891 
L 3138 3891 
z
" transform="scale(0.015625)"/>
     <path id="MicrosoftYaHei-5f20" d="M 2250 2647 
L 2994 2647 
L 2994 5284 
L 3475 5284 
L 3475 2647 
L 6225 2647 
L 6225 2197 
L 4478 2197 
Q 4963 669 6313 -128 
Q 6069 -366 5906 -566 
Q 4481 494 4028 2197 
L 3475 2197 
L 3475 53 
Q 3806 216 4394 553 
Q 4438 266 4494 59 
Q 4075 -153 3469 -516 
Q 3238 -678 3106 -809 
L 2769 -378 
Q 2994 -153 2994 141 
L 2994 2197 
L 2250 2197 
L 2250 2647 
z
M 269 4984 
L 2269 4984 
L 2269 2884 
L 1806 2884 
L 1806 3078 
L 856 3078 
L 756 1997 
L 2225 1997 
Q 2150 753 2106 172 
Q 2031 -709 1244 -709 
Q 988 -709 419 -691 
Q 381 -453 313 -159 
Q 856 -209 1156 -209 
Q 1569 -209 1625 203 
Q 1694 691 1731 1572 
L 250 1572 
L 431 3503 
L 1806 3503 
L 1806 4559 
L 269 4559 
L 269 4984 
z
M 3638 3391 
Q 4706 4022 5638 4909 
L 6006 4559 
Q 5044 3678 3931 2991 
L 3638 3391 
z
" transform="scale(0.015625)"/>
     <path id="MicrosoftYaHei-8fbe" d="M 2719 -241 
Q 4450 -259 6319 -216 
Q 6213 -466 6113 -697 
Q 4400 -722 2638 -691 
Q 1594 -678 1088 22 
Q 906 -122 356 -778 
L 88 -247 
Q 475 103 863 434 
L 863 2616 
L 150 2616 
L 150 3072 
L 1350 3072 
L 1350 341 
Q 1806 -216 2719 -241 
z
M 1875 3791 
L 3600 3791 
L 3600 5266 
L 4100 5266 
L 4100 3791 
L 6050 3791 
L 6050 3334 
L 4088 3334 
Q 4063 2878 3963 2472 
Q 5044 1603 6006 616 
L 5631 197 
Q 4788 1153 3825 2022 
Q 3363 778 2081 72 
Q 1913 303 1731 484 
Q 3450 1403 3588 3334 
L 1875 3334 
L 1875 3791 
z
M 731 5241 
Q 1281 4584 1681 4034 
L 1244 3722 
Q 831 4347 344 4959 
L 731 5241 
z
" transform="scale(0.015625)"/>
     <path id="MicrosoftYaHei-5230" d="M 2856 4122 
Q 3356 3384 3794 2584 
Q 3556 2472 3313 2334 
Q 3203 2566 3088 2791 
Q 1741 2659 531 2534 
L 306 3053 
Q 669 3247 931 3672 
Q 1172 4034 1403 4484 
L 238 4484 
L 238 4947 
L 3825 4947 
L 3825 4484 
L 1994 4484 
Q 1528 3694 1050 3047 
Q 1941 3113 2863 3209 
Q 2656 3569 2431 3909 
L 2856 4122 
z
M 281 1734 
L 1750 1734 
L 1750 2509 
L 2250 2509 
L 2250 1734 
L 3681 1734 
L 3681 1272 
L 2250 1272 
L 2250 172 
Q 2988 266 3769 372 
Q 3769 153 3794 -116 
Q 2025 -334 238 -597 
L 94 -72 
Q 891 9 1750 113 
L 1750 1272 
L 281 1272 
L 281 1734 
z
M 5519 5322 
L 6038 5322 
L 6038 34 
Q 6038 -747 5281 -747 
Q 5025 -747 4369 -741 
Q 4331 -484 4275 -178 
Q 4825 -228 5125 -228 
Q 5519 -234 5519 178 
L 5519 5322 
z
M 4163 4647 
L 4669 4647 
L 4669 666 
L 4163 666 
L 4163 4647 
z
" transform="scale(0.015625)"/>
     <path id="MicrosoftYaHei-3002" d="M 1219 863 
Q 1525 863 1750 625 
Q 1975 388 1975 72 
Q 1975 -284 1747 -507 
Q 1519 -731 1197 -731 
Q 875 -731 642 -503 
Q 409 -275 409 66 
Q 409 413 656 638 
Q 903 863 1219 863 
z
M 1209 -275 
Q 1328 -275 1431 -184 
Q 1534 -94 1534 50 
Q 1534 209 1434 304 
Q 1334 400 1191 400 
Q 1056 400 959 304 
Q 863 209 863 53 
Q 863 -100 977 -187 
Q 1091 -275 1209 -275 
z
" transform="scale(0.015625)"/>
    </defs>
    <use xlink:href="#MicrosoftYaHei-2d"/>
    <use xlink:href="#MicrosoftYaHei-20" transform="translate(43.261719 0)"/>
    <use xlink:href="#MicrosoftYaHei-4e2d" transform="translate(72.851562 0)"/>
    <use xlink:href="#MicrosoftYaHei-56fd" transform="translate(172.851562 0)"/>
    <use xlink:href="#MicrosoftYaHei-4d" transform="translate(272.851562 0)"/>
    <use xlink:href="#MicrosoftYaHei-45" transform="translate(370.556641 0)"/>
    <use xlink:href="#MicrosoftYaHei-47" transform="translate(425.537109 0)"/>
    <use xlink:href="#MicrosoftYaHei-4ea7" transform="translate(499.902344 0)"/>
    <use xlink:href="#MicrosoftYaHei-80fd" transform="translate(599.902344 0)"/>
    <use xlink:href="#MicrosoftYaHei-6301" transform="translate(699.902344 0)"/>
    <use xlink:href="#MicrosoftYaHei-7eed" transform="translate(799.902344 0)"/>
    <use xlink:href="#MicrosoftYaHei-6269" transform="translate(899.902344 0)"/>
    <use xlink:href="#MicrosoftYaHei-5f20" transform="translate(999.902344 0)"/>
    <use xlink:href="#MicrosoftYaHei-ff0c" transform="translate(1099.902344 0)"/>
    <use xlink:href="#MicrosoftYaHei-32" transform="translate(1199.902344 0)"/>
    <use xlink:href="#MicrosoftYaHei-30" transform="translate(1258.544922 0)"/>
    <use xlink:href="#MicrosoftYaHei-32" transform="translate(1317.1875 0)"/>
    <use xlink:href="#MicrosoftYaHei-35" transform="translate(1375.830078 0)"/>
    <use xlink:href="#MicrosoftYaHei-5e74" transform="translate(1434.472656 0)"/>
    <use xlink:href="#MicrosoftYaHei-8fbe" transform="translate(1534.472656 0)"/>
    <use xlink:href="#MicrosoftYaHei-5230" transform="translate(1634.472656 0)"/>
    <use xlink:href="#MicrosoftYaHei-32" transform="translate(1734.472656 0)"/>
    <use xlink:href="#MicrosoftYaHei-39" transform="translate(1793.115234 0)"/>
    <use xlink:href="#MicrosoftYaHei-30" transform="translate(1851.757812 0)"/>
    <use xlink:href="#MicrosoftYaHei-33" transform="translate(1910.400391 0)"/>
    <use xlink:href="#MicrosoftYaHei-4e07" transform="translate(1969.042969 0)"/>
    <use xlink:href="#MicrosoftYaHei-5428" transform="translate(2069.042969 0)"/>
    <use xlink:href="#MicrosoftYaHei-3002" transform="translate(2169.042969 0)"/>
   </g>
  </g>
  <g id="text_42">
   <!-- - 产量从2021年1237万吨增长至2025年2100万吨。 -->
   <g style="fill: #1f2a33" transform="translate(99.36 590.4) scale(0.16 -0.16)">
    <defs>
     <path id="MicrosoftYaHei-4ece" d="M 3831 5253 
L 4319 5253 
Q 4319 4534 4297 3634 
Q 4703 784 6325 -228 
Q 6100 -478 5919 -709 
Q 4613 244 4128 2325 
Q 3788 428 2181 -822 
Q 1975 -572 1819 -422 
Q 3388 747 3706 2647 
Q 3831 3528 3831 5253 
z
M 1350 5253 
L 1844 5253 
Q 1844 3956 1784 3041 
Q 2600 2163 3200 1453 
L 2819 1072 
Q 2369 1663 1731 2403 
Q 1550 647 419 -753 
Q 275 -578 56 -353 
Q 913 647 1181 2059 
Q 1344 2909 1350 5253 
z
" transform="scale(0.015625)"/>
     <path id="MicrosoftYaHei-589e" d="M 2188 4459 
L 3259 4459 
Q 3041 4781 2775 5116 
L 3131 5366 
Q 3456 4991 3694 4666 
L 3403 4459 
L 4453 4459 
Q 4759 4888 5050 5372 
L 5500 5116 
Q 5234 4772 4978 4459 
L 6038 4459 
L 6038 2122 
L 5600 2122 
L 5600 2309 
L 2625 2309 
L 2625 2122 
L 2188 2122 
L 2188 4459 
z
M 2438 1797 
L 5788 1797 
L 5788 -847 
L 5338 -847 
L 5338 -547 
L 2888 -547 
L 2888 -847 
L 2438 -847 
L 2438 1797 
z
M 81 428 
Q 466 538 894 672 
L 894 3253 
L 144 3253 
L 144 3697 
L 894 3697 
L 894 5259 
L 1356 5259 
L 1356 3697 
L 2000 3697 
L 2000 3253 
L 1356 3253 
L 1356 819 
Q 1709 931 2094 1059 
Q 2106 759 2125 553 
Q 1306 316 250 -53 
L 81 428 
z
M 5600 4084 
L 4325 4084 
L 4325 2684 
L 5600 2684 
L 5600 4084 
z
M 2625 2684 
L 3894 2684 
L 3894 4084 
L 2625 4084 
L 2625 2684 
z
M 5338 1409 
L 2888 1409 
L 2888 809 
L 5338 809 
L 5338 1409 
z
M 2888 -159 
L 5338 -159 
L 5338 434 
L 2888 434 
L 2888 -159 
z
M 5350 3609 
Q 5006 3066 4856 2884 
L 4519 3084 
Q 4744 3391 4981 3828 
L 5350 3609 
z
M 2863 3597 
L 3181 3803 
Q 3463 3441 3669 3122 
L 3319 2897 
Q 3119 3228 2863 3597 
z
" transform="scale(0.015625)"/>
     <path id="MicrosoftYaHei-957f" d="M 169 2766 
L 1269 2766 
L 1269 5316 
L 1781 5316 
L 1781 2766 
L 6194 2766 
L 6194 2278 
L 3456 2278 
Q 4238 566 6325 -78 
Q 6113 -359 5944 -591 
Q 3697 266 2925 2278 
L 1781 2278 
L 1781 16 
Q 2494 303 3294 678 
Q 3294 384 3319 116 
Q 2575 -191 1894 -528 
Q 1644 -666 1431 -834 
L 1056 -353 
Q 1269 -184 1269 103 
L 1269 2278 
L 169 2278 
L 169 2766 
z
M 2156 3528 
Q 3706 4047 5138 5109 
L 5463 4703 
Q 4000 3634 2400 3066 
Q 2300 3278 2156 3528 
z
" transform="scale(0.015625)"/>
     <path id="MicrosoftYaHei-81f3" d="M 4263 4147 
Q 5225 3334 6013 2559 
L 5606 2197 
Q 5403 2413 5175 2644 
Q 2988 2588 1306 2459 
Q 1125 2441 806 2359 
L 550 2897 
Q 894 3009 1131 3197 
Q 1763 3719 2428 4522 
L 288 4522 
L 288 4972 
L 6119 4972 
L 6119 4522 
L 3116 4522 
Q 2394 3722 1556 2959 
Q 3019 3022 4738 3072 
Q 4363 3438 3925 3834 
L 4263 4147 
z
M 138 -3 
L 2944 -3 
L 2944 1066 
L 550 1066 
L 550 1516 
L 2944 1516 
L 2944 2366 
L 3469 2366 
L 3469 1516 
L 5825 1516 
L 5825 1066 
L 3469 1066 
L 3469 -3 
L 6256 -3 
L 6256 -453 
L 138 -453 
L 138 -3 
z
" transform="scale(0.015625)"/>
    </defs>
    <use xlink:href="#MicrosoftYaHei-2d"/>
    <use xlink:href="#MicrosoftYaHei-20" transform="translate(43.261719 0)"/>
    <use xlink:href="#MicrosoftYaHei-4ea7" transform="translate(72.851562 0)"/>
    <use xlink:href="#MicrosoftYaHei-91cf" transform="translate(172.851562 0)"/>
    <use xlink:href="#MicrosoftYaHei-4ece" transform="translate(272.851562 0)"/>
    <use xlink:href="#MicrosoftYaHei-32" transform="translate(372.851562 0)"/>
    <use xlink:href="#MicrosoftYaHei-30" transform="translate(431.494141 0)"/>
    <use xlink:href="#MicrosoftYaHei-32" transform="translate(490.136719 0)"/>
    <use xlink:href="#MicrosoftYaHei-31" transform="translate(548.779297 0)"/>
    <use xlink:href="#MicrosoftYaHei-5e74" transform="translate(607.421875 0)"/>
    <use xlink:href="#MicrosoftYaHei-31" transform="translate(707.421875 0)"/>
    <use xlink:href="#MicrosoftYaHei-32" transform="translate(766.064453 0)"/>
    <use xlink:href="#MicrosoftYaHei-33" transform="translate(824.707031 0)"/>
    <use xlink:href="#MicrosoftYaHei-37" transform="translate(883.349609 0)"/>
    <use xlink:href="#MicrosoftYaHei-4e07" transform="translate(941.992188 0)"/>
    <use xlink:href="#MicrosoftYaHei-5428" transform="translate(1041.992188 0)"/>
    <use xlink:href="#MicrosoftYaHei-589e" transform="translate(1141.992188 0)"/>
    <use xlink:href="#MicrosoftYaHei-957f" transform="translate(1241.992188 0)"/>
    <use xlink:href="#MicrosoftYaHei-81f3" transform="translate(1341.992188 0)"/>
    <use xlink:href="#MicrosoftYaHei-32" transform="translate(1441.992188 0)"/>
    <use xlink:href="#MicrosoftYaHei-30" transform="translate(1500.634766 0)"/>
    <use xlink:href="#MicrosoftYaHei-32" transform="translate(1559.277344 0)"/>
    <use xlink:href="#MicrosoftYaHei-35" transform="translate(1617.919922 0)"/>
    <use xlink:href="#MicrosoftYaHei-5e74" transform="translate(1676.5625 0)"/>
    <use xlink:href="#MicrosoftYaHei-32" transform="translate(1776.5625 0)"/>
    <use xlink:href="#MicrosoftYaHei-31" transform="translate(1835.205078 0)"/>
    <use xlink:href="#MicrosoftYaHei-30" transform="translate(1893.847656 0)"/>
    <use xlink:href="#MicrosoftYaHei-30" transform="translate(1952.490234 0)"/>
    <use xlink:href="#MicrosoftYaHei-4e07" transform="translate(2011.132812 0)"/>
    <use xlink:href="#MicrosoftYaHei-5428" transform="translate(2111.132812 0)"/>
    <use xlink:href="#MicrosoftYaHei-3002" transform="translate(2211.132812 0)"/>
   </g>
  </g>
  <g id="text_43">
   <!-- - 进口依存度由40.8%降至25.2%，2025年回升至27.0%。 -->
   <g style="fill: #1f2a33" transform="translate(99.36 616.32) scale(0.16 -0.16)">
    <defs>
     <path id="MicrosoftYaHei-7531" d="M 638 -734 
L 638 4141 
L 2950 4141 
L 2950 5328 
L 3475 5328 
L 3475 4141 
L 5788 4141 
L 5788 -734 
L 5275 -734 
L 5275 -372 
L 1150 -372 
L 1150 -734 
L 638 -734 
z
M 1150 91 
L 2950 91 
L 2950 1678 
L 1150 1678 
L 1150 91 
z
M 3475 91 
L 5275 91 
L 5275 1678 
L 3475 1678 
L 3475 91 
z
M 1150 2128 
L 2950 2128 
L 2950 3678 
L 1150 3678 
L 1150 2128 
z
M 5275 3678 
L 3475 3678 
L 3475 2128 
L 5275 2128 
L 5275 3678 
z
" transform="scale(0.015625)"/>
     <path id="MicrosoftYaHei-964d" d="M 2263 3616 
Q 3000 4322 3494 5309 
L 3919 5122 
Q 3803 4919 3688 4728 
L 5788 4728 
L 5788 4303 
Q 5403 3681 4713 3213 
Q 5269 2972 6325 2803 
Q 6294 2728 6125 2353 
Q 4900 2594 4247 2934 
Q 3481 2525 2419 2259 
Q 2319 2491 2194 2672 
Q 3122 2863 3828 3206 
Q 3438 3519 3156 3953 
Q 2878 3591 2588 3297 
Q 2444 3466 2263 3616 
z
M 2181 1678 
Q 2344 509 1588 334 
Q 1388 291 1044 328 
Q 975 597 906 834 
Q 1213 753 1419 784 
Q 1844 859 1706 1678 
Q 1594 2303 1206 2803 
Q 1481 3703 1688 4472 
L 869 4472 
L 869 -841 
L 400 -841 
L 400 4909 
L 2200 4909 
L 2200 4472 
Q 1806 3222 1700 2884 
Q 2094 2316 2181 1678 
z
M 2925 584 
L 4125 584 
L 4125 1591 
L 2500 1591 
L 2500 2016 
L 4125 2016 
L 4125 2597 
L 4594 2597 
L 4594 2016 
L 6088 2016 
L 6088 1591 
L 4594 1591 
L 4594 584 
L 6138 584 
L 6138 159 
L 4594 159 
L 4594 -847 
L 4125 -847 
L 4125 159 
L 2456 159 
L 2456 616 
L 2700 1422 
L 3169 1422 
L 2925 584 
z
M 5244 4303 
L 3422 4303 
Q 3806 3753 4269 3450 
Q 4850 3813 5244 4303 
z
" transform="scale(0.015625)"/>
     <path id="MicrosoftYaHei-56de" d="M 475 4947 
L 5938 4947 
L 5938 -778 
L 5413 -778 
L 5413 -378 
L 1000 -378 
L 1000 -778 
L 475 -778 
L 475 4947 
z
M 5413 4484 
L 1000 4484 
L 1000 72 
L 5413 72 
L 5413 4484 
z
M 1875 3528 
L 4531 3528 
L 4531 797 
L 4044 797 
L 4044 1147 
L 2363 1147 
L 2363 797 
L 1875 797 
L 1875 3528 
z
M 4044 3091 
L 2363 3091 
L 2363 1584 
L 4044 1584 
L 4044 3091 
z
" transform="scale(0.015625)"/>
     <path id="MicrosoftYaHei-5347" d="M 144 2809 
L 1769 2809 
L 1769 4309 
Q 1113 4244 369 4184 
Q 338 4403 281 4659 
Q 2238 4803 3663 5047 
L 3781 4566 
Q 3106 4459 2281 4366 
L 2281 2809 
L 4275 2809 
L 4275 5284 
L 4788 5284 
L 4788 2809 
L 6275 2809 
L 6275 2322 
L 4788 2322 
L 4788 -784 
L 4275 -784 
L 4275 2322 
L 2278 2322 
Q 2263 1019 1956 441 
Q 1619 -241 625 -866 
Q 513 -716 275 -428 
Q 1213 153 1500 709 
Q 1756 1169 1769 2322 
L 144 2322 
L 144 2809 
z
" transform="scale(0.015625)"/>
    </defs>
    <use xlink:href="#MicrosoftYaHei-2d"/>
    <use xlink:href="#MicrosoftYaHei-20" transform="translate(43.261719 0)"/>
    <use xlink:href="#MicrosoftYaHei-8fdb" transform="translate(72.851562 0)"/>
    <use xlink:href="#MicrosoftYaHei-53e3" transform="translate(172.851562 0)"/>
    <use xlink:href="#MicrosoftYaHei-4f9d" transform="translate(272.851562 0)"/>
    <use xlink:href="#MicrosoftYaHei-5b58" transform="translate(372.851562 0)"/>
    <use xlink:href="#MicrosoftYaHei-5ea6" transform="translate(472.851562 0)"/>
    <use xlink:href="#MicrosoftYaHei-7531" transform="translate(572.851562 0)"/>
    <use xlink:href="#MicrosoftYaHei-34" transform="translate(672.851562 0)"/>
    <use xlink:href="#MicrosoftYaHei-30" transform="translate(731.494141 0)"/>
    <use xlink:href="#MicrosoftYaHei-2e" transform="translate(790.136719 0)"/>
    <use xlink:href="#MicrosoftYaHei-38" transform="translate(814.208984 0)"/>
    <use xlink:href="#MicrosoftYaHei-25" transform="translate(872.851562 0)"/>
    <use xlink:href="#MicrosoftYaHei-964d" transform="translate(961.816406 0)"/>
    <use xlink:href="#MicrosoftYaHei-81f3" transform="translate(1061.816406 0)"/>
    <use xlink:href="#MicrosoftYaHei-32" transform="translate(1161.816406 0)"/>
    <use xlink:href="#MicrosoftYaHei-35" transform="translate(1220.458984 0)"/>
    <use xlink:href="#MicrosoftYaHei-2e" transform="translate(1279.101562 0)"/>
    <use xlink:href="#MicrosoftYaHei-32" transform="translate(1303.173828 0)"/>
    <use xlink:href="#MicrosoftYaHei-25" transform="translate(1361.816406 0)"/>
    <use xlink:href="#MicrosoftYaHei-ff0c" transform="translate(1450.78125 0)"/>
    <use xlink:href="#MicrosoftYaHei-32" transform="translate(1550.78125 0)"/>
    <use xlink:href="#MicrosoftYaHei-30" transform="translate(1609.423828 0)"/>
    <use xlink:href="#MicrosoftYaHei-32" transform="translate(1668.066406 0)"/>
    <use xlink:href="#MicrosoftYaHei-35" transform="translate(1726.708984 0)"/>
    <use xlink:href="#MicrosoftYaHei-5e74" transform="translate(1785.351562 0)"/>
    <use xlink:href="#MicrosoftYaHei-56de" transform="translate(1885.351562 0)"/>
    <use xlink:href="#MicrosoftYaHei-5347" transform="translate(1985.351562 0)"/>
    <use xlink:href="#MicrosoftYaHei-81f3" transform="translate(2085.351562 0)"/>
    <use xlink:href="#MicrosoftYaHei-32" transform="translate(2185.351562 0)"/>
    <use xlink:href="#MicrosoftYaHei-37" transform="translate(2243.994141 0)"/>
    <use xlink:href="#MicrosoftYaHei-2e" transform="translate(2302.636719 0)"/>
    <use xlink:href="#MicrosoftYaHei-30" transform="translate(2326.708984 0)"/>
    <use xlink:href="#MicrosoftYaHei-25" transform="translate(2385.351562 0)"/>
    <use xlink:href="#MicrosoftYaHei-3002" transform="translate(2474.316406 0)"/>
   </g>
  </g>
  <g id="text_44">
   <!-- 数据来源：用户提供图片整理（2021-2025） -->
   <g style="fill: #555555" transform="translate(452.394609 642.24) scale(0.13 -0.13)">
    <defs>
     <path id="MicrosoftYaHei-6570" d="M 4175 5303 
L 4675 5228 
Q 4544 4622 4369 4097 
L 6281 4097 
L 6281 3672 
L 5888 3672 
Q 5731 1834 5088 753 
Q 5594 66 6375 -372 
Q 6175 -647 6038 -866 
Q 5275 -372 4769 309 
Q 4194 -403 3400 -928 
Q 3263 -747 3044 -534 
Q 3919 41 4463 772 
Q 3956 1647 3794 2791 
Q 3663 2559 3519 2359 
Q 3394 2541 3206 2759 
Q 3931 3803 4175 5303 
z
M 150 1697 
L 1100 1697 
Q 1238 1934 1369 2184 
L 1819 2041 
Q 1719 1866 1619 1697 
L 3150 1697 
L 3150 1291 
Q 2913 678 2431 216 
Q 2775 53 3131 -109 
L 2856 -541 
Q 2469 -322 2050 -103 
Q 1344 -609 269 -903 
Q 169 -703 56 -466 
Q 969 -259 1600 128 
Q 1063 403 475 691 
Q 675 978 863 1284 
L 150 1284 
L 150 1697 
z
M 219 3847 
L 1656 3847 
L 1656 5247 
L 2119 5247 
L 2119 3847 
L 3319 3847 
L 3319 3434 
L 2119 3434 
L 2119 3053 
L 2306 3266 
Q 2888 2841 3281 2516 
L 2981 2166 
Q 2638 2491 2119 2897 
L 2119 2184 
L 1656 2184 
L 1656 3059 
Q 1088 2466 331 2016 
Q 213 2197 63 2397 
Q 850 2822 1506 3434 
L 219 3434 
L 219 3847 
z
M 5388 3672 
L 4219 3672 
Q 4188 3591 4150 3516 
Q 4263 2191 4775 1247 
Q 5275 2159 5388 3672 
z
M 1088 834 
Q 1531 634 2000 416 
Q 2431 784 2675 1284 
L 1375 1284 
Q 1231 1053 1088 834 
z
M 3038 5091 
L 3425 4834 
Q 3081 4384 2738 4003 
Q 2594 4128 2400 4266 
Q 2725 4647 3038 5091 
z
M 381 4816 
L 738 5059 
Q 1019 4716 1319 4322 
L 931 4047 
Q 656 4453 381 4816 
z
" transform="scale(0.015625)"/>
     <path id="MicrosoftYaHei-636e" d="M 2900 1334 
L 4188 1334 
L 4188 2128 
L 2731 2128 
Q 2663 206 1844 -841 
Q 1694 -647 1506 -447 
Q 2288 516 2288 2509 
L 2288 4947 
L 5975 4947 
L 5975 3134 
L 5525 3134 
L 5525 3328 
L 2738 3328 
L 2738 2553 
L 4188 2553 
L 4188 3209 
L 4638 3209 
L 4638 2553 
L 6288 2553 
L 6288 2128 
L 4638 2128 
L 4638 1334 
L 5938 1334 
L 5938 -778 
L 5488 -778 
L 5488 -416 
L 3350 -416 
L 3350 -778 
L 2900 -778 
L 2900 1334 
z
M 100 1966 
Q 544 2088 963 2213 
L 963 3641 
L 175 3641 
L 175 4091 
L 963 4091 
L 963 5284 
L 1425 5284 
L 1425 4091 
L 2106 4091 
L 2106 3641 
L 1425 3641 
L 1425 2356 
Q 1722 2450 2006 2547 
Q 2013 2266 2044 2059 
Q 1722 1956 1425 1856 
L 1425 -34 
Q 1425 -741 806 -753 
Q 613 -759 231 -747 
Q 206 -497 156 -228 
Q 500 -266 681 -266 
Q 963 -266 963 53 
L 963 1703 
Q 534 1559 163 1428 
L 100 1966 
z
M 5525 4534 
L 2738 4534 
L 2738 3741 
L 5525 3741 
L 5525 4534 
z
M 5488 922 
L 3350 922 
L 3350 -9 
L 5488 -9 
L 5488 922 
z
" transform="scale(0.015625)"/>
     <path id="MicrosoftYaHei-6765" d="M 6325 141 
Q 6119 -122 5975 -334 
Q 4344 403 3438 1550 
L 3438 -841 
L 2963 -841 
L 2963 1584 
Q 2050 516 413 -409 
Q 281 -222 75 22 
Q 1706 841 2806 1922 
L 181 1922 
L 181 2359 
L 2963 2359 
L 2963 4003 
L 550 4003 
L 550 4441 
L 2963 4441 
L 2963 5341 
L 3438 5341 
L 3438 4441 
L 5900 4441 
L 5900 4003 
L 3438 4003 
L 3438 2359 
L 6225 2359 
L 6225 1922 
L 3566 1922 
Q 4594 778 6325 141 
z
M 4056 2766 
Q 4631 3378 4950 3828 
L 5381 3497 
Q 4913 2941 4419 2453 
L 4056 2766 
z
M 1075 3509 
L 1438 3803 
Q 1900 3347 2313 2828 
L 1900 2484 
Q 1581 2922 1075 3509 
z
" transform="scale(0.015625)"/>
     <path id="MicrosoftYaHei-6e90" d="M 2931 3741 
L 3744 3741 
Q 3878 4094 4006 4478 
L 2425 4478 
L 2425 2678 
Q 2425 222 1463 -841 
Q 1313 -647 1100 -453 
Q 1963 509 1963 2672 
L 1963 4903 
L 6300 4903 
L 6300 4478 
L 4547 4478 
Q 4375 4103 4194 3741 
L 5844 3741 
L 5844 1178 
L 5394 1178 
L 5394 1341 
L 4588 1341 
L 4588 -128 
Q 4588 -797 3938 -797 
Q 3725 -797 3394 -791 
Q 3363 -603 3306 -359 
Q 3619 -384 3850 -384 
Q 4138 -384 4138 -84 
L 4138 1341 
L 3381 1341 
L 3381 1178 
L 2931 1178 
L 2931 3741 
z
M 831 1878 
Q 1056 1734 1275 1666 
Q 1019 603 700 -766 
L 219 -603 
Q 581 678 831 1878 
z
M 3381 1753 
L 5394 1753 
L 5394 2347 
L 3381 2347 
L 3381 1753 
z
M 5394 3328 
L 3381 3328 
L 3381 2747 
L 5394 2747 
L 5394 3328 
z
M 6288 -241 
L 5894 -541 
Q 5450 128 4931 759 
L 5294 1016 
Q 5863 353 6288 -241 
z
M 2363 -297 
Q 2894 272 3306 984 
L 3706 741 
Q 3231 -16 2731 -584 
L 2363 -297 
z
M 400 3622 
Q 888 3272 1500 2784 
Q 1281 2522 1144 2378 
Q 544 2909 88 3266 
L 400 3622 
z
M 669 5228 
Q 1163 4859 1688 4384 
Q 1469 4172 1313 4003 
Q 769 4541 350 4884 
L 669 5228 
z
" transform="scale(0.015625)"/>
     <path id="MicrosoftYaHei-ff1a" d="M 1606 3531 
Q 1772 3531 1890 3415 
Q 2009 3300 2009 3138 
Q 2009 2975 1893 2858 
Q 1778 2741 1606 2741 
Q 1434 2741 1318 2858 
Q 1203 2975 1203 3138 
Q 1203 3300 1322 3415 
Q 1441 3531 1606 3531 
z
M 1606 716 
Q 1772 716 1890 600 
Q 2009 484 2009 319 
Q 2009 150 1890 36 
Q 1772 -78 1606 -78 
Q 1441 -78 1322 36 
Q 1203 150 1203 319 
Q 1203 484 1322 600 
Q 1441 716 1606 716 
z
" transform="scale(0.015625)"/>
     <path id="MicrosoftYaHei-7528" d="M 3088 -734 
L 3088 1253 
L 1269 1253 
Q 1163 -47 513 -903 
Q 350 -697 144 -472 
Q 550 103 694 803 
Q 831 1478 831 2716 
L 831 4947 
L 5925 4947 
L 5925 -22 
Q 5925 -766 5219 -766 
Q 4788 -766 4250 -747 
Q 4219 -541 4156 -228 
Q 4700 -266 5038 -266 
Q 5425 -266 5425 103 
L 5425 1253 
L 3588 1253 
L 3588 -734 
L 3088 -734 
z
M 3588 1703 
L 5425 1703 
L 5425 2872 
L 3588 2872 
L 3588 1703 
z
M 5425 4484 
L 3588 4484 
L 3588 3322 
L 5425 3322 
L 5425 4484 
z
M 1303 1703 
L 3088 1703 
L 3088 2872 
L 1331 2872 
Q 1350 2266 1303 1703 
z
M 1331 4484 
L 1331 3322 
L 3088 3322 
L 3088 4484 
L 1331 4484 
z
" transform="scale(0.015625)"/>
     <path id="MicrosoftYaHei-6237" d="M 2725 5116 
L 3175 5384 
Q 3475 5028 3769 4609 
L 3463 4416 
L 5794 4416 
L 5794 1647 
L 5294 1647 
L 5294 1972 
L 1347 1972 
Q 1263 172 419 -903 
Q 250 -697 56 -491 
Q 856 484 856 2434 
L 856 4416 
L 3241 4416 
Q 3013 4766 2725 5116 
z
M 1356 3966 
L 1356 2422 
L 5294 2422 
L 5294 3966 
L 1356 3966 
z
" transform="scale(0.015625)"/>
     <path id="MicrosoftYaHei-63d0" d="M 2569 5041 
L 5688 5041 
L 5688 2572 
L 5238 2572 
L 5238 2753 
L 3019 2753 
L 3019 2572 
L 2569 2572 
L 2569 5041 
z
M 1594 -559 
Q 2475 178 2581 1553 
L 3050 1553 
Q 3019 1116 2922 734 
Q 3319 128 3956 -84 
L 3956 1797 
L 2025 1797 
L 2025 2209 
L 6238 2209 
L 6238 1797 
L 4425 1797 
L 4425 1097 
L 5994 1097 
L 5994 697 
L 4425 697 
L 4425 -184 
Q 4850 -234 6313 -178 
Q 6300 -209 6169 -641 
Q 5425 -659 4625 -622 
Q 3363 -606 2769 266 
Q 2506 -388 2006 -853 
Q 1819 -697 1594 -559 
z
M 81 2003 
Q 481 2175 888 2366 
L 888 3697 
L 131 3697 
L 131 4122 
L 888 4122 
L 888 5284 
L 1363 5284 
L 1363 4122 
L 2163 4122 
L 2163 3697 
L 1363 3697 
L 1363 2597 
Q 1722 2775 2081 2972 
Q 2100 2728 2131 2472 
Q 1747 2281 1363 2088 
L 1363 -91 
Q 1363 -697 900 -747 
Q 575 -778 169 -766 
Q 131 -503 88 -247 
Q 431 -284 675 -284 
Q 888 -284 888 -53 
L 888 1844 
Q 513 1650 144 1453 
L 81 2003 
z
M 3019 3153 
L 5238 3153 
L 5238 3703 
L 3019 3703 
L 3019 3153 
z
M 5238 4641 
L 3019 4641 
L 3019 4097 
L 5238 4097 
L 5238 4641 
z
" transform="scale(0.015625)"/>
     <path id="MicrosoftYaHei-4f9b" d="M 4669 5259 
L 5181 5259 
L 5181 3884 
L 6075 3884 
L 6075 3434 
L 5181 3434 
L 5181 1709 
L 6294 1709 
L 6294 1259 
L 1750 1259 
L 1750 1709 
L 2806 1709 
L 2806 3434 
L 2000 3434 
L 2000 3884 
L 2806 3884 
L 2806 5253 
L 3319 5253 
L 3319 3884 
L 4669 3884 
L 4669 5259 
z
M 25 2309 
Q 1006 3628 1569 5316 
L 2069 5134 
Q 1747 4300 1400 3603 
L 1400 -841 
L 900 -841 
L 900 2694 
Q 578 2169 238 1747 
Q 150 2003 25 2309 
z
M 3319 1709 
L 4669 1709 
L 4669 3434 
L 3319 3434 
L 3319 1709 
z
M 4369 766 
L 4738 1078 
Q 5725 166 6281 -447 
L 5869 -828 
Q 5231 -72 4369 766 
z
M 3625 753 
Q 2888 -147 2088 -853 
Q 1919 -659 1706 -491 
Q 2500 109 3194 1053 
L 3625 753 
z
" transform="scale(0.015625)"/>
     <path id="MicrosoftYaHei-56fe" d="M 431 5072 
L 5944 5072 
L 5944 -809 
L 5475 -809 
L 5475 -509 
L 900 -509 
L 900 -809 
L 431 -809 
L 431 5072 
z
M 5475 4622 
L 900 4622 
L 900 -59 
L 5475 -59 
L 5475 4622 
z
M 1113 3091 
Q 1969 3709 2519 4547 
L 2931 4353 
Q 2816 4181 2681 4016 
L 4894 4016 
L 4894 3647 
Q 4434 3091 3722 2644 
Q 4381 2422 5338 2297 
Q 5194 2016 5131 1828 
Q 4022 2081 3256 2400 
Q 2491 2056 1225 1728 
Q 1138 1934 1013 2128 
Q 2109 2353 2825 2644 
Q 2384 2947 2066 3341 
Q 1769 3056 1419 2784 
Q 1294 2916 1113 3091 
z
M 1563 672 
L 1694 1103 
Q 3256 897 4700 622 
L 4531 147 
Q 3150 453 1563 672 
z
M 4275 3628 
L 2347 3628 
Q 2338 3616 2328 3606 
Q 2691 3141 3244 2841 
Q 3891 3188 4275 3628 
z
M 2219 1503 
L 2344 1922 
Q 3263 1784 4275 1609 
L 4144 1172 
Q 3119 1378 2219 1503 
z
" transform="scale(0.015625)"/>
     <path id="MicrosoftYaHei-7247" d="M 1263 5178 
L 1794 5178 
L 1794 3484 
L 4056 3484 
L 4056 5291 
L 4588 5291 
L 4588 3484 
L 6263 3484 
L 6263 3016 
L 1794 3016 
Q 1794 2616 1775 1916 
L 4856 1916 
L 4856 -809 
L 4319 -809 
L 4319 1441 
L 1738 1441 
Q 1613 91 694 -841 
Q 525 -616 300 -397 
Q 875 209 1069 822 
Q 1263 1372 1263 2584 
L 1263 5178 
z
" transform="scale(0.015625)"/>
     <path id="MicrosoftYaHei-6574" d="M 138 -234 
L 1263 -234 
L 1263 891 
L 1713 891 
L 1713 -234 
L 3025 -234 
L 3025 1178 
L 550 1178 
L 550 1578 
L 5800 1578 
L 5800 1178 
L 3475 1178 
L 3475 697 
L 5525 697 
L 5525 297 
L 3475 297 
L 3475 -234 
L 6256 -234 
L 6256 -634 
L 138 -634 
L 138 -234 
z
M 25 2003 
Q 825 2334 1481 2916 
L 913 2916 
L 913 2759 
L 506 2759 
L 506 4109 
L 1650 4109 
L 1650 4491 
L 250 4491 
L 250 4866 
L 1650 4866 
L 1650 5291 
L 2069 5291 
L 2069 4866 
L 3425 4866 
L 3425 4491 
L 2069 4491 
L 2069 4109 
L 3213 4109 
L 3213 2759 
L 2806 2759 
L 2806 2916 
L 2069 2916 
L 2069 2541 
L 2225 2747 
Q 2781 2484 3288 2216 
L 3075 1872 
Q 2550 2184 2069 2397 
L 2069 1722 
L 1650 1722 
L 1650 2647 
Q 1075 2078 288 1647 
Q 175 1803 25 2003 
z
M 3363 2078 
Q 4050 2341 4519 2716 
Q 4144 3134 3938 3716 
Q 3788 3447 3631 3197 
L 3256 3459 
Q 3850 4253 4163 5322 
L 4600 5191 
Q 4481 4872 4356 4572 
L 6263 4572 
L 6263 4172 
L 5850 4172 
Q 5644 3316 5181 2741 
Q 5638 2428 6325 2247 
Q 6169 2047 6013 1778 
Q 5319 2034 4844 2403 
Q 4363 1984 3650 1678 
Q 3525 1859 3363 2078 
z
M 5400 4172 
L 4219 4172 
Q 4394 3484 4838 3022 
Q 5244 3503 5400 4172 
z
M 2806 3266 
L 2806 3759 
L 2069 3759 
L 2069 3266 
L 2806 3266 
z
M 913 3266 
L 1650 3266 
L 1650 3759 
L 913 3759 
L 913 3266 
z
" transform="scale(0.015625)"/>
     <path id="MicrosoftYaHei-7406" d="M 2031 -166 
L 3988 -166 
L 3988 734 
L 2394 734 
L 2394 1172 
L 3988 1172 
L 3988 1997 
L 2988 1997 
L 2988 1766 
L 2525 1766 
L 2525 4991 
L 5913 4991 
L 5913 1766 
L 5450 1766 
L 5450 1997 
L 4450 1997 
L 4450 1172 
L 6044 1172 
L 6044 734 
L 4450 734 
L 4450 -166 
L 6319 -166 
L 6319 -603 
L 2031 -603 
L 2031 -166 
z
M 44 203 
Q 525 319 975 434 
L 975 2328 
L 194 2328 
L 194 2766 
L 975 2766 
L 975 4328 
L 131 4328 
L 131 4766 
L 2281 4766 
L 2281 4328 
L 1438 4328 
L 1438 2766 
L 2231 2766 
L 2231 2328 
L 1438 2328 
L 1438 559 
Q 1850 675 2238 791 
Q 2269 509 2306 303 
Q 1238 16 213 -303 
L 44 203 
z
M 4450 2422 
L 5450 2422 
L 5450 3291 
L 4450 3291 
L 4450 2422 
z
M 2988 2422 
L 3988 2422 
L 3988 3291 
L 2988 3291 
L 2988 2422 
z
M 5450 4566 
L 4450 4566 
L 4450 3703 
L 5450 3703 
L 5450 4566 
z
M 2988 3703 
L 3988 3703 
L 3988 4566 
L 2988 4566 
L 2988 3703 
z
" transform="scale(0.015625)"/>
    </defs>
    <use xlink:href="#MicrosoftYaHei-6570"/>
    <use xlink:href="#MicrosoftYaHei-636e" transform="translate(100 0)"/>
    <use xlink:href="#MicrosoftYaHei-6765" transform="translate(200 0)"/>
    <use xlink:href="#MicrosoftYaHei-6e90" transform="translate(300 0)"/>
    <use xlink:href="#MicrosoftYaHei-ff1a" transform="translate(400 0)"/>
    <use xlink:href="#MicrosoftYaHei-7528" transform="translate(500 0)"/>
    <use xlink:href="#MicrosoftYaHei-6237" transform="translate(600 0)"/>
    <use xlink:href="#MicrosoftYaHei-63d0" transform="translate(700 0)"/>
    <use xlink:href="#MicrosoftYaHei-4f9b" transform="translate(800 0)"/>
    <use xlink:href="#MicrosoftYaHei-56fe" transform="translate(900 0)"/>
    <use xlink:href="#MicrosoftYaHei-7247" transform="translate(1000 0)"/>
    <use xlink:href="#MicrosoftYaHei-6574" transform="translate(1100 0)"/>
    <use xlink:href="#MicrosoftYaHei-7406" transform="translate(1200 0)"/>
    <use xlink:href="#MicrosoftYaHei-ff08" transform="translate(1300 0)"/>
    <use xlink:href="#MicrosoftYaHei-32" transform="translate(1400 0)"/>
    <use xlink:href="#MicrosoftYaHei-30" transform="translate(1458.642578 0)"/>
    <use xlink:href="#MicrosoftYaHei-32" transform="translate(1517.285156 0)"/>
    <use xlink:href="#MicrosoftYaHei-31" transform="translate(1575.927734 0)"/>
    <use xlink:href="#MicrosoftYaHei-2d" transform="translate(1634.570312 0)"/>
    <use xlink:href="#MicrosoftYaHei-32" transform="translate(1677.832031 0)"/>
    <use xlink:href="#MicrosoftYaHei-30" transform="translate(1736.474609 0)"/>
    <use xlink:href="#MicrosoftYaHei-32" transform="translate(1795.117188 0)"/>
    <use xlink:href="#MicrosoftYaHei-35" transform="translate(1853.759766 0)"/>
    <use xlink:href="#MicrosoftYaHei-ff09" transform="translate(1912.402344 0)"/>
   </g>
  </g>
 </g>
 <defs>
  <clipPath id="pe7b2268d91">
   <rect x="7.2" y="7.2" width="1152" height="648"/>
  </clipPath>
  <clipPath id="pd170c559a1">
   <rect x="99.36" y="149.76" width="921.6" height="362.88"/>
  </clipPath>
  <clipPath id="pbab6909cde">
   <rect x="99.36" y="149.76" width="921.6" height="362.88"/>
  </clipPath>
 </defs>
</svg>
