<?xml version="1.0" encoding="UTF-8"?>
<svg xmlns="http://www.w3.org/2000/svg" width="1800" height="1080" viewBox="0 0 1800 1080">
  <defs>
    <marker id="arrow" markerWidth="7" markerHeight="5" refX="6" refY="2.5" orient="auto">
      <polygon points="0,0 7,2.5 0,5" fill="#6f9fbe"/>
    </marker>
    <style>
      .bg { fill:#efefef; }
      .title { font-family:"Microsoft YaHei",sans-serif; font-size:56px; font-weight:700; fill:#111; }
      .node { fill:#f9f9f9; stroke:#1aa7d9; stroke-width:5; }
      .key { fill:#ffffff; stroke:#e51b1b; stroke-width:5; }
      .txt { font-family:"Microsoft YaHei",sans-serif; font-size:34px; fill:#111; }
      .txtm { font-family:"Microsoft YaHei",sans-serif; font-size:30px; fill:#111; }
      .line { fill:none; stroke:#7fa9c4; stroke-width:2.1; marker-end:url(#arrow); }
      .lineThin { fill:none; stroke:#9abfd2; stroke-width:1.7; marker-end:url(#arrow); }
      .dash { fill:none; stroke:#6f9fbe; stroke-width:2.1; stroke-dasharray:10 10; marker-end:url(#arrow); }
    </style>
  </defs>

  <rect class="bg" x="0" y="0" width="1800" height="1080"/>
  <text x="24" y="84" class="title">供需指标（乙二醇）</text>

  <!-- Supply -->
  <rect x="250" y="170" width="140" height="62" class="node"/>
  <text x="292" y="211" class="txtm">政策</text>
  <rect x="450" y="170" width="140" height="62" class="node"/>
  <text x="492" y="211" class="txtm">天气</text>

  <rect x="210" y="280" width="140" height="62" class="key"/>
  <text x="245" y="321" class="txtm">开工率</text>
  <rect x="390" y="280" width="220" height="62" class="node"/>
  <text x="438" y="321" class="txtm">原料价格</text>

  <rect x="120" y="400" width="190" height="62" class="node"/>
  <text x="156" y="441" class="txtm">内外价差</text>
  <rect x="340" y="400" width="190" height="62" class="key"/>
  <text x="376" y="441" class="txtm">生产利润</text>

  <rect x="260" y="520" width="130" height="62" class="node"/>
  <text x="295" y="561" class="txtm">进口</text>
  <rect x="500" y="520" width="130" height="62" class="node"/>
  <text x="535" y="561" class="txtm">国产</text>

  <rect x="410" y="650" width="170" height="72" class="node"/>
  <text x="463" y="697" class="txt">供应</text>

  <!-- Demand -->
  <rect x="900" y="170" width="140" height="62" class="node"/>
  <text x="942" y="211" class="txtm">物流</text>
  <rect x="1060" y="170" width="140" height="62" class="node"/>
  <text x="1102" y="211" class="txtm">基建</text>
  <rect x="1220" y="170" width="140" height="62" class="node"/>
  <text x="1262" y="211" class="txtm">政策</text>

  <rect x="900" y="290" width="190" height="62" class="node"/>
  <text x="936" y="331" class="txtm">聚酯负荷</text>
  <rect x="1120" y="290" width="180" height="62" class="key"/>
  <text x="1148" y="331" class="txtm">终端替代</text>
  <rect x="1330" y="290" width="170" height="62" class="node"/>
  <text x="1359" y="331" class="txtm">汽车销售</text>
  <rect x="1540" y="290" width="130" height="62" class="node"/>
  <text x="1578" y="331" class="txtm">政策</text>

  <rect x="780" y="420" width="190" height="62" class="node"/>
  <text x="808" y="461" class="txtm">长丝/短纤</text>
  <rect x="1000" y="420" width="120" height="62" class="node"/>
  <text x="1038" y="461" class="txtm">瓶片</text>
  <rect x="1160" y="420" width="160" height="62" class="key"/>
  <text x="1194" y="461" class="txtm">开工率</text>
  <rect x="1360" y="420" width="140" height="62" class="node"/>
  <text x="1403" y="461" class="txtm">利润</text>
  <rect x="1540" y="500" width="130" height="62" class="key"/>
  <text x="1578" y="541" class="txtm">出口</text>

  <rect x="1230" y="650" width="170" height="72" class="node"/>
  <text x="1283" y="697" class="txt">需求</text>

  <!-- Inventory -->
  <rect x="860" y="820" width="150" height="72" class="node"/>
  <text x="913" y="867" class="txt">库存</text>
  <rect x="760" y="940" width="100" height="62" class="node"/>
  <text x="792" y="981" class="txtm">港口</text>
  <rect x="900" y="940" width="100" height="62" class="node"/>
  <text x="922" y="981" class="txtm">显性</text>
  <rect x="1040" y="940" width="100" height="62" class="node"/>
  <text x="1062" y="981" class="txtm">隐性</text>

  <!-- Supply arrows -->
  <path d="M320 232 L440 280" class="lineThin"/>
  <path d="M520 232 L510 280" class="lineThin"/>
  <path d="M350 311 L390 311" class="line"/>
  <path d="M500 342 L500 400" class="lineThin"/>
  <path d="M310 431 L340 431" class="lineThin"/>
  <path d="M435 462 L325 520" class="line"/>
  <path d="M435 462 L565 520" class="line"/>
  <path d="M325 582 L452 650" class="line"/>
  <path d="M565 582 L538 650" class="line"/>

  <!-- Demand arrows -->
  <path d="M970 232 L970 290" class="lineThin"/>
  <path d="M1130 232 L1010 290" class="lineThin"/>
  <path d="M1290 232 L1210 290" class="lineThin"/>
  <path d="M1090 321 L1120 321" class="line"/>

  <path d="M995 352 L875 420" class="lineThin"/>
  <path d="M995 352 L1060 420" class="lineThin"/>
  <path d="M1210 352 L1240 420" class="lineThin"/>
  <path d="M1415 352 L1240 420" class="lineThin"/>
  <path d="M1605 352 L1605 500" class="lineThin"/>

  <path d="M875 482 L1265 650" class="line"/>
  <path d="M1060 482 L1290 650" class="line"/>
  <path d="M1240 482 L1315 650" class="line"/>
  <path d="M1430 482 L1340 650" class="line"/>
  <path d="M1605 562 L1365 650" class="line"/>

  <!-- Dashed relationships -->
  <path d="M580 684 L1230 684" class="dash"/>
  <path d="M1230 706 L580 706" class="dash"/>
  <path d="M500 724 L885 820" class="dash"/>
  <path d="M1315 724 L975 820" class="dash"/>

  <!-- Inventory branch -->
  <path d="M935 892 L810 940" class="lineThin"/>
  <path d="M935 892 L950 940" class="lineThin"/>
  <path d="M935 892 L1090 940" class="lineThin"/>
</svg>
