<?xml version="1.0" encoding="utf-8" standalone="no"?>
<!DOCTYPE svg PUBLIC "-//W3C//DTD SVG 1.1//EN"
  "http://www.w3.org/Graphics/SVG/1.1/DTD/svg11.dtd">
<svg xmlns:xlink="http://www.w3.org/1999/xlink" width="1166.4pt" height="662.4pt" viewBox="0 0 1166.4 662.4" xmlns="http://www.w3.org/2000/svg" version="1.1">
 <metadata>
  <rdf:RDF xmlns:dc="http://purl.org/dc/elements/1.1/" xmlns:cc="http://creativecommons.org/ns#" xmlns:rdf="http://www.w3.org/1999/02/22-rdf-syntax-ns#">
   <cc:Work>
    <dc:type rdf:resource="http://purl.org/dc/dcmitype/StillImage"/>
    <dc:date>2026-04-17T12:36:31.796058</dc:date>
    <dc:format>image/svg+xml</dc:format>
    <dc:creator>
     <cc:Agent>
      <dc:title>Matplotlib v3.10.8, https://matplotlib.org/</dc:title>
     </cc:Agent>
    </dc:creator>
   </cc:Work>
  </rdf:RDF>
 </metadata>
 <defs>
  <style type="text/css">*{stroke-linejoin: round; stroke-linecap: butt}</style>
 </defs>
 <g id="figure_1">
  <g id="patch_1">
   <path d="M 0 662.4 
L 1166.4 662.4 
L 1166.4 0 
L 0 0 
z
" style="fill: #efefef"/>
  </g>
  <g id="axes_1">
   <g id="patch_2">
    <path d="M 525.6 366.84 
C 609.616342 366.84 690.202903 358.305329 749.611428 343.115649 
C 809.019953 327.92597 842.4 307.321451 842.4 285.84 
C 842.4 264.358549 809.019953 243.75403 749.611428 228.564351 
C 690.202903 213.374671 609.616342 204.84 525.6 204.84 
C 441.583658 204.84 360.997097 213.374671 301.588572 228.564351 
C 242.180047 243.75403 208.8 264.358549 208.8 285.84 
C 208.8 307.321451 242.180047 327.92597 301.588572 343.115649 
C 360.997097 358.305329 441.583658 366.84 525.6 366.84 
z
" clip-path="url(#pf049d9f070)" style="fill: #c9ced3; opacity: 0.18"/>
   </g>
   <g id="patch_3">
    <path d="M 675.36 402.48 
C 730.352515 402.48 783.100082 394.96949 821.985662 381.602571 
C 860.871242 368.235653 882.72 350.103677 882.72 331.2 
C 882.72 312.296323 860.871242 294.164347 821.985662 280.797429 
C 783.100082 267.43051 730.352515 259.92 675.36 259.92 
C 620.367485 259.92 567.619918 267.43051 528.734338 280.797429 
C 489.848758 294.164347 468 312.296323 468 331.2 
C 468 350.103677 489.848758 368.235653 528.734338 381.602571 
C 567.619918 394.96949 620.367485 402.48 675.36 402.48 
z
" clip-path="url(#pf049d9f070)" style="fill: #c9ced3; opacity: 0.18"/>
   </g>
   <g id="patch_4">
    <path d="M 398.88 386.28 
C 435.541677 386.28 470.706721 381.159197 496.630441 372.04539 
C 522.554162 362.931582 537.12 350.568871 537.12 337.68 
C 537.12 324.791129 522.554162 312.428418 496.630441 303.31461 
C 470.706721 294.200803 435.541677 289.08 398.88 289.08 
C 362.218323 289.08 327.053279 294.200803 301.129559 303.31461 
C 275.205838 312.428418 260.64 324.791129 260.64 337.68 
C 260.64 350.568871 275.205838 362.931582 301.129559 372.04539 
C 327.053279 381.159197 362.218323 386.28 398.88 386.28 
z
" clip-path="url(#pf049d9f070)" style="fill: #c9ced3; opacity: 0.18"/>
   </g>
  </g>
  <g id="axes_2">
   <g id="patch_5">
    <path d="M 698.399993 498.384 
C 741.004997 498.384 781.908605 481.441168 812.034886 451.314886 
C 842.161168 421.188605 859.104 380.285001 859.104 337.68 
C 859.104 295.074999 842.161177 254.171395 812.034896 224.045114 
C 781.908614 193.918832 741.004997 176.976 698.399993 176.976 
L 698.4 337.68 
z
" style="fill: #3f67ad; stroke: #ffffff; stroke-width: 2; stroke-linejoin: miter"/>
   </g>
   <g id="patch_6">
    <path d="M 538.013113 327.589333 
C 536.63466 349.4993 539.760288 371.46112 547.196696 392.116546 
C 554.633104 412.771969 566.223768 431.686204 581.251827 447.689461 
C 596.279886 463.692718 614.429012 476.448143 634.57675 485.166843 
C 654.724482 493.885543 676.446705 498.384 698.399993 498.384 
L 698.4 337.68 
z
" style="fill: #ed7d31; stroke: #ffffff; stroke-width: 2; stroke-linejoin: miter"/>
   </g>
   <g id="patch_7">
    <path d="M 629.975537 192.270682 
C 603.936422 204.523761 581.660464 223.549243 565.484828 247.350974 
C 549.309193 271.152705 539.820097 298.868115 538.013113 327.589333 
L 698.4 337.68 
z
" style="fill: #70ad47; stroke: #ffffff; stroke-width: 2; stroke-linejoin: miter"/>
   </g>
   <g id="patch_8">
    <path d="M 698.400002 176.976 
C 686.607923 176.976 674.851583 178.273915 663.343497 180.846276 
C 651.835411 183.418637 640.645329 187.24986 629.975537 192.270682 
L 698.4 337.68 
z
" style="fill: #a5a5a5; stroke: #ffffff; stroke-width: 2; stroke-linejoin: miter"/>
   </g>
   <g id="matplotlib.axis_1"/>
   <g id="matplotlib.axis_2"/>
   <g id="text_1">
    <!-- 50% -->
    <g style="fill: #1f2a33" transform="translate(796.4553 341.535469) scale(0.14 -0.14)">
     <defs>
      <path id="MicrosoftYaHei-35" d="M 3294 1494 
Q 3294 784 2823 350 
Q 2353 -84 1559 -84 
Q 878 -84 544 119 
L 544 744 
Q 1034 425 1544 425 
Q 2050 425 2361 704 
Q 2672 984 2672 1447 
Q 2672 1909 2348 2167 
Q 2025 2425 1434 2425 
Q 978 2425 613 2384 
L 791 4841 
L 3053 4841 
L 3053 4303 
L 1306 4303 
L 1206 2931 
L 1647 2950 
Q 2416 2950 2855 2567 
Q 3294 2184 3294 1494 
z
" transform="scale(0.015625)"/>
      <path id="MicrosoftYaHei-30" d="M 284 2325 
Q 284 3606 709 4264 
Q 1134 4922 1941 4922 
Q 3478 4922 3478 2441 
Q 3478 1216 3045 567 
Q 2613 -81 1831 -81 
Q 1094 -81 689 534 
Q 284 1150 284 2325 
z
M 909 2353 
Q 909 425 1888 425 
Q 2850 425 2850 2384 
Q 2850 4413 1906 4413 
Q 909 4413 909 2353 
z
" transform="scale(0.015625)"/>
      <path id="MicrosoftYaHei-25" d="M 272 3619 
Q 272 4213 589 4563 
Q 906 4913 1444 4913 
Q 1959 4913 2248 4591 
Q 2538 4269 2538 3694 
Q 2538 3122 2219 2765 
Q 1900 2409 1372 2409 
Q 872 2409 572 2740 
Q 272 3072 272 3619 
z
M 753 3650 
Q 753 3247 928 3028 
Q 1103 2809 1406 2809 
Q 1719 2809 1889 3036 
Q 2059 3263 2059 3675 
Q 2059 4078 1892 4298 
Q 1725 4519 1422 4519 
Q 1113 4519 933 4289 
Q 753 4059 753 3650 
z
M 4647 4841 
L 1538 -31 
L 1016 -31 
L 4125 4841 
L 4647 4841 
z
M 3172 1134 
Q 3172 1728 3489 2083 
Q 3806 2438 4341 2438 
Q 4853 2438 5143 2114 
Q 5434 1791 5434 1203 
Q 5434 634 5112 279 
Q 4791 -75 4272 -75 
Q 3769 -75 3470 261 
Q 3172 597 3172 1134 
z
M 3650 1163 
Q 3650 769 3825 548 
Q 4000 328 4303 328 
Q 4616 328 4786 556 
Q 4956 784 4956 1194 
Q 4956 1600 4786 1815 
Q 4616 2031 4319 2031 
Q 4000 2031 3825 1801 
Q 3650 1572 3650 1163 
z
" transform="scale(0.015625)"/>
     </defs>
     <use xlink:href="#MicrosoftYaHei-35"/>
     <use xlink:href="#MicrosoftYaHei-30" transform="translate(58.642578 0)"/>
     <use xlink:href="#MicrosoftYaHei-25" transform="translate(117.285156 0)"/>
    </g>
   </g>
   <g id="text_2">
    <!-- 26% -->
    <g style="fill: #1f2a33" transform="translate(601.958777 418.542088) scale(0.14 -0.14)">
     <defs>
      <path id="MicrosoftYaHei-32" d="M 2666 3572 
Q 2666 3963 2419 4186 
Q 2172 4409 1747 4409 
Q 1447 4409 1140 4256 
Q 834 4103 569 3819 
L 569 4413 
Q 806 4659 1107 4790 
Q 1409 4922 1816 4922 
Q 2472 4922 2872 4570 
Q 3272 4219 3272 3619 
Q 3272 3084 3026 2693 
Q 2781 2303 2188 1894 
Q 1581 1475 1376 1294 
Q 1172 1113 1090 947 
Q 1009 781 1009 544 
L 3416 544 
L 3416 0 
L 372 0 
L 372 241 
Q 372 659 486 951 
Q 600 1244 862 1520 
Q 1125 1797 1681 2184 
Q 2250 2584 2458 2886 
Q 2666 3188 2666 3572 
z
" transform="scale(0.015625)"/>
      <path id="MicrosoftYaHei-36" d="M 3181 4219 
Q 2803 4413 2391 4413 
Q 1763 4413 1381 3866 
Q 1000 3319 994 2372 
L 1009 2372 
Q 1353 3038 2106 3038 
Q 2734 3038 3109 2628 
Q 3484 2219 3484 1541 
Q 3484 831 3051 375 
Q 2619 -81 1947 -81 
Q 1209 -81 789 495 
Q 369 1072 369 2131 
Q 369 3413 920 4167 
Q 1472 4922 2372 4922 
Q 2888 4922 3181 4781 
L 3181 4219 
z
M 1031 1584 
Q 1031 1106 1286 765 
Q 1541 425 1963 425 
Q 2363 425 2613 719 
Q 2863 1013 2863 1475 
Q 2863 1975 2627 2253 
Q 2391 2531 1956 2531 
Q 1544 2531 1287 2250 
Q 1031 1969 1031 1584 
z
" transform="scale(0.015625)"/>
     </defs>
     <use xlink:href="#MicrosoftYaHei-32"/>
     <use xlink:href="#MicrosoftYaHei-36" transform="translate(58.642578 0)"/>
     <use xlink:href="#MicrosoftYaHei-25" transform="translate(117.285156 0)"/>
    </g>
   </g>
   <g id="text_3">
    <!-- 17% -->
    <g style="fill: #1f2a33" transform="translate(590.921911 278.305105) scale(0.14 -0.14)">
     <defs>
      <path id="MicrosoftYaHei-31" d="M 1781 0 
L 1781 4141 
Q 1638 3997 1295 3819 
Q 953 3641 663 3569 
L 663 4169 
Q 1047 4275 1484 4508 
Q 1922 4741 2156 4947 
L 2388 4947 
L 2388 0 
L 1781 0 
z
" transform="scale(0.015625)"/>
      <path id="MicrosoftYaHei-37" d="M 3422 4463 
Q 2659 3131 2223 1998 
Q 1788 866 1684 0 
L 1047 0 
Q 1163 853 1594 1947 
Q 2025 3041 2747 4300 
L 347 4300 
L 347 4841 
L 3422 4841 
L 3422 4463 
z
" transform="scale(0.015625)"/>
     </defs>
     <use xlink:href="#MicrosoftYaHei-31"/>
     <use xlink:href="#MicrosoftYaHei-37" transform="translate(58.642578 0)"/>
     <use xlink:href="#MicrosoftYaHei-25" transform="translate(117.285156 0)"/>
    </g>
   </g>
   <g id="text_4">
    <!-- 7% -->
    <g style="fill: #1f2a33" transform="translate(663.527844 231.75185) scale(0.14 -0.14)">
     <use xlink:href="#MicrosoftYaHei-37"/>
     <use xlink:href="#MicrosoftYaHei-25" transform="translate(58.642578 0)"/>
    </g>
   </g>
   <g id="legend_1">
    <g id="patch_9">
     <path d="M 902.9448 311.074687 
L 928.9448 311.074687 
L 928.9448 301.974687 
L 902.9448 301.974687 
z
" style="fill: #3f67ad; stroke: #ffffff; stroke-width: 2; stroke-linejoin: miter"/>
    </g>
    <g id="text_5">
     <!-- 油头（石脑油） -->
     <g transform="translate(939.3448 311.074687) scale(0.13 -0.13)">
      <defs>
       <path id="MicrosoftYaHei-6cb9" d="M 2025 4216 
L 3825 4216 
L 3825 5303 
L 4313 5303 
L 4313 4216 
L 6119 4216 
L 6119 -791 
L 5631 -791 
L 5631 -409 
L 2513 -409 
L 2513 -803 
L 2025 -803 
L 2025 4216 
z
M 4313 41 
L 5631 41 
L 5631 1759 
L 4313 1759 
L 4313 41 
z
M 2513 41 
L 3825 41 
L 3825 1759 
L 2513 1759 
L 2513 41 
z
M 5631 3766 
L 4313 3766 
L 4313 2197 
L 5631 2197 
L 5631 3766 
z
M 2513 2197 
L 3825 2197 
L 3825 3766 
L 2513 3766 
L 2513 2197 
z
M 981 1728 
Q 1275 1572 1475 1491 
Q 1106 291 769 -797 
L 244 -559 
Q 675 547 981 1728 
z
M 388 3559 
Q 1025 3097 1469 2716 
Q 1238 2434 1106 2291 
Q 581 2772 75 3184 
L 388 3559 
z
M 688 5178 
Q 1294 4716 1769 4297 
Q 1550 4059 1394 3897 
Q 938 4353 363 4834 
L 688 5178 
z
" transform="scale(0.015625)"/>
       <path id="MicrosoftYaHei-5934" d="M 156 1903 
L 3263 1903 
Q 3363 3166 3363 5272 
L 3900 5272 
Q 3900 3441 3806 1903 
L 6244 1903 
L 6244 1453 
L 3719 1453 
Q 3675 1247 3575 1041 
Q 4831 409 6125 -322 
L 5806 -803 
Q 4519 3 3306 641 
Q 2556 -253 456 -884 
Q 344 -691 119 -391 
Q 2788 341 3150 1453 
L 156 1453 
L 156 1903 
z
M 775 3741 
Q 1663 3209 2394 2697 
L 2088 2266 
Q 1369 2803 494 3359 
L 775 3741 
z
M 1400 5084 
Q 2344 4509 2981 4059 
L 2669 3634 
Q 1831 4266 1131 4716 
L 1400 5084 
z
" transform="scale(0.015625)"/>
       <path id="MicrosoftYaHei-ff08" d="M 5288 -1100 
Q 4172 119 4172 1850 
Q 4172 3603 5288 4838 
L 5825 4838 
Q 4716 3572 4716 1856 
Q 4716 166 5819 -1100 
L 5288 -1100 
z
" transform="scale(0.015625)"/>
       <path id="MicrosoftYaHei-77f3" d="M 313 4841 
L 6175 4841 
L 6175 4378 
L 2881 4378 
Q 2525 3550 2022 2803 
L 5638 2803 
L 5638 -772 
L 5150 -772 
L 5150 -222 
L 1963 -222 
L 1963 -797 
L 1475 -797 
L 1475 2059 
Q 975 1444 369 891 
Q 244 1147 88 1366 
Q 1544 2622 2331 4378 
L 313 4378 
L 313 4841 
z
M 5150 2341 
L 1963 2341 
L 1963 241 
L 5150 241 
L 5150 2341 
z
" transform="scale(0.015625)"/>
       <path id="MicrosoftYaHei-8111" d="M 506 4941 
L 2188 4941 
L 2188 -128 
Q 2181 -741 1588 -734 
Q 1194 -734 1013 -716 
Q 994 -534 938 -247 
Q 1256 -291 1488 -291 
Q 1744 -291 1744 -3 
L 1744 1366 
L 950 1366 
Q 950 -134 431 -822 
Q 244 -609 75 -472 
Q 506 166 506 1197 
L 506 4941 
z
M 2725 3278 
L 3175 3278 
L 3175 -66 
L 5563 -66 
L 5563 3272 
L 6013 3272 
L 6013 -803 
L 5563 -803 
L 5563 -516 
L 2725 -516 
L 2725 3278 
z
M 3275 3553 
L 3631 3766 
Q 4006 3109 4375 2453 
Q 4691 3097 4963 3797 
L 5369 3634 
Q 5022 2772 4625 2000 
Q 5028 1275 5425 547 
L 5031 334 
Q 4753 875 4388 1550 
Q 4025 897 3625 316 
Q 3400 459 3244 541 
Q 3728 1225 4141 2000 
Q 3750 2713 3275 3553 
z
M 2500 4391 
L 4309 4391 
Q 4113 4784 3913 5103 
L 4344 5316 
Q 4575 4953 4769 4603 
L 4353 4391 
L 6319 4391 
L 6319 3941 
L 2500 3941 
L 2500 4391 
z
M 950 1791 
L 1744 1791 
L 1744 2941 
L 950 2941 
L 950 1791 
z
M 1744 4503 
L 950 4503 
L 950 3366 
L 1744 3366 
L 1744 4503 
z
" transform="scale(0.015625)"/>
       <path id="MicrosoftYaHei-ff09" d="M 1113 -1100 
L 575 -1100 
Q 1684 163 1684 1888 
Q 1684 3581 581 4838 
L 1113 4838 
Q 2222 3628 2222 1888 
Q 2222 128 1113 -1100 
z
" transform="scale(0.015625)"/>
      </defs>
      <use xlink:href="#MicrosoftYaHei-6cb9"/>
      <use xlink:href="#MicrosoftYaHei-5934" transform="translate(100 0)"/>
      <use xlink:href="#MicrosoftYaHei-ff08" transform="translate(200 0)"/>
      <use xlink:href="#MicrosoftYaHei-77f3" transform="translate(300 0)"/>
      <use xlink:href="#MicrosoftYaHei-8111" transform="translate(400 0)"/>
      <use xlink:href="#MicrosoftYaHei-6cb9" transform="translate(500 0)"/>
      <use xlink:href="#MicrosoftYaHei-ff09" transform="translate(600 0)"/>
     </g>
    </g>
    <g id="patch_10">
     <path d="M 902.9448 331.198281 
L 928.9448 331.198281 
L 928.9448 322.098281 
L 902.9448 322.098281 
z
" style="fill: #ed7d31; stroke: #ffffff; stroke-width: 2; stroke-linejoin: miter"/>
    </g>
    <g id="text_6">
     <!-- 气头（乙烷） -->
     <g transform="translate(939.3448 331.198281) scale(0.13 -0.13)">
      <defs>
       <path id="MicrosoftYaHei-6c14" d="M 738 2159 
L 738 2597 
L 5175 2597 
L 5175 1941 
Q 5175 441 5513 -178 
Q 5663 -409 5744 -128 
Q 5831 316 5869 972 
Q 6094 891 6319 841 
Q 6300 359 6188 -216 
Q 6044 -828 5606 -828 
Q 5263 -828 5063 -422 
Q 4675 328 4675 1916 
L 4675 2159 
L 738 2159 
z
M 88 2828 
Q 988 3953 1431 5353 
L 1938 5203 
Q 1834 4909 1722 4634 
L 5988 4634 
L 5988 4197 
L 1528 4197 
Q 1016 3106 288 2259 
Q 175 2616 88 2828 
z
M 1438 3609 
L 5513 3609 
L 5513 3184 
L 1438 3184 
L 1438 3609 
z
" transform="scale(0.015625)"/>
       <path id="MicrosoftYaHei-4e59" d="M 5563 1703 
Q 5744 1622 6119 1509 
Q 6038 784 5931 284 
Q 5775 -491 4613 -503 
Q 3063 -509 1756 -509 
Q 444 -484 444 372 
Q 444 897 1006 1453 
Q 2419 2797 4400 4334 
L 513 4334 
L 513 4828 
L 5244 4828 
L 5244 4297 
Q 2831 2466 1456 1153 
Q 1013 728 1013 434 
Q 1013 -9 1838 -28 
Q 3056 -53 4431 -16 
Q 5338 -9 5444 547 
Q 5531 1009 5563 1703 
z
" transform="scale(0.015625)"/>
       <path id="MicrosoftYaHei-70f7" d="M 2463 2197 
L 6075 2197 
L 6075 1766 
L 5038 1766 
L 5038 -9 
Q 5038 -241 5238 -241 
L 5475 -241 
Q 5731 -241 5769 53 
Q 5813 372 5844 884 
Q 5863 878 6313 691 
Q 6263 247 6206 -141 
Q 6144 -678 5569 -678 
L 5013 -678 
Q 4569 -678 4569 -109 
L 4569 1766 
L 3775 1766 
Q 3738 -22 2306 -847 
Q 2063 -528 1963 -422 
Q 3250 191 3313 1766 
L 2463 1766 
L 2463 2197 
z
M 963 5278 
L 1413 5278 
Q 1388 2666 1300 1722 
Q 1981 859 2313 366 
L 1919 47 
Q 1631 572 1206 1166 
Q 956 -9 344 -772 
Q 200 -584 6 -391 
Q 925 734 938 2947 
Q 956 3872 963 5278 
z
M 2425 4597 
L 3969 4597 
Q 3831 4916 3713 5153 
L 4138 5341 
Q 4294 5041 4488 4597 
L 6044 4597 
L 6044 3509 
L 5569 3509 
L 5569 4166 
L 2900 4166 
L 2900 3509 
L 2425 3509 
L 2425 4597 
z
M 2975 3422 
L 5475 3422 
L 5475 2991 
L 2975 2991 
L 2975 3422 
z
M 75 3928 
L 450 4028 
Q 600 3472 806 2572 
L 381 2434 
Q 188 3459 75 3928 
z
M 1419 2628 
Q 1631 3178 1894 4072 
L 2300 3916 
Q 2044 3128 1775 2478 
L 1419 2628 
z
" transform="scale(0.015625)"/>
      </defs>
      <use xlink:href="#MicrosoftYaHei-6c14"/>
      <use xlink:href="#MicrosoftYaHei-5934" transform="translate(100 0)"/>
      <use xlink:href="#MicrosoftYaHei-ff08" transform="translate(200 0)"/>
      <use xlink:href="#MicrosoftYaHei-4e59" transform="translate(300 0)"/>
      <use xlink:href="#MicrosoftYaHei-70f7" transform="translate(400 0)"/>
      <use xlink:href="#MicrosoftYaHei-ff09" transform="translate(500 0)"/>
     </g>
    </g>
    <g id="patch_11">
     <path d="M 902.9448 351.321875 
L 928.9448 351.321875 
L 928.9448 342.221875 
L 902.9448 342.221875 
z
" style="fill: #70ad47; stroke: #ffffff; stroke-width: 2; stroke-linejoin: miter"/>
    </g>
    <g id="text_7">
     <!-- 煤头（煤基） -->
     <g transform="translate(939.3448 351.321875) scale(0.13 -0.13)">
      <defs>
       <path id="MicrosoftYaHei-7164" d="M 6356 -103 
Q 6113 -403 6013 -541 
Q 5013 16 4413 941 
L 4413 -853 
L 3963 -853 
L 3963 916 
Q 3231 -59 2200 -672 
Q 2050 -497 1850 -291 
Q 2981 278 3650 1091 
L 2144 1091 
L 2144 1503 
L 3963 1503 
L 3963 2153 
L 3213 2153 
L 3213 1953 
L 2763 1953 
L 2763 4134 
L 2125 4134 
L 2125 4547 
L 2763 4547 
L 2763 5266 
L 3213 5266 
L 3213 4547 
L 5169 4547 
L 5169 5253 
L 5619 5253 
L 5619 4547 
L 6263 4547 
L 6263 4134 
L 5619 4134 
L 5619 1953 
L 5169 1953 
L 5169 2153 
L 4413 2153 
L 4413 1503 
L 6306 1503 
L 6306 1091 
L 4681 1091 
Q 5331 303 6356 -103 
z
M 969 5253 
L 1425 5253 
Q 1425 3253 1363 1934 
Q 1931 1103 2338 441 
L 1956 178 
Q 1669 703 1288 1316 
Q 1069 16 419 -853 
Q 288 -659 100 -447 
Q 856 603 931 2322 
Q 975 3291 969 5253 
z
M 3213 2553 
L 5169 2553 
L 5169 3147 
L 3213 3147 
L 3213 2553 
z
M 3213 3547 
L 5169 3547 
L 5169 4134 
L 3213 4134 
L 3213 3547 
z
M 56 3997 
L 450 4103 
Q 663 3353 788 2753 
L 356 2634 
Q 238 3397 56 3997 
z
M 2356 3972 
Q 2150 3259 1950 2703 
L 1544 2859 
Q 1800 3491 1944 4103 
L 2356 3972 
z
" transform="scale(0.015625)"/>
       <path id="MicrosoftYaHei-57fa" d="M 6319 697 
Q 6113 441 5981 247 
Q 5406 519 4925 897 
L 4925 553 
L 3431 553 
L 3431 -97 
L 5875 -97 
L 5875 -503 
L 519 -503 
L 519 -97 
L 2963 -97 
L 2963 553 
L 1450 553 
L 1450 894 
Q 953 478 413 172 
Q 294 341 88 566 
Q 1050 1034 1753 1753 
L 156 1753 
L 156 2159 
L 1400 2159 
L 1400 4253 
L 350 4253 
L 350 4659 
L 1400 4659 
L 1400 5334 
L 1869 5334 
L 1869 4659 
L 4550 4659 
L 4550 5334 
L 5019 5334 
L 5019 4659 
L 6069 4659 
L 6069 4253 
L 5019 4253 
L 5019 2159 
L 6244 2159 
L 6244 1753 
L 4600 1753 
Q 5303 1053 6319 697 
z
M 2963 1553 
L 3431 1553 
L 3431 947 
L 4863 947 
Q 4416 1306 4047 1753 
L 2325 1753 
Q 1934 1309 1513 947 
L 2963 947 
L 2963 1553 
z
M 1869 2159 
L 4550 2159 
L 4550 2603 
L 1869 2603 
L 1869 2159 
z
M 1869 2991 
L 4550 2991 
L 4550 3428 
L 1869 3428 
L 1869 2991 
z
M 1869 3816 
L 4550 3816 
L 4550 4253 
L 1869 4253 
L 1869 3816 
z
" transform="scale(0.015625)"/>
      </defs>
      <use xlink:href="#MicrosoftYaHei-7164"/>
      <use xlink:href="#MicrosoftYaHei-5934" transform="translate(100 0)"/>
      <use xlink:href="#MicrosoftYaHei-ff08" transform="translate(200 0)"/>
      <use xlink:href="#MicrosoftYaHei-7164" transform="translate(300 0)"/>
      <use xlink:href="#MicrosoftYaHei-57fa" transform="translate(400 0)"/>
      <use xlink:href="#MicrosoftYaHei-ff09" transform="translate(500 0)"/>
     </g>
    </g>
    <g id="patch_12">
     <path d="M 902.9448 371.445469 
L 928.9448 371.445469 
L 928.9448 362.345469 
L 902.9448 362.345469 
z
" style="fill: #a5a5a5; stroke: #ffffff; stroke-width: 2; stroke-linejoin: miter"/>
    </g>
    <g id="text_8">
     <!-- 其他路线 -->
     <g transform="translate(939.3448 371.445469) scale(0.13 -0.13)">
      <defs>
       <path id="MicrosoftYaHei-5176" d="M 5206 5284 
L 5206 4509 
L 6150 4509 
L 6150 4059 
L 5206 4059 
L 5206 1153 
L 6288 1153 
L 6288 703 
L 125 703 
L 125 1153 
L 1194 1153 
L 1194 4059 
L 250 4059 
L 250 4509 
L 1194 4509 
L 1194 5284 
L 1675 5284 
L 1675 4509 
L 4725 4509 
L 4725 5284 
L 5206 5284 
z
M 1675 1153 
L 4725 1153 
L 4725 1834 
L 1675 1834 
L 1675 1153 
z
M 1675 2272 
L 4725 2272 
L 4725 2947 
L 1675 2947 
L 1675 2272 
z
M 1675 3384 
L 4725 3384 
L 4725 4059 
L 1675 4059 
L 1675 3384 
z
M 3794 184 
L 4069 609 
Q 5581 3 6306 -353 
L 6044 -841 
Q 4975 -284 3794 184 
z
M 2269 603 
L 2569 184 
Q 1381 -472 350 -872 
Q 269 -672 94 -403 
Q 1400 72 2269 603 
z
" transform="scale(0.015625)"/>
       <path id="MicrosoftYaHei-4ed6" d="M 3850 5259 
L 4338 5259 
L 4338 3706 
L 5963 4078 
Q 5919 2691 5894 2159 
Q 5863 1603 5713 1428 
Q 5544 1216 5113 1216 
Q 4919 1216 4619 1228 
Q 4581 1466 4525 1741 
Q 4794 1709 5063 1697 
Q 5400 1678 5413 2184 
Q 5444 2709 5456 3497 
L 4338 3238 
L 4338 466 
L 3850 466 
L 3850 3122 
L 2800 2878 
L 2800 353 
Q 2800 -172 3319 -172 
L 5056 -172 
Q 5625 -172 5706 247 
Q 5788 647 5844 1216 
Q 6106 1116 6363 1041 
Q 6281 447 6181 41 
Q 6025 -647 5138 -647 
L 3219 -647 
Q 2313 -647 2313 253 
L 2313 2766 
L 1750 2634 
L 1669 3097 
L 2313 3244 
L 2313 4528 
L 2800 4528 
L 2800 3353 
L 3850 3594 
L 3850 5259 
z
M 50 2366 
Q 1019 3672 1519 5322 
L 2025 5153 
Q 1719 4300 1363 3578 
L 1363 -816 
L 888 -816 
L 888 2716 
Q 584 2225 250 1809 
Q 156 2078 50 2366 
z
" transform="scale(0.015625)"/>
       <path id="MicrosoftYaHei-8def" d="M 481 2416 
L 894 2416 
L 894 106 
Q 1147 144 1413 184 
L 1413 3041 
L 913 3041 
L 913 2834 
L 463 2834 
L 463 4953 
L 2513 4953 
L 2513 3041 
L 1850 3041 
L 1850 1984 
L 2500 1984 
L 2500 1559 
L 1850 1559 
L 1850 250 
Q 2241 313 2650 384 
Q 2638 172 2638 -72 
Q 1419 -278 225 -484 
L 100 3 
Q 288 25 481 50 
L 481 2416 
z
M 2575 3428 
Q 3231 4234 3713 5359 
L 4175 5191 
Q 4041 4909 3906 4653 
L 5881 4653 
L 5881 4234 
Q 5472 3463 4797 2809 
Q 5413 2388 6313 2178 
Q 6188 1903 6106 1659 
Q 5125 1994 4441 2500 
Q 3759 1972 2788 1559 
Q 2725 1684 2538 2003 
Q 3384 2306 4072 2816 
Q 3694 3191 3391 3756 
Q 3138 3366 2888 3059 
Q 2738 3259 2575 3428 
z
M 3038 1584 
L 5756 1584 
L 5756 -847 
L 5288 -847 
L 5288 -547 
L 3506 -547 
L 3506 -847 
L 3038 -847 
L 3038 1584 
z
M 5288 1147 
L 3506 1147 
L 3506 -109 
L 5288 -109 
L 5288 1147 
z
M 2063 3466 
L 2063 4528 
L 913 4528 
L 913 3466 
L 2063 3466 
z
M 5344 4228 
L 3675 4228 
Q 3656 4197 3638 4166 
Q 3953 3531 4425 3103 
Q 4988 3606 5344 4228 
z
" transform="scale(0.015625)"/>
       <path id="MicrosoftYaHei-7ebf" d="M 1969 -347 
Q 3144 75 4003 631 
Q 3781 1197 3653 1972 
L 2319 1784 
L 2244 2234 
L 3591 2422 
Q 3538 2859 3513 3356 
L 2381 3228 
L 2306 3678 
L 3488 3809 
Q 3453 4459 3425 5303 
L 3938 5303 
Q 3953 4497 3978 3866 
L 6069 4103 
L 6125 3659 
L 3997 3413 
Q 4019 2919 4069 2488 
L 6225 2791 
L 6281 2347 
L 4128 2041 
Q 4234 1394 4416 916 
Q 5078 1416 5519 2009 
L 5925 1703 
Q 5363 1025 4619 475 
Q 4859 44 5194 -184 
Q 5606 -428 5725 66 
Q 5806 466 5856 953 
Q 6144 828 6338 772 
Q 6231 97 6125 -247 
Q 5944 -778 5506 -778 
Q 5050 -778 4663 -403 
Q 4409 -163 4209 194 
Q 3350 -363 2281 -772 
Q 2169 -597 1969 -347 
z
M 900 1541 
Q 1456 1622 2213 1753 
Q 2175 1522 2156 1272 
Q 1113 1109 325 978 
L 225 1447 
Q 659 1913 1178 2775 
Q 672 2747 225 2703 
L 106 3128 
Q 688 3922 1300 5353 
L 1775 5166 
Q 1131 3897 669 3166 
Q 1041 3178 1422 3194 
Q 1638 3578 1869 4028 
L 2331 3797 
Q 1569 2478 900 1541 
z
M 106 97 
Q 1206 334 2331 616 
Q 2313 366 2313 141 
Q 1269 -103 244 -378 
L 106 97 
z
M 4463 4972 
L 4731 5284 
Q 5175 5003 5681 4609 
L 5381 4247 
Q 4863 4691 4463 4972 
z
" transform="scale(0.015625)"/>
      </defs>
      <use xlink:href="#MicrosoftYaHei-5176"/>
      <use xlink:href="#MicrosoftYaHei-4ed6" transform="translate(100 0)"/>
      <use xlink:href="#MicrosoftYaHei-8def" transform="translate(200 0)"/>
      <use xlink:href="#MicrosoftYaHei-7ebf" transform="translate(300 0)"/>
     </g>
    </g>
   </g>
  </g>
  <g id="line2d_1">
   <path d="M 41.76 72 
L 1136.16 72 
" style="fill: none; stroke: #4a4a4a; stroke-width: 2.4; stroke-linecap: square"/>
  </g>
  <g id="line2d_2">
   <path d="M 41.76 72 
L 156.96 72 
" style="fill: none; stroke: #c81d24; stroke-width: 4.1; stroke-linecap: square"/>
  </g>
  <g id="text_9">
   <!-- 全球MEG工艺路线产能结构 -->
   <g style="fill: #4a4a4a" transform="translate(41.76 46.08) scale(0.3 -0.3)">
    <defs>
     <path id="MicrosoftYaHei-Bold-5168" d="M 369 184 
L 2731 184 
L 2731 934 
L 869 934 
L 869 1734 
L 2731 1734 
L 2731 2366 
L 1525 2366 
L 1525 2859 
Q 1113 2566 644 2284 
Q 463 2541 88 3016 
Q 2088 4091 2800 5316 
L 3894 5316 
L 3731 5078 
Q 4538 3922 6313 3091 
Q 5981 2678 5750 2353 
Q 5281 2603 4875 2878 
L 4875 2366 
L 3663 2366 
L 3663 1734 
L 5544 1734 
L 5544 934 
L 3663 934 
L 3663 184 
L 6031 184 
L 6031 -616 
L 369 -616 
L 369 184 
z
M 3200 4416 
Q 2688 3766 1925 3166 
L 4475 3166 
Q 3725 3741 3200 4416 
z
" transform="scale(0.015625)"/>
     <path id="MicrosoftYaHei-Bold-7403" d="M 5231 5322 
Q 5625 5034 6056 4634 
L 5728 4291 
L 6206 4291 
L 6206 3528 
L 4650 3528 
L 4650 3109 
Q 4772 2775 4916 2463 
Q 5331 2913 5638 3316 
L 6319 2797 
Q 5853 2294 5288 1772 
Q 5734 1050 6338 509 
Q 6063 91 5850 -341 
Q 5109 447 4650 1356 
L 4650 3 
Q 4650 -369 4484 -564 
Q 4319 -759 3964 -784 
Q 3609 -809 3006 -809 
Q 2931 -259 2838 41 
Q 3247 3 3441 3 
Q 3838 3 3825 428 
L 3825 1041 
Q 3231 641 2563 209 
L 2194 1053 
Q 2844 1403 3825 2025 
L 3825 3528 
L 2369 3528 
L 2369 4291 
L 3825 4291 
L 3825 5316 
L 4650 5316 
L 4650 4291 
L 5384 4291 
Q 5088 4575 4763 4841 
L 5231 5322 
z
M 250 -459 
L 75 428 
L 813 578 
L 813 2097 
L 206 2097 
L 206 2884 
L 813 2884 
L 813 4141 
L 150 4141 
L 150 4941 
L 2263 4941 
L 2263 4141 
L 1625 4141 
L 1625 2884 
L 2163 2884 
L 2163 2097 
L 1625 2097 
L 1625 750 
L 2256 884 
Q 2250 422 2269 41 
Q 1244 -178 250 -459 
z
M 2919 3322 
Q 3244 2872 3631 2203 
L 2931 1778 
Q 2588 2459 2269 2928 
L 2919 3322 
z
" transform="scale(0.015625)"/>
     <path id="MicrosoftYaHei-Bold-4d" d="M 4991 0 
L 4991 2938 
Q 4991 3344 5031 3959 
L 5006 3959 
Q 4913 3494 4856 3338 
L 3663 0 
L 2841 0 
L 1631 3306 
Q 1588 3425 1478 3959 
L 1450 3959 
Q 1491 3350 1491 2738 
L 1491 0 
L 559 0 
L 559 4841 
L 2059 4841 
L 3103 1916 
Q 3234 1553 3281 1234 
L 3303 1234 
Q 3400 1631 3503 1922 
L 4550 4841 
L 6009 4841 
L 6009 0 
L 4991 0 
z
" transform="scale(0.015625)"/>
     <path id="MicrosoftYaHei-Bold-45" d="M 3425 0 
L 559 0 
L 559 4841 
L 3313 4841 
L 3313 3997 
L 1591 3997 
L 1591 2856 
L 3191 2856 
L 3191 2016 
L 1591 2016 
L 1591 844 
L 3425 844 
L 3425 0 
z
" transform="scale(0.015625)"/>
     <path id="MicrosoftYaHei-Bold-47" d="M 4494 325 
Q 3784 -84 2750 -84 
Q 1594 -84 925 566 
Q 256 1216 256 2344 
Q 256 3488 992 4205 
Q 1728 4922 2931 4922 
Q 3706 4922 4284 4703 
L 4284 3725 
Q 3722 4053 2909 4053 
Q 2209 4053 1775 3597 
Q 1341 3141 1341 2394 
Q 1341 1634 1733 1209 
Q 2125 784 2803 784 
Q 3206 784 3463 909 
L 3463 1903 
L 2484 1903 
L 2484 2731 
L 4494 2731 
L 4494 325 
z
" transform="scale(0.015625)"/>
     <path id="MicrosoftYaHei-Bold-5de5" d="M 163 384 
L 2675 384 
L 2675 3966 
L 500 3966 
L 500 4853 
L 5925 4853 
L 5925 3966 
L 3700 3966 
L 3700 384 
L 6244 384 
L 6244 -503 
L 163 -503 
L 163 384 
z
" transform="scale(0.015625)"/>
     <path id="MicrosoftYaHei-Bold-827a" d="M 138 4641 
L 1625 4641 
L 1625 5309 
L 2550 5309 
L 2550 4641 
L 3850 4641 
L 3850 5309 
L 4775 5309 
L 4775 4641 
L 6263 4641 
L 6263 3853 
L 4775 3853 
L 4775 3391 
L 3850 3391 
L 3850 3853 
L 2550 3853 
L 2550 3391 
L 1625 3391 
L 1625 3853 
L 138 3853 
L 138 4641 
z
M 5231 3166 
L 5231 2341 
Q 4125 1884 2897 1242 
Q 1669 600 1669 378 
Q 1669 178 1988 178 
L 4138 178 
Q 4619 178 4826 284 
Q 5034 391 5140 667 
Q 5247 944 5300 1697 
L 6238 1353 
Q 6156 725 5993 259 
Q 5831 -206 5394 -459 
Q 4975 -628 4300 -628 
L 2206 -628 
Q 1338 -628 972 -417 
Q 606 -206 606 353 
Q 606 813 1497 1353 
Q 2388 1894 3525 2353 
L 675 2353 
L 675 3166 
L 5231 3166 
z
" transform="scale(0.015625)"/>
     <path id="MicrosoftYaHei-Bold-8def" d="M 438 4966 
L 2613 4966 
L 2613 3916 
Q 3234 4569 3581 5359 
L 4475 5253 
Q 4341 4978 4188 4722 
L 6050 4722 
L 6050 4016 
Q 5734 3316 5156 2813 
Q 5663 2619 6313 2541 
Q 6194 2209 6075 1734 
Q 5106 1916 4409 2306 
Q 3700 1928 2738 1741 
Q 2600 2109 2419 2459 
Q 3153 2588 3703 2816 
Q 3416 3084 3203 3413 
Q 3063 3259 2913 3116 
Q 2834 3244 2613 3556 
L 2613 2816 
L 2063 2816 
L 2063 2066 
L 2550 2066 
L 2550 1341 
L 2063 1341 
L 2063 447 
L 2763 534 
Q 2744 378 2738 -303 
L 200 -653 
L 106 222 
L 313 244 
L 313 2416 
L 938 2416 
L 938 313 
L 1288 353 
L 1288 2816 
L 438 2816 
L 438 4966 
z
M 1213 3516 
L 1838 3516 
L 1838 4166 
L 1213 4166 
L 1213 3516 
z
M 4416 3213 
Q 4863 3538 5088 3978 
L 3728 3978 
Q 3988 3525 4416 3213 
z
M 2975 -853 
L 2975 1722 
L 5900 1722 
L 5900 -841 
L 5113 -841 
L 5113 -516 
L 3763 -516 
L 3763 -853 
L 2975 -853 
z
M 5113 947 
L 3763 947 
L 3763 259 
L 5113 259 
L 5113 947 
z
" transform="scale(0.015625)"/>
     <path id="MicrosoftYaHei-Bold-7ebf" d="M 225 -528 
L 63 347 
Q 1188 491 2369 678 
Q 2353 481 2350 256 
Q 3069 481 3691 806 
Q 3550 1250 3466 1859 
L 2413 1734 
L 2306 2491 
L 3384 2619 
L 3347 3244 
L 2525 3159 
L 2488 3494 
Q 1859 2456 1356 1778 
Q 1919 1859 2294 1928 
Q 2263 1672 2231 1147 
Q 888 972 431 847 
L 200 1547 
Q 597 1922 1075 2641 
Q 738 2613 294 2566 
L 63 3278 
Q 581 3916 1194 5322 
L 1988 5009 
Q 1438 4034 1000 3353 
Q 1234 3356 1531 3372 
Q 1700 3663 1881 3991 
L 2466 3716 
L 2444 3922 
L 3303 4006 
L 3250 5303 
L 4094 5303 
Q 4103 4669 4128 4088 
L 5219 4194 
Q 4844 4469 4350 4778 
L 4756 5316 
Q 5263 5041 5769 4716 
L 5388 4213 
L 5988 4272 
L 6063 3522 
L 4169 3328 
L 4216 2716 
L 6156 2947 
L 6238 2197 
L 5484 2106 
L 6038 1666 
Q 5431 1003 4731 509 
Q 4991 100 5203 100 
Q 5316 100 5387 251 
Q 5459 403 5581 1047 
Q 6013 822 6313 684 
Q 6072 -288 5839 -564 
Q 5606 -841 5300 -841 
Q 4503 -841 4006 56 
Q 3259 -353 2419 -597 
Q 2325 -400 2200 -178 
Q 1084 -353 225 -528 
z
M 5413 2097 
L 4309 1963 
Q 4369 1603 4447 1266 
Q 4972 1638 5413 2097 
z
" transform="scale(0.015625)"/>
     <path id="MicrosoftYaHei-Bold-4ea7" d="M 725 2766 
L 1925 2766 
Q 1666 3084 1313 3491 
L 1963 3878 
L 313 3878 
L 313 4666 
L 2806 4666 
Q 2706 4947 2600 5216 
L 3588 5366 
L 3766 4666 
L 6200 4666 
L 6200 3878 
L 4469 3878 
L 5269 3491 
L 4628 2766 
L 6094 2766 
L 6094 1978 
L 1550 1978 
L 1550 1828 
Q 1550 447 731 -878 
Q 500 -622 69 -234 
Q 694 803 725 1934 
L 725 2766 
z
M 2881 2959 
L 2569 2766 
L 3609 2766 
Q 3975 3269 4369 3878 
L 2106 3878 
L 2881 2959 
z
" transform="scale(0.015625)"/>
     <path id="MicrosoftYaHei-Bold-80fd" d="M 2644 4797 
Q 3100 4172 3569 3447 
Q 3188 3222 2906 3066 
L 2731 3369 
L 319 3197 
L 100 3897 
Q 519 4116 1331 5353 
L 2125 5053 
L 1213 3947 
L 2353 3994 
Q 2200 4238 2044 4472 
L 2644 4797 
z
M 5513 3916 
Q 5981 3697 6288 3597 
Q 6200 3228 6114 2942 
Q 6028 2656 5798 2520 
Q 5569 2384 5200 2384 
L 4556 2384 
Q 3594 2384 3588 3322 
L 3588 5291 
L 4381 5291 
L 4381 4347 
Q 5153 4700 5681 5003 
L 6231 4366 
Q 5553 4056 4381 3616 
L 4381 3422 
Q 4381 3072 4800 3072 
L 5000 3072 
Q 5341 3072 5392 3269 
Q 5444 3466 5513 3916 
z
M 1213 -797 
L 431 -797 
L 431 2978 
L 3106 2978 
L 3106 41 
Q 3106 -325 2972 -525 
Q 2838 -725 2566 -759 
Q 2294 -794 1681 -784 
Q 1594 -422 1481 -41 
Q 1791 -59 1969 -59 
Q 2213 -59 2269 28 
Q 2325 116 2325 228 
L 2325 378 
L 1213 378 
L 1213 -797 
z
M 2325 2303 
L 1213 2303 
L 1213 1947 
L 2325 1947 
L 2325 2303 
z
M 1213 984 
L 2325 984 
L 2325 1341 
L 1213 1341 
L 1213 984 
z
M 5531 953 
Q 5913 797 6313 647 
Q 6194 -78 6081 -287 
Q 5969 -497 5750 -605 
Q 5531 -713 5206 -716 
L 4550 -716 
Q 3588 -716 3588 228 
L 3588 2216 
L 4381 2216 
L 4381 1438 
Q 5072 1781 5675 2147 
L 6225 1491 
Q 5372 1084 4381 672 
L 4381 353 
Q 4381 -28 4738 -28 
L 5000 -28 
Q 5275 -28 5365 90 
Q 5456 209 5531 953 
z
" transform="scale(0.015625)"/>
     <path id="MicrosoftYaHei-Bold-7ed3" d="M 2538 3128 
L 3850 3128 
L 3850 3809 
L 2472 3809 
L 2681 3709 
Q 1906 2528 1350 1784 
Q 1800 1841 2313 1891 
Q 2275 1466 2263 1116 
Q 894 966 400 834 
L 156 1534 
Q 553 1884 1100 2697 
Q 631 2663 288 2616 
L 56 3328 
Q 550 3934 1138 5366 
L 1963 5059 
Q 1469 4134 988 3397 
L 1563 3425 
L 1938 4066 
L 2350 3869 
L 2350 4553 
L 3850 4553 
L 3850 5341 
L 4725 5341 
L 4725 4553 
L 6288 4553 
L 6288 3809 
L 4725 3809 
L 4725 3128 
L 6100 3128 
L 6100 2384 
L 2538 2384 
L 2538 3128 
z
M 2594 -841 
L 2594 1847 
L 6025 1847 
L 6025 -841 
L 5188 -841 
L 5188 -472 
L 3431 -472 
L 3431 -841 
L 2594 -841 
z
M 5188 1084 
L 3431 1084 
L 3431 291 
L 5188 291 
L 5188 1084 
z
M 231 -516 
L 94 359 
Q 1175 497 2406 684 
Q 2369 159 2375 -184 
Q 1263 -341 231 -516 
z
" transform="scale(0.015625)"/>
     <path id="MicrosoftYaHei-Bold-6784" d="M 75 1709 
Q 550 2447 828 3353 
L 138 3353 
L 138 4091 
L 900 4091 
L 900 5303 
L 1713 5303 
L 1713 4091 
L 2313 4091 
L 2313 3756 
Q 2825 4431 3100 5278 
L 3963 5209 
Q 3850 4903 3719 4616 
L 6056 4616 
Q 6056 3244 6042 2212 
Q 6028 1181 6004 565 
Q 5981 -50 5714 -367 
Q 5447 -684 5051 -725 
Q 4656 -766 3675 -747 
Q 3588 -253 3494 122 
Q 4175 66 4600 66 
Q 4863 66 5023 206 
Q 5184 347 5191 822 
L 4775 609 
L 4644 878 
Q 3147 769 2444 622 
L 2188 1334 
Q 2669 1691 3388 3453 
L 4188 3128 
L 3206 1453 
L 4316 1525 
Q 4106 1928 3875 2347 
L 4519 2684 
Q 4866 2113 5209 1481 
Q 5231 2419 5231 3841 
L 3313 3841 
Q 2991 3297 2594 2822 
Q 2319 3125 2072 3353 
L 1713 3353 
L 1713 2991 
Q 2153 2594 2575 2191 
L 2031 1678 
Q 1872 1906 1713 2116 
L 1713 -822 
L 900 -822 
L 900 1816 
Q 647 1156 288 566 
Q 219 997 75 1709 
z
" transform="scale(0.015625)"/>
    </defs>
    <use xlink:href="#MicrosoftYaHei-Bold-5168"/>
    <use xlink:href="#MicrosoftYaHei-Bold-7403" transform="translate(100 0)"/>
    <use xlink:href="#MicrosoftYaHei-Bold-4d" transform="translate(200 0)"/>
    <use xlink:href="#MicrosoftYaHei-Bold-45" transform="translate(302.832031 0)"/>
    <use xlink:href="#MicrosoftYaHei-Bold-47" transform="translate(360.009766 0)"/>
    <use xlink:href="#MicrosoftYaHei-Bold-5de5" transform="translate(436.523438 0)"/>
    <use xlink:href="#MicrosoftYaHei-Bold-827a" transform="translate(536.523438 0)"/>
    <use xlink:href="#MicrosoftYaHei-Bold-8def" transform="translate(636.523438 0)"/>
    <use xlink:href="#MicrosoftYaHei-Bold-7ebf" transform="translate(736.523438 0)"/>
    <use xlink:href="#MicrosoftYaHei-Bold-4ea7" transform="translate(836.523438 0)"/>
    <use xlink:href="#MicrosoftYaHei-Bold-80fd" transform="translate(936.523438 0)"/>
    <use xlink:href="#MicrosoftYaHei-Bold-7ed3" transform="translate(1036.523438 0)"/>
    <use xlink:href="#MicrosoftYaHei-Bold-6784" transform="translate(1136.523438 0)"/>
   </g>
  </g>
  <g id="text_10">
   <!-- CIEC -->
   <g style="fill: #5a5a5a" transform="translate(1067.04 42.84) scale(0.28 -0.28)">
    <defs>
     <path id="MicrosoftYaHei-Bold-43" d="M 4013 175 
Q 3484 -84 2634 -84 
Q 1541 -84 898 570 
Q 256 1225 256 2316 
Q 256 3463 973 4192 
Q 1691 4922 2825 4922 
Q 3534 4922 4013 4738 
L 4013 3741 
Q 3522 4028 2900 4028 
Q 2191 4028 1766 3575 
Q 1341 3122 1341 2391 
Q 1341 1678 1744 1243 
Q 2147 809 2834 809 
Q 3481 809 4013 1122 
L 4013 175 
z
" transform="scale(0.015625)"/>
     <path id="MicrosoftYaHei-Bold-49" d="M 1588 4841 
L 1588 0 
L 556 0 
L 556 4841 
L 1588 4841 
z
" transform="scale(0.015625)"/>
    </defs>
    <use xlink:href="#MicrosoftYaHei-Bold-43"/>
    <use xlink:href="#MicrosoftYaHei-Bold-49" transform="translate(67.333984 0)"/>
    <use xlink:href="#MicrosoftYaHei-Bold-45" transform="translate(100.878906 0)"/>
    <use xlink:href="#MicrosoftYaHei-Bold-43" transform="translate(158.056641 0)"/>
   </g>
  </g>
  <g id="text_11">
   <!-- 结构解读 -->
   <g style="fill: #2f3b46" transform="translate(64.8 240.48) scale(0.22 -0.22)">
    <defs>
     <path id="MicrosoftYaHei-Bold-89e3" d="M 3188 953 
L 4475 953 
L 4475 1641 
L 3888 1641 
Q 3769 1331 3619 1078 
Q 3288 1263 3013 1381 
L 3013 47 
Q 3013 -316 2888 -517 
Q 2763 -719 2517 -758 
Q 2272 -797 1963 -797 
L 1884 -403 
L 1406 -403 
L 1406 778 
L 1034 778 
Q 941 -281 656 -897 
Q 350 -516 69 -259 
Q 419 541 419 2078 
L 419 3113 
Q 359 3053 300 2997 
Q 225 3403 81 3866 
Q 725 4522 1075 5359 
L 1838 5259 
Q 1759 5072 1672 4891 
L 2806 4891 
L 2806 4303 
L 2488 3734 
L 3013 3734 
L 3013 1541 
Q 3384 2147 3488 2803 
L 4169 2709 
Q 4134 2513 4091 2328 
L 4475 2328 
L 4475 2853 
L 5263 2853 
L 5263 2328 
L 6131 2328 
L 6131 1641 
L 5263 1641 
L 5263 953 
L 6281 953 
L 6281 266 
L 5263 266 
L 5263 -822 
L 4475 -822 
L 4475 266 
L 3188 266 
L 3188 953 
z
M 963 3734 
L 1697 3734 
L 2000 4278 
L 1338 4278 
Q 1166 3997 963 3734 
z
M 2363 3134 
L 2006 3134 
L 2006 2541 
L 2363 2541 
L 2363 3134 
z
M 1081 2541 
L 1406 2541 
L 1406 3134 
L 1081 3134 
L 1081 2541 
z
M 2006 1366 
L 2363 1366 
L 2363 1953 
L 2006 1953 
L 2006 1366 
z
M 1072 1366 
L 1406 1366 
L 1406 1953 
L 1081 1953 
Q 1081 1909 1072 1366 
z
M 2363 778 
L 2006 778 
L 2006 -81 
Q 2231 -91 2297 -22 
Q 2363 47 2363 247 
L 2363 778 
z
M 4581 2978 
Q 4522 3366 4416 3697 
Q 4206 3203 3581 2816 
Q 3338 3153 3019 3484 
Q 3725 3841 3775 4416 
L 3194 4416 
L 3194 5097 
L 6119 5097 
Q 6103 3772 5973 3492 
Q 5844 3213 5614 3095 
Q 5384 2978 4581 2978 
z
M 4428 3725 
Q 4741 3709 4894 3709 
Q 5122 3709 5198 3821 
Q 5275 3934 5275 4416 
L 4581 4416 
Q 4544 4019 4428 3725 
z
" transform="scale(0.015625)"/>
     <path id="MicrosoftYaHei-Bold-8bfb" d="M 6256 703 
L 4550 703 
Q 4538 678 4525 653 
Q 5419 259 6350 -184 
L 5913 -891 
Q 5025 -397 4094 72 
Q 3500 -553 2206 -897 
Q 1919 -397 1694 -66 
Q 3094 147 3600 703 
L 1981 703 
Q 2000 459 2031 222 
Q 1350 -284 900 -734 
L 463 -141 
Q 625 28 625 384 
L 625 2491 
L 100 2491 
L 100 3303 
L 1463 3303 
L 1463 759 
Q 1694 947 1856 1103 
L 1856 1397 
L 2944 1397 
Q 2431 1591 1856 1753 
L 2106 2272 
Q 2656 2128 3475 1847 
L 3244 1397 
L 3869 1397 
Q 4019 1959 4019 2909 
L 4869 2909 
Q 4869 2028 4713 1397 
L 6256 1397 
L 6256 703 
z
M 6300 3728 
L 6300 3059 
L 6088 2166 
L 5300 2284 
L 5544 3022 
L 2656 3022 
Q 3144 2866 3794 2622 
L 3494 2059 
Q 2931 2316 2238 2547 
L 2488 3022 
L 1788 3022 
L 1788 3728 
L 3619 3728 
L 3619 4122 
L 2069 4122 
L 2069 4809 
L 3619 4809 
L 3619 5316 
L 4481 5316 
L 4481 4809 
L 6056 4809 
L 6056 4122 
L 4481 4122 
L 4481 3728 
L 6300 3728 
z
M 938 5247 
Q 1369 4684 1744 4103 
Q 1456 3922 1013 3666 
Q 663 4303 263 4853 
L 938 5247 
z
" transform="scale(0.015625)"/>
    </defs>
    <use xlink:href="#MicrosoftYaHei-Bold-7ed3"/>
    <use xlink:href="#MicrosoftYaHei-Bold-6784" transform="translate(100 0)"/>
    <use xlink:href="#MicrosoftYaHei-Bold-89e3" transform="translate(200 0)"/>
    <use xlink:href="#MicrosoftYaHei-Bold-8bfb" transform="translate(300 0)"/>
   </g>
  </g>
  <g id="text_12">
   <!-- - 油头约50%，主要在东北亚与欧洲 -->
   <g style="fill: #1f2a33" transform="translate(64.8 292.32) scale(0.17 -0.17)">
    <defs>
     <path id="MicrosoftYaHei-2d" d="M 2328 1681 
L 488 1681 
L 488 2153 
L 2328 2153 
L 2328 1681 
z
" transform="scale(0.015625)"/>
     <path id="MicrosoftYaHei-20" transform="scale(0.015625)"/>
     <path id="MicrosoftYaHei-7ea6" d="M 2269 2884 
Q 3056 4047 3463 5341 
L 3981 5197 
Q 3794 4731 3613 4322 
L 6056 4322 
Q 5969 1472 5913 316 
Q 5856 -678 4850 -678 
Q 4263 -678 3600 -641 
Q 3556 -397 3488 -78 
Q 4200 -166 4794 -166 
Q 5369 -166 5394 441 
Q 5463 1322 5519 3853 
L 3394 3853 
Q 3053 3153 2719 2641 
Q 2519 2759 2269 2884 
z
M 981 1534 
Q 1938 1666 2556 1766 
Q 2513 1516 2500 1291 
Q 1481 1153 413 978 
L 300 1441 
Q 772 1922 1309 2766 
Q 597 2722 244 2691 
L 125 3116 
Q 813 4028 1394 5347 
L 1869 5159 
Q 1275 4016 688 3153 
Q 1150 3163 1566 3178 
Q 1813 3591 2075 4078 
L 2538 3847 
Q 1731 2509 981 1534 
z
M 113 97 
Q 1488 278 2669 484 
Q 2644 234 2631 -3 
Q 1619 -128 225 -391 
L 113 97 
z
M 3144 2584 
L 3544 2847 
Q 4144 2078 4600 1403 
L 4131 1103 
Q 3713 1791 3144 2584 
z
" transform="scale(0.015625)"/>
     <path id="MicrosoftYaHei-ff0c" d="M 1931 775 
L 1403 -891 
L 966 -891 
L 1350 775 
L 1931 775 
z
" transform="scale(0.015625)"/>
     <path id="MicrosoftYaHei-4e3b" d="M 150 9 
L 2931 9 
L 2931 1809 
L 644 1809 
L 644 2284 
L 2931 2284 
L 2931 3709 
L 400 3709 
L 400 4184 
L 5975 4184 
L 5975 3709 
L 3469 3709 
L 3469 2284 
L 5756 2284 
L 5756 1809 
L 3469 1809 
L 3469 9 
L 6250 9 
L 6250 -453 
L 150 -453 
L 150 9 
z
M 2694 5109 
L 3156 5347 
Q 3538 4778 3706 4466 
L 3213 4203 
Q 2875 4828 2694 5109 
z
" transform="scale(0.015625)"/>
     <path id="MicrosoftYaHei-8981" d="M 613 3978 
L 2181 3978 
L 2181 4659 
L 313 4659 
L 313 5084 
L 6088 5084 
L 6088 4659 
L 4213 4659 
L 4213 3978 
L 5781 3978 
L 5781 2116 
L 5319 2116 
L 5319 2353 
L 1075 2353 
L 1075 2116 
L 613 2116 
L 613 3978 
z
M 94 1741 
L 1959 1741 
Q 2150 2038 2319 2341 
L 2800 2147 
Q 2663 1941 2528 1741 
L 6300 1741 
L 6300 1316 
L 4856 1316 
Q 4497 681 3925 247 
Q 4853 -31 5875 -347 
L 5600 -834 
Q 4550 -469 3394 -81 
Q 2300 -650 531 -872 
Q 419 -641 288 -391 
Q 1809 -253 2750 134 
Q 1991 388 1188 653 
Q 1447 981 1675 1316 
L 94 1316 
L 94 1741 
z
M 1900 853 
Q 2584 650 3328 428 
Q 3938 797 4269 1316 
L 2231 1316 
Q 2066 1078 1900 853 
z
M 2644 2753 
L 3750 2753 
L 3750 3578 
L 2644 3578 
L 2644 2753 
z
M 5319 3578 
L 4213 3578 
L 4213 2753 
L 5319 2753 
L 5319 3578 
z
M 1075 2753 
L 2181 2753 
L 2181 3578 
L 1075 3578 
L 1075 2753 
z
M 2644 3978 
L 3750 3978 
L 3750 4659 
L 2644 4659 
L 2644 3978 
z
" transform="scale(0.015625)"/>
     <path id="MicrosoftYaHei-5728" d="M 250 4553 
L 2088 4553 
Q 2241 4931 2363 5328 
L 2881 5197 
Q 2772 4869 2647 4553 
L 6275 4553 
L 6275 4091 
L 2450 4091 
Q 2078 3256 1581 2519 
L 1581 -791 
L 1094 -791 
L 1094 1853 
Q 756 1431 375 1047 
Q 244 1266 75 1497 
Q 1225 2691 1884 4091 
L 250 4091 
L 250 4553 
z
M 1800 109 
L 3756 109 
L 3756 1978 
L 2131 1978 
L 2131 2428 
L 3756 2428 
L 3756 3684 
L 4269 3684 
L 4269 2428 
L 5919 2428 
L 5919 1978 
L 4269 1978 
L 4269 109 
L 6275 109 
L 6275 -328 
L 1800 -328 
L 1800 109 
z
" transform="scale(0.015625)"/>
     <path id="MicrosoftYaHei-4e1c" d="M 706 1884 
L 706 2359 
L 1422 4022 
L 194 4022 
L 194 4497 
L 1625 4497 
L 1994 5353 
L 2531 5241 
L 2206 4497 
L 6206 4497 
L 6206 4022 
L 2000 4022 
L 1275 2359 
L 3156 2359 
L 3156 3728 
L 3681 3728 
L 3681 2359 
L 5913 2359 
L 5913 1884 
L 3681 1884 
L 3681 41 
Q 3681 -741 2869 -741 
Q 2456 -741 1931 -734 
Q 1894 -491 1838 -172 
Q 2250 -225 2725 -228 
Q 3156 -231 3156 216 
L 3156 1884 
L 706 1884 
z
M 1619 1509 
L 2038 1191 
Q 1325 353 413 -534 
Q 250 -359 56 -184 
Q 888 603 1619 1509 
z
M 4288 1091 
L 4638 1434 
Q 5500 722 6363 -59 
L 5975 -453 
Q 5119 391 4288 1091 
z
" transform="scale(0.015625)"/>
     <path id="MicrosoftYaHei-5317" d="M 3763 5247 
L 4269 5247 
L 4269 3131 
Q 5122 3569 5863 4091 
L 6175 3641 
Q 5500 3216 4269 2600 
L 4269 303 
Q 4269 -122 4738 -122 
L 5175 -122 
Q 5625 -122 5681 303 
Q 5738 697 5781 1328 
Q 6056 1216 6313 1128 
Q 6250 534 6175 116 
Q 6056 -597 5294 -597 
L 4619 -597 
Q 3763 -597 3763 247 
L 3763 5247 
z
M 81 309 
Q 897 591 2013 1047 
L 2013 3016 
L 213 3016 
L 213 3478 
L 2013 3478 
L 2013 5234 
L 2519 5234 
L 2519 -772 
L 2013 -772 
L 2013 525 
Q 1413 281 281 -184 
L 81 309 
z
" transform="scale(0.015625)"/>
     <path id="MicrosoftYaHei-4e9a" d="M 106 47 
L 2125 47 
L 2125 4428 
L 350 4428 
L 350 4903 
L 6063 4903 
L 6063 4428 
L 4269 4428 
L 4269 47 
L 6294 47 
L 6294 -416 
L 106 -416 
L 106 47 
z
M 2650 47 
L 3744 47 
L 3744 4428 
L 2650 4428 
L 2650 47 
z
M 4494 1178 
Q 4994 2197 5519 3691 
L 6025 3491 
Q 5444 1978 4944 972 
L 4494 1178 
z
M 900 3703 
Q 1431 2447 1869 1234 
L 1350 1003 
Q 938 2309 450 3503 
L 900 3703 
z
" transform="scale(0.015625)"/>
     <path id="MicrosoftYaHei-4e0e" d="M 1163 2384 
L 1163 2859 
L 1413 5328 
L 1931 5328 
L 1834 4334 
L 6269 4334 
L 6269 3859 
L 1791 3859 
L 1694 2859 
L 5813 2859 
Q 5738 1547 5644 416 
Q 5556 -247 5263 -478 
Q 4981 -703 4322 -703 
Q 3706 -697 2900 -678 
Q 2863 -466 2794 -134 
Q 3744 -203 4213 -209 
Q 5050 -266 5125 447 
Q 5206 1278 5263 2384 
L 1163 2384 
z
M 106 1409 
L 4738 1409 
L 4738 934 
L 106 934 
L 106 1409 
z
" transform="scale(0.015625)"/>
     <path id="MicrosoftYaHei-6b27" d="M 400 4791 
L 3038 4791 
L 3038 4328 
L 863 4328 
L 863 316 
L 2925 316 
L 2925 -147 
L 400 -147 
L 400 4791 
z
M 4306 3684 
L 4775 3684 
Q 4778 3250 4763 2891 
Q 4997 391 6319 -378 
Q 6119 -597 5931 -809 
Q 4888 -47 4569 1653 
Q 4247 84 2969 -841 
Q 2775 -597 2625 -434 
Q 4088 553 4275 2372 
Q 4306 2734 4306 3684 
z
M 5306 2709 
Q 5563 3509 5706 3991 
L 3950 3991 
Q 3700 3203 3400 2547 
Q 3200 2653 2981 2741 
Q 3538 3916 3813 5316 
L 4288 5222 
Q 4194 4825 4088 4453 
L 6194 4453 
L 6194 3966 
Q 5988 3309 5763 2572 
Q 5519 2659 5306 2709 
z
M 1100 3603 
L 1475 3809 
Q 1797 3294 2078 2841 
Q 2359 3431 2606 4028 
L 3044 3828 
Q 2697 3050 2363 2384 
Q 2856 1588 3213 1009 
L 2794 759 
Q 2484 1294 2119 1906 
Q 1769 1244 1438 709 
Q 1244 834 1056 928 
Q 1478 1644 1844 2366 
Q 1497 2953 1100 3603 
z
" transform="scale(0.015625)"/>
     <path id="MicrosoftYaHei-6d32" d="M 819 1809 
Q 1050 1709 1300 1622 
Q 1025 503 738 -772 
L 219 -603 
Q 594 603 819 1809 
z
M 663 5191 
Q 1200 4772 1681 4328 
Q 1488 4122 1325 3953 
Q 725 4553 363 4859 
L 663 5191 
z
M 375 3609 
Q 888 3253 1369 2847 
Q 1163 2609 1031 2459 
Q 569 2897 88 3272 
L 375 3609 
z
M 2469 5178 
L 2931 5178 
L 2931 3222 
Q 2938 1509 2688 766 
Q 2444 -59 1663 -828 
Q 1500 -641 1300 -434 
Q 1981 197 2238 997 
Q 2469 1691 2469 3197 
L 2469 5178 
z
M 5513 5184 
L 5981 5184 
L 5981 -772 
L 5513 -772 
L 5513 5184 
z
M 4019 4953 
L 4481 4953 
L 4481 -403 
L 4019 -403 
L 4019 4953 
z
M 4563 3328 
L 4925 3453 
Q 5156 2778 5381 2053 
L 4969 1916 
Q 4794 2634 4563 3328 
z
M 3044 3372 
L 3413 3497 
Q 3656 2841 3881 2097 
L 3469 1966 
Q 3281 2691 3044 3372 
z
M 1869 3522 
L 2294 3403 
Q 2063 2534 1806 1841 
Q 1619 1916 1388 1991 
Q 1700 2716 1869 3522 
z
" transform="scale(0.015625)"/>
    </defs>
    <use xlink:href="#MicrosoftYaHei-2d"/>
    <use xlink:href="#MicrosoftYaHei-20" transform="translate(43.261719 0)"/>
    <use xlink:href="#MicrosoftYaHei-6cb9" transform="translate(72.851562 0)"/>
    <use xlink:href="#MicrosoftYaHei-5934" transform="translate(172.851562 0)"/>
    <use xlink:href="#MicrosoftYaHei-7ea6" transform="translate(272.851562 0)"/>
    <use xlink:href="#MicrosoftYaHei-35" transform="translate(372.851562 0)"/>
    <use xlink:href="#MicrosoftYaHei-30" transform="translate(431.494141 0)"/>
    <use xlink:href="#MicrosoftYaHei-25" transform="translate(490.136719 0)"/>
    <use xlink:href="#MicrosoftYaHei-ff0c" transform="translate(579.101562 0)"/>
    <use xlink:href="#MicrosoftYaHei-4e3b" transform="translate(679.101562 0)"/>
    <use xlink:href="#MicrosoftYaHei-8981" transform="translate(779.101562 0)"/>
    <use xlink:href="#MicrosoftYaHei-5728" transform="translate(879.101562 0)"/>
    <use xlink:href="#MicrosoftYaHei-4e1c" transform="translate(979.101562 0)"/>
    <use xlink:href="#MicrosoftYaHei-5317" transform="translate(1079.101562 0)"/>
    <use xlink:href="#MicrosoftYaHei-4e9a" transform="translate(1179.101562 0)"/>
    <use xlink:href="#MicrosoftYaHei-4e0e" transform="translate(1279.101562 0)"/>
    <use xlink:href="#MicrosoftYaHei-6b27" transform="translate(1379.101562 0)"/>
    <use xlink:href="#MicrosoftYaHei-6d32" transform="translate(1479.101562 0)"/>
   </g>
  </g>
  <g id="text_13">
   <!-- - 气头约26%，集中中东和北美，成本优势突出 -->
   <g style="fill: #1f2a33" transform="translate(64.8 337.68) scale(0.17 -0.17)">
    <defs>
     <path id="MicrosoftYaHei-96c6" d="M 3056 5134 
L 3425 5359 
Q 3719 5034 3906 4722 
L 3619 4541 
L 6013 4541 
L 6013 4153 
L 3644 4153 
L 3644 3709 
L 5738 3709 
L 5738 3347 
L 3644 3347 
L 3644 2903 
L 5738 2903 
L 5738 2541 
L 3644 2541 
L 3644 2084 
L 6031 2084 
L 6031 1697 
L 1475 1697 
L 1475 1459 
L 1038 1459 
L 1038 3684 
Q 716 3309 381 3009 
Q 281 3191 81 3422 
Q 988 4178 1613 5284 
L 2044 5091 
Q 1869 4803 1688 4541 
L 3456 4541 
Q 3288 4825 3056 5134 
z
M 288 1141 
L 2981 1141 
L 2981 1566 
L 3419 1566 
L 3419 1141 
L 6106 1141 
L 6106 741 
L 3906 741 
Q 5000 -31 6338 -303 
Q 6169 -566 6044 -766 
Q 4519 -325 3419 631 
L 3419 -834 
L 2981 -834 
L 2981 638 
Q 1844 -313 356 -778 
Q 225 -584 63 -384 
Q 1406 -56 2475 741 
L 288 741 
L 288 1141 
z
M 1475 2084 
L 3206 2084 
L 3206 2541 
L 1475 2541 
L 1475 2084 
z
M 1475 2903 
L 3206 2903 
L 3206 3347 
L 1475 3347 
L 1475 2903 
z
M 1475 3709 
L 3206 3709 
L 3206 4153 
L 1475 4153 
L 1475 3709 
z
" transform="scale(0.015625)"/>
     <path id="MicrosoftYaHei-4e2d" d="M 525 3972 
L 2931 3972 
L 2931 5334 
L 3469 5334 
L 3469 3972 
L 5900 3972 
L 5900 1122 
L 5388 1122 
L 5388 1459 
L 3469 1459 
L 3469 -866 
L 2931 -866 
L 2931 1459 
L 1038 1459 
L 1038 1122 
L 525 1122 
L 525 3972 
z
M 5388 3509 
L 3469 3509 
L 3469 1922 
L 5388 1922 
L 5388 3509 
z
M 1038 1922 
L 2931 1922 
L 2931 3509 
L 1038 3509 
L 1038 1922 
z
" transform="scale(0.015625)"/>
     <path id="MicrosoftYaHei-548c" d="M 3263 4553 
L 6025 4553 
L 6025 -666 
L 5525 -666 
L 5525 -59 
L 3763 -59 
L 3763 -666 
L 3263 -666 
L 3263 4553 
z
M 5525 4091 
L 3763 4091 
L 3763 391 
L 5525 391 
L 5525 4091 
z
M 75 897 
Q 788 1841 1206 2997 
L 113 2997 
L 113 3422 
L 1306 3422 
L 1306 4409 
Q 819 4334 319 4272 
Q 263 4478 181 4703 
Q 1481 4847 2700 5128 
L 2844 4691 
Q 2325 4584 1781 4491 
L 1781 3422 
L 2950 3422 
L 2950 2997 
L 1781 2997 
L 1781 2191 
L 2006 2416 
Q 2500 1991 2975 1516 
L 2619 1153 
Q 2244 1584 1781 2034 
L 1781 -872 
L 1306 -872 
L 1306 2128 
Q 938 1203 313 359 
Q 213 603 75 897 
z
" transform="scale(0.015625)"/>
     <path id="MicrosoftYaHei-7f8e" d="M 150 2403 
L 2956 2403 
L 2956 2991 
L 663 2991 
L 663 3416 
L 2956 3416 
L 2956 3991 
L 288 3991 
L 288 4416 
L 2259 4416 
Q 1938 4694 1425 5084 
L 1713 5397 
Q 2256 5028 2619 4753 
L 2288 4416 
L 3950 4416 
L 3719 4678 
Q 4213 5022 4613 5372 
L 4981 5022 
Q 4581 4722 4116 4416 
L 6150 4416 
L 6150 3991 
L 3469 3991 
L 3469 3416 
L 5813 3416 
L 5813 2991 
L 3469 2991 
L 3469 2403 
L 6263 2403 
L 6263 1978 
L 150 1978 
L 150 2403 
z
M 6313 -303 
Q 6075 -622 5950 -822 
Q 3897 -419 3216 803 
Q 2606 -488 406 -872 
Q 281 -659 100 -397 
Q 2200 -106 2741 916 
L 238 916 
L 238 1341 
L 2913 1341 
Q 2975 1559 3013 1841 
L 3525 1841 
Q 3475 1566 3413 1341 
L 6200 1341 
L 6200 916 
L 3631 916 
Q 4363 -138 6313 -303 
z
" transform="scale(0.015625)"/>
     <path id="MicrosoftYaHei-6210" d="M 2750 -347 
Q 3472 138 4038 781 
Q 3675 1703 3609 3759 
L 1250 3759 
L 1250 2809 
L 3050 2809 
Q 3013 1616 2950 803 
Q 2875 -59 2113 -59 
Q 1856 -59 1431 -34 
Q 1394 197 1331 484 
Q 1769 422 2063 422 
Q 2425 422 2469 922 
Q 2519 1497 2544 2347 
L 1247 2347 
Q 1197 175 369 -866 
Q 213 -653 44 -434 
Q 750 503 750 2528 
L 750 4222 
L 3591 4222 
Q 3569 4716 3550 5291 
L 4069 5291 
Q 4066 4850 4084 4222 
L 6238 4222 
L 6238 3759 
L 4100 3759 
Q 4163 2078 4409 1247 
Q 5016 2069 5406 3109 
L 5900 2903 
Q 5363 1631 4609 691 
Q 5069 -244 5506 -244 
Q 5666 -244 5750 47 
Q 5838 503 5888 984 
Q 6156 878 6363 809 
Q 6269 141 6156 -284 
Q 6038 -741 5631 -778 
Q 5250 -803 4900 -522 
Q 4522 -231 4256 278 
Q 3728 -291 3106 -722 
Q 2944 -534 2750 -347 
z
M 4544 4984 
L 4806 5309 
Q 5331 5009 5788 4684 
L 5488 4309 
Q 5038 4666 4544 4984 
z
" transform="scale(0.015625)"/>
     <path id="MicrosoftYaHei-672c" d="M 6281 803 
Q 6119 641 5856 366 
Q 4344 1531 3444 3353 
L 3444 878 
L 4875 878 
L 4875 441 
L 3444 441 
L 3444 -841 
L 2956 -841 
L 2956 441 
L 1475 441 
L 1475 878 
L 2956 878 
L 2956 3353 
Q 2159 1766 513 291 
Q 269 522 100 666 
Q 1878 2125 2759 3753 
L 238 3753 
L 238 4216 
L 2956 4216 
L 2956 5341 
L 3444 5341 
L 3444 4216 
L 6163 4216 
L 6163 3753 
L 3622 3753 
Q 4616 1884 6281 803 
z
" transform="scale(0.015625)"/>
     <path id="MicrosoftYaHei-4f18" d="M 1825 3609 
L 3184 3609 
Q 3216 4322 3213 5272 
L 3713 5272 
Q 3719 4338 3688 3609 
L 6188 3609 
L 6188 3153 
L 4475 3153 
L 4475 228 
Q 4475 -122 4838 -122 
L 5244 -122 
Q 5656 -122 5700 303 
Q 5750 659 5781 1266 
Q 6031 1166 6294 1066 
Q 6244 528 6175 109 
Q 6100 -291 5900 -447 
Q 5713 -603 5275 -597 
L 4763 -597 
Q 4325 -597 4150 -422 
Q 3969 -259 3969 184 
L 3969 3153 
L 3663 3153 
Q 3600 791 1950 -803 
Q 1775 -597 1575 -397 
Q 3100 1028 3159 3153 
L 1825 3153 
L 1825 3609 
z
M 88 2334 
Q 1056 3641 1556 5291 
L 2063 5122 
Q 1753 4253 1388 3522 
L 1388 -809 
L 913 -809 
L 913 2666 
Q 616 2184 288 1778 
Q 194 2047 88 2334 
z
M 4600 5184 
Q 5269 4759 5713 4391 
Q 5538 4197 5388 3991 
Q 4875 4447 4325 4841 
L 4600 5184 
z
" transform="scale(0.015625)"/>
     <path id="MicrosoftYaHei-52bf" d="M 531 1472 
L 2522 1472 
Q 2544 1653 2544 1859 
L 3031 1859 
Q 3025 1656 3006 1472 
L 5550 1472 
Q 5506 709 5450 128 
Q 5375 -666 4475 -672 
Q 4019 -678 3269 -659 
Q 3231 -397 3163 -116 
Q 3906 -178 4463 -178 
Q 4925 -178 4969 222 
Q 5006 516 5038 1047 
L 2934 1047 
Q 2784 388 2400 28 
Q 1806 -541 469 -853 
Q 344 -647 169 -391 
Q 1519 -116 2031 372 
Q 2313 622 2438 1047 
L 531 1047 
L 531 1472 
z
M 2663 3347 
L 2881 3697 
Q 3144 3566 3388 3441 
Q 3472 3706 3500 4097 
L 2819 4097 
L 2819 4522 
L 3513 4522 
L 3513 5347 
L 3963 5347 
L 3963 4522 
L 5288 4522 
Q 5288 3303 5350 2853 
Q 5419 2347 5625 2347 
Q 5744 2347 5800 2641 
Q 5850 2928 5869 3322 
Q 6088 3228 6306 3153 
Q 6275 2772 6225 2509 
Q 6100 1816 5613 1816 
Q 5056 1816 4919 2584 
Q 4838 3066 4838 4097 
L 3950 4097 
Q 3922 3575 3806 3216 
Q 4247 2969 4606 2741 
L 4338 2322 
Q 4000 2559 3613 2797 
Q 3291 2284 2344 1772 
Q 2206 1978 2019 2172 
Q 2891 2600 3194 3047 
Q 2938 3197 2663 3347 
z
M 250 3184 
Q 616 3244 1313 3378 
L 1313 4041 
L 313 4041 
L 313 4466 
L 1313 4466 
L 1313 5353 
L 1763 5353 
L 1763 4466 
L 2513 4466 
L 2513 4041 
L 1763 4041 
L 1763 3469 
Q 2109 3538 2525 3622 
Q 2538 3284 2544 3178 
Q 2147 3100 1763 3022 
L 1763 2384 
Q 1763 1766 1163 1759 
Q 894 1753 500 1766 
Q 475 2016 425 2222 
Q 831 2191 1075 2191 
Q 1313 2191 1313 2441 
L 1313 2925 
Q 828 2819 363 2709 
L 250 3184 
z
" transform="scale(0.015625)"/>
     <path id="MicrosoftYaHei-7a81" d="M 119 -378 
Q 2309 91 2763 1453 
L 275 1453 
L 275 1903 
L 2856 1903 
Q 2888 2272 2894 3022 
L 3406 3022 
Q 3406 2316 3363 1903 
L 6150 1903 
L 6150 1453 
L 3528 1453 
Q 4397 94 6313 -253 
Q 6100 -541 5956 -772 
Q 4059 -309 3181 1147 
Q 2600 -347 444 -853 
Q 325 -659 119 -378 
z
M 369 4472 
L 3147 4472 
Q 2972 4809 2756 5141 
L 3238 5359 
Q 3475 5003 3669 4641 
L 3322 4472 
L 6038 4472 
L 6038 3422 
L 5531 3422 
L 5531 4022 
L 869 4022 
L 869 3397 
L 369 3397 
L 369 4472 
z
M 3944 3778 
Q 5163 3278 6238 2722 
L 5988 2259 
Q 4788 2934 3706 3416 
L 3944 3778 
z
M 2413 3784 
L 2713 3422 
Q 1613 2778 450 2303 
Q 331 2491 156 2709 
Q 1163 3066 2413 3784 
z
M 3725 2678 
L 4025 2978 
Q 4550 2597 4838 2347 
L 4488 2016 
Q 4188 2309 3725 2678 
z
" transform="scale(0.015625)"/>
     <path id="MicrosoftYaHei-51fa" d="M 5100 2172 
L 5100 2403 
L 3456 2403 
L 3456 -47 
L 5288 -47 
L 5288 1734 
L 5813 1734 
L 5813 -747 
L 5288 -747 
L 5288 -522 
L 588 -522 
L 588 1734 
L 1119 1734 
L 1119 -47 
L 2913 -47 
L 2913 2403 
L 756 2403 
L 756 4647 
L 1288 4647 
L 1288 2878 
L 2913 2878 
L 2913 5222 
L 3456 5222 
L 3456 2878 
L 5100 2878 
L 5100 4647 
L 5631 4647 
L 5631 2172 
L 5100 2172 
z
" transform="scale(0.015625)"/>
    </defs>
    <use xlink:href="#MicrosoftYaHei-2d"/>
    <use xlink:href="#MicrosoftYaHei-20" transform="translate(43.261719 0)"/>
    <use xlink:href="#MicrosoftYaHei-6c14" transform="translate(72.851562 0)"/>
    <use xlink:href="#MicrosoftYaHei-5934" transform="translate(172.851562 0)"/>
    <use xlink:href="#MicrosoftYaHei-7ea6" transform="translate(272.851562 0)"/>
    <use xlink:href="#MicrosoftYaHei-32" transform="translate(372.851562 0)"/>
    <use xlink:href="#MicrosoftYaHei-36" transform="translate(431.494141 0)"/>
    <use xlink:href="#MicrosoftYaHei-25" transform="translate(490.136719 0)"/>
    <use xlink:href="#MicrosoftYaHei-ff0c" transform="translate(579.101562 0)"/>
    <use xlink:href="#MicrosoftYaHei-96c6" transform="translate(679.101562 0)"/>
    <use xlink:href="#MicrosoftYaHei-4e2d" transform="translate(779.101562 0)"/>
    <use xlink:href="#MicrosoftYaHei-4e2d" transform="translate(879.101562 0)"/>
    <use xlink:href="#MicrosoftYaHei-4e1c" transform="translate(979.101562 0)"/>
    <use xlink:href="#MicrosoftYaHei-548c" transform="translate(1079.101562 0)"/>
    <use xlink:href="#MicrosoftYaHei-5317" transform="translate(1179.101562 0)"/>
    <use xlink:href="#MicrosoftYaHei-7f8e" transform="translate(1279.101562 0)"/>
    <use xlink:href="#MicrosoftYaHei-ff0c" transform="translate(1379.101562 0)"/>
    <use xlink:href="#MicrosoftYaHei-6210" transform="translate(1479.101562 0)"/>
    <use xlink:href="#MicrosoftYaHei-672c" transform="translate(1579.101562 0)"/>
    <use xlink:href="#MicrosoftYaHei-4f18" transform="translate(1679.101562 0)"/>
    <use xlink:href="#MicrosoftYaHei-52bf" transform="translate(1779.101562 0)"/>
    <use xlink:href="#MicrosoftYaHei-7a81" transform="translate(1879.101562 0)"/>
    <use xlink:href="#MicrosoftYaHei-51fa" transform="translate(1979.101562 0)"/>
   </g>
  </g>
  <g id="text_14">
   <!-- - 煤头约17%，高度集中在中国 -->
   <g style="fill: #1f2a33" transform="translate(64.8 383.04) scale(0.17 -0.17)">
    <defs>
     <path id="MicrosoftYaHei-9ad8" d="M 1194 3922 
L 5250 3922 
L 5250 2397 
L 4775 2397 
L 4775 2597 
L 1669 2597 
L 1669 2403 
L 1194 2403 
L 1194 3922 
z
M 969 -784 
L 494 -784 
L 494 2147 
L 5956 2147 
L 5956 22 
Q 5956 -747 5231 -747 
Q 4825 -747 4319 -734 
Q 4281 -522 4219 -241 
Q 4794 -284 5100 -284 
Q 5481 -284 5481 97 
L 5481 1747 
L 969 1747 
L 969 -784 
z
M 1813 1334 
L 4638 1334 
L 4638 28 
L 2263 28 
L 2263 -241 
L 1813 -241 
L 1813 1334 
z
M 125 4747 
L 2988 4747 
Q 2850 5013 2725 5216 
L 3194 5403 
Q 3372 5094 3541 4747 
L 6275 4747 
L 6275 4334 
L 125 4334 
L 125 4747 
z
M 4775 3534 
L 1669 3534 
L 1669 2984 
L 4775 2984 
L 4775 3534 
z
M 4188 416 
L 4188 947 
L 2263 947 
L 2263 416 
L 4188 416 
z
" transform="scale(0.015625)"/>
     <path id="MicrosoftYaHei-5ea6" d="M 1550 1216 
L 1550 1628 
L 5469 1628 
L 5469 1222 
Q 4903 613 4147 163 
Q 5050 -200 6263 -309 
L 6019 -797 
Q 4625 -603 3644 -109 
Q 2600 -619 1250 -866 
Q 1150 -666 994 -416 
Q 2231 -222 3166 166 
Q 2497 600 2066 1216 
L 1550 1216 
z
M 1363 3541 
L 2294 3541 
L 2294 4066 
L 2769 4066 
L 2769 3541 
L 4538 3541 
L 4538 4072 
L 5013 4072 
L 5013 3541 
L 6150 3541 
L 6150 3128 
L 5013 3128 
L 5013 1928 
L 4538 1928 
L 4538 2147 
L 2769 2147 
L 2769 1922 
L 2294 1922 
L 2294 3128 
L 1363 3128 
L 1363 3541 
z
M 3025 5172 
L 3481 5391 
Q 3694 5056 3909 4634 
L 6213 4634 
L 6213 4197 
L 1225 4197 
L 1225 2316 
Q 1225 178 394 -872 
Q 238 -666 38 -447 
Q 725 397 738 2347 
L 738 4634 
L 3331 4634 
Q 3188 4909 3025 5172 
z
M 2769 2547 
L 4538 2547 
L 4538 3128 
L 2769 3128 
L 2769 2547 
z
M 4819 1216 
L 2588 1216 
Q 3031 728 3656 391 
Q 4334 741 4819 1216 
z
" transform="scale(0.015625)"/>
     <path id="MicrosoftYaHei-56fd" d="M 469 4997 
L 5938 4997 
L 5938 -834 
L 5456 -834 
L 5456 -522 
L 950 -522 
L 950 -841 
L 469 -841 
L 469 4997 
z
M 5456 4553 
L 950 4553 
L 950 -78 
L 5456 -78 
L 5456 4553 
z
M 1238 1009 
L 2963 1009 
L 2963 2247 
L 1456 2247 
L 1456 2672 
L 2963 2672 
L 2963 3509 
L 1338 3509 
L 1338 3934 
L 5063 3934 
L 5063 3509 
L 3425 3509 
L 3425 2672 
L 4938 2672 
L 4938 2247 
L 3425 2247 
L 3425 1009 
L 5163 1009 
L 5163 584 
L 1238 584 
L 1238 1009 
z
M 3750 1847 
L 4100 2109 
Q 4444 1753 4688 1441 
L 4319 1159 
Q 4019 1566 3750 1847 
z
" transform="scale(0.015625)"/>
    </defs>
    <use xlink:href="#MicrosoftYaHei-2d"/>
    <use xlink:href="#MicrosoftYaHei-20" transform="translate(43.261719 0)"/>
    <use xlink:href="#MicrosoftYaHei-7164" transform="translate(72.851562 0)"/>
    <use xlink:href="#MicrosoftYaHei-5934" transform="translate(172.851562 0)"/>
    <use xlink:href="#MicrosoftYaHei-7ea6" transform="translate(272.851562 0)"/>
    <use xlink:href="#MicrosoftYaHei-31" transform="translate(372.851562 0)"/>
    <use xlink:href="#MicrosoftYaHei-37" transform="translate(431.494141 0)"/>
    <use xlink:href="#MicrosoftYaHei-25" transform="translate(490.136719 0)"/>
    <use xlink:href="#MicrosoftYaHei-ff0c" transform="translate(579.101562 0)"/>
    <use xlink:href="#MicrosoftYaHei-9ad8" transform="translate(679.101562 0)"/>
    <use xlink:href="#MicrosoftYaHei-5ea6" transform="translate(779.101562 0)"/>
    <use xlink:href="#MicrosoftYaHei-96c6" transform="translate(879.101562 0)"/>
    <use xlink:href="#MicrosoftYaHei-4e2d" transform="translate(979.101562 0)"/>
    <use xlink:href="#MicrosoftYaHei-5728" transform="translate(1079.101562 0)"/>
    <use xlink:href="#MicrosoftYaHei-4e2d" transform="translate(1179.101562 0)"/>
    <use xlink:href="#MicrosoftYaHei-56fd" transform="translate(1279.101562 0)"/>
   </g>
  </g>
  <g id="text_15">
   <!-- - 其他路线约7%（混烷轻烃制/MTO/乙烯单体制等） -->
   <g style="fill: #1f2a33" transform="translate(64.8 428.4) scale(0.17 -0.17)">
    <defs>
     <path id="MicrosoftYaHei-6df7" d="M 2450 2303 
L 1975 2303 
L 1975 5003 
L 5750 5003 
L 5750 2266 
L 5275 2266 
L 5275 2522 
L 2450 2522 
L 2450 2303 
z
M 3988 2191 
L 4450 2191 
L 4450 1175 
Q 5247 1603 5850 2022 
L 6150 1609 
Q 5516 1222 4450 672 
L 4450 203 
Q 4450 -197 4800 -197 
L 5256 -197 
Q 5563 -197 5625 9 
Q 5719 328 5794 903 
Q 6019 803 6263 728 
Q 6138 59 6069 -178 
Q 5944 -672 5313 -672 
L 4738 -672 
Q 3988 -672 3988 109 
L 3988 2191 
z
M 3738 391 
Q 3731 122 3738 -84 
Q 3050 -359 2600 -553 
Q 2331 -672 2150 -797 
L 1869 -391 
Q 2025 -309 2025 34 
L 2025 2141 
L 2488 2141 
L 2488 1528 
L 3788 1528 
L 3788 1091 
L 2488 1091 
L 2488 -97 
Q 3100 134 3738 391 
z
M 5275 4572 
L 2450 4572 
L 2450 3978 
L 5275 3978 
L 5275 4572 
z
M 2450 2953 
L 5275 2953 
L 5275 3547 
L 2450 3547 
L 2450 2953 
z
M 981 1853 
Q 1244 1734 1494 1634 
Q 1200 616 763 -766 
L 231 -566 
Q 669 603 981 1853 
z
M 406 3647 
Q 1031 3266 1531 2884 
Q 1438 2791 1194 2472 
Q 750 2847 100 3291 
L 406 3647 
z
M 650 5209 
Q 1419 4684 1763 4416 
Q 1569 4191 1425 4022 
Q 881 4484 356 4866 
L 650 5209 
z
" transform="scale(0.015625)"/>
     <path id="MicrosoftYaHei-8f7b" d="M 694 2441 
L 1350 2441 
L 1350 3616 
L 1788 3616 
L 1788 2441 
L 2413 2441 
L 2413 2028 
L 1788 2028 
L 1788 1134 
Q 2159 1178 2556 1228 
Q 2525 984 2513 791 
Q 2147 750 1788 709 
L 1788 -847 
L 1350 -847 
L 1350 656 
Q 744 581 150 503 
L 100 966 
Q 681 1016 1350 1088 
L 1350 2028 
L 238 2028 
L 238 2441 
Q 494 3181 728 4022 
L 150 4022 
L 150 4434 
L 844 4434 
Q 969 4900 1088 5397 
L 1550 5303 
Q 1425 4856 1303 4434 
L 2494 4434 
L 2494 4022 
L 1184 4022 
Q 934 3175 694 2441 
z
M 2719 4897 
L 5619 4897 
L 5619 4472 
Q 5266 3906 4763 3425 
Q 5591 2975 6344 2516 
L 6050 2103 
Q 5191 2678 4422 3125 
Q 3713 2550 2756 2116 
Q 2606 2341 2438 2534 
Q 4175 3241 5069 4459 
L 2719 4459 
L 2719 4897 
z
M 2331 -128 
L 4069 -128 
L 4069 1441 
L 2788 1441 
L 2788 1878 
L 5788 1878 
L 5788 1441 
L 4531 1441 
L 4531 -128 
L 6256 -128 
L 6256 -566 
L 2331 -566 
L 2331 -128 
z
" transform="scale(0.015625)"/>
     <path id="MicrosoftYaHei-70c3" d="M 2700 4453 
L 2700 4878 
L 5594 4878 
L 5594 4447 
Q 5175 3891 4694 3447 
Q 5513 3009 6319 2503 
L 6013 2084 
Q 5244 2628 4344 3147 
Q 3513 2472 2513 2097 
Q 2388 2316 2225 2522 
Q 3981 3147 5044 4453 
L 2700 4453 
z
M 2319 -103 
L 4025 -103 
L 4025 1447 
L 2725 1447 
L 2725 1872 
L 5775 1872 
L 5775 1447 
L 4500 1447 
L 4500 -103 
L 6181 -103 
L 6181 -528 
L 2319 -528 
L 2319 -103 
z
M 1681 1934 
Q 2156 1216 2644 359 
L 2219 109 
Q 1800 897 1363 1609 
Q 1144 234 419 -728 
Q 244 -503 81 -347 
Q 881 728 994 2278 
Q 1050 2859 1056 5222 
L 1500 5222 
Q 1488 2741 1381 1734 
L 1681 1934 
z
M 2063 4291 
L 2506 4166 
Q 2263 3234 1975 2403 
Q 1700 2497 1544 2534 
Q 1831 3309 2063 4291 
z
M 88 4141 
L 500 4241 
Q 738 3172 863 2478 
L 413 2359 
Q 275 3297 88 4141 
z
" transform="scale(0.015625)"/>
     <path id="MicrosoftYaHei-5236" d="M 1906 5266 
L 2394 5266 
L 2394 4309 
L 3750 4309 
L 3750 3872 
L 2394 3872 
L 2394 3034 
L 4025 3034 
L 4025 2597 
L 2394 2597 
L 2394 1897 
L 3763 1897 
L 3763 409 
Q 3763 -266 3150 -272 
Q 2956 -278 2631 -272 
Q 2600 -72 2538 178 
Q 2844 159 3038 159 
Q 3300 159 3300 472 
L 3300 1472 
L 2394 1472 
L 2394 -847 
L 1906 -847 
L 1906 1472 
L 1044 1472 
L 1044 -378 
L 581 -378 
L 581 1897 
L 1906 1897 
L 1906 2597 
L 113 2597 
L 113 3034 
L 1906 3034 
L 1906 3872 
L 981 3872 
Q 822 3513 619 3191 
Q 413 3309 194 3428 
Q 688 4172 881 5041 
L 1344 4922 
Q 1263 4603 1159 4309 
L 1906 4309 
L 1906 5266 
z
M 5469 5272 
L 5969 5272 
L 5969 122 
Q 5969 -722 5225 -722 
Q 4981 -722 4388 -716 
Q 4350 -472 4288 -172 
Q 4813 -222 5075 -222 
Q 5469 -222 5469 222 
L 5469 5272 
z
M 4750 822 
L 4269 822 
L 4269 4672 
L 4750 4672 
L 4750 822 
z
" transform="scale(0.015625)"/>
     <path id="MicrosoftYaHei-2f" d="M 2791 4841 
L 469 -803 
L -103 -803 
L 2219 4841 
L 2791 4841 
z
" transform="scale(0.015625)"/>
     <path id="MicrosoftYaHei-4d" d="M 5003 0 
L 5003 3206 
Q 5003 3603 5050 4159 
L 5034 4159 
Q 4953 3809 4891 3672 
L 3294 0 
L 2947 0 
L 1353 3644 
Q 1297 3769 1209 4159 
L 1191 4159 
Q 1222 3822 1222 3178 
L 1222 0 
L 625 0 
L 625 4841 
L 1472 4841 
L 2900 1522 
Q 3063 1141 3116 928 
L 3138 928 
Q 3300 1375 3366 1534 
L 4819 4841 
L 5625 4841 
L 5625 0 
L 5003 0 
z
" transform="scale(0.015625)"/>
     <path id="MicrosoftYaHei-54" d="M 3550 4284 
L 2153 4284 
L 2153 0 
L 1525 0 
L 1525 4284 
L 134 4284 
L 134 4841 
L 3550 4841 
L 3550 4284 
z
" transform="scale(0.015625)"/>
     <path id="MicrosoftYaHei-4f" d="M 313 2363 
Q 313 3534 947 4228 
Q 1581 4922 2666 4922 
Q 3675 4922 4290 4244 
Q 4906 3566 4906 2478 
Q 4906 1300 4275 609 
Q 3644 -81 2588 -81 
Q 1556 -81 934 597 
Q 313 1275 313 2363 
z
M 969 2413 
Q 969 1534 1417 1004 
Q 1866 475 2588 475 
Q 3363 475 3805 983 
Q 4247 1491 4247 2403 
Q 4247 3341 3814 3850 
Q 3381 4359 2628 4359 
Q 1888 4359 1428 3821 
Q 969 3284 969 2413 
z
" transform="scale(0.015625)"/>
     <path id="MicrosoftYaHei-70ef" d="M 1919 1128 
Q 2706 1734 3219 2591 
L 2225 2591 
L 2225 3016 
L 3444 3016 
Q 3588 3309 3700 3634 
L 4169 3522 
Q 4069 3259 3956 3016 
L 6256 3016 
L 6256 2591 
L 3738 2591 
Q 3500 2153 3206 1759 
L 4181 1759 
L 4181 2409 
L 4644 2409 
L 4644 1759 
L 6069 1759 
L 6069 297 
Q 6069 -341 5438 -341 
L 4938 -341 
Q 4900 -109 4806 122 
Q 5119 91 5363 91 
Q 5619 91 5619 366 
L 5619 1334 
L 4644 1334 
L 4644 -847 
L 4181 -847 
L 4181 1334 
L 3244 1334 
L 3244 -403 
L 2794 -403 
L 2794 1266 
Q 2544 997 2263 753 
Q 2100 972 1919 1128 
z
M 950 5234 
L 1400 5234 
Q 1400 2378 1313 1609 
Q 1838 866 2275 203 
L 1844 -91 
Q 1500 516 1194 984 
Q 956 -22 413 -784 
Q 263 -584 63 -372 
Q 863 634 931 2403 
Q 950 3347 950 5234 
z
M 2631 4797 
L 2838 5178 
Q 3506 4916 4381 4534 
Q 4981 4853 5513 5247 
L 5856 4934 
Q 5438 4616 4894 4309 
Q 5450 4066 6075 3778 
L 5825 3353 
Q 5069 3722 4381 4034 
Q 3625 3653 2675 3303 
Q 2569 3541 2425 3747 
Q 3175 3972 3850 4272 
Q 3206 4559 2631 4797 
z
M 119 4066 
L 513 4122 
Q 619 3478 750 2553 
L 319 2484 
Q 225 3322 119 4066 
z
M 2256 4059 
Q 2138 3284 1969 2497 
L 1556 2609 
Q 1744 3341 1850 4134 
L 2256 4059 
z
" transform="scale(0.015625)"/>
     <path id="MicrosoftYaHei-5355" d="M 125 909 
L 2956 909 
L 2956 1616 
L 1225 1616 
L 1225 1322 
L 750 1322 
L 750 4353 
L 2047 4353 
Q 1747 4703 1400 5072 
L 1756 5366 
Q 2219 4922 2569 4547 
L 2338 4353 
L 3803 4353 
Q 4147 4809 4500 5347 
L 5000 5078 
Q 4678 4688 4378 4353 
L 5656 4353 
L 5656 1322 
L 5181 1322 
L 5181 1616 
L 3444 1616 
L 3444 909 
L 6275 909 
L 6275 459 
L 3444 459 
L 3444 -859 
L 2956 -859 
L 2956 459 
L 125 459 
L 125 909 
z
M 3444 2053 
L 5181 2053 
L 5181 2778 
L 3444 2778 
L 3444 2053 
z
M 1225 2053 
L 2956 2053 
L 2956 2778 
L 1225 2778 
L 1225 2053 
z
M 5181 3916 
L 3444 3916 
L 3444 3203 
L 5181 3203 
L 5181 3916 
z
M 1225 3203 
L 2956 3203 
L 2956 3916 
L 1225 3916 
L 1225 3203 
z
" transform="scale(0.015625)"/>
     <path id="MicrosoftYaHei-4f53" d="M 6350 778 
Q 6138 522 5981 316 
Q 4731 1278 4144 3572 
L 4144 934 
L 5063 934 
L 5063 484 
L 4144 484 
L 4144 -822 
L 3681 -822 
L 3681 484 
L 2763 484 
L 2763 934 
L 3681 934 
L 3681 3572 
L 3666 3572 
Q 3084 1413 1750 216 
Q 1606 397 1419 609 
Q 2625 1713 3225 3572 
L 1756 3572 
L 1756 4022 
L 3681 4022 
L 3681 5297 
L 4144 5297 
L 4144 4022 
L 6138 4022 
L 6138 3572 
L 4547 3572 
Q 5144 1628 6350 778 
z
M 56 2297 
Q 963 3622 1406 5316 
L 1881 5178 
Q 1638 4381 1331 3681 
L 1331 -816 
L 869 -816 
L 869 2741 
Q 588 2231 269 1784 
Q 175 2041 56 2297 
z
" transform="scale(0.015625)"/>
     <path id="MicrosoftYaHei-7b49" d="M 125 2303 
L 2913 2303 
L 2913 2922 
L 563 2922 
L 563 3328 
L 2913 3328 
L 2913 3822 
L 3400 3822 
L 3400 3328 
L 5850 3328 
L 5850 2922 
L 3400 2922 
L 3400 2303 
L 6288 2303 
L 6288 1884 
L 125 1884 
L 125 2303 
z
M 338 1272 
L 4250 1272 
L 4250 1766 
L 4738 1766 
L 4738 1272 
L 6075 1272 
L 6075 853 
L 4738 853 
L 4738 22 
Q 4738 -766 3925 -766 
Q 3450 -766 2969 -759 
Q 2938 -534 2875 -228 
Q 3375 -278 3794 -278 
Q 4250 -278 4250 91 
L 4250 853 
L 338 853 
L 338 1272 
z
M 1294 5347 
L 1831 5347 
Q 1688 5041 1513 4759 
L 3325 4759 
L 3325 4372 
L 1244 4372 
Q 875 3878 388 3459 
Q 263 3609 75 3797 
Q 856 4428 1294 5347 
z
M 3969 5347 
L 4506 5347 
Q 4366 5038 4213 4759 
L 6225 4759 
L 6225 4372 
L 3984 4372 
Q 3772 4038 3538 3759 
Q 3275 3947 3119 4009 
Q 3663 4597 3969 5347 
z
M 1500 491 
L 1831 809 
Q 2256 447 2700 28 
L 2338 -316 
Q 2000 41 1500 491 
z
M 2019 3441 
Q 1781 3753 1500 4078 
L 1825 4309 
Q 2125 4022 2388 3722 
L 2019 3441 
z
M 4744 3441 
Q 4625 3628 4238 4078 
L 4563 4309 
Q 4900 3984 5113 3722 
L 4744 3441 
z
" transform="scale(0.015625)"/>
    </defs>
    <use xlink:href="#MicrosoftYaHei-2d"/>
    <use xlink:href="#MicrosoftYaHei-20" transform="translate(43.261719 0)"/>
    <use xlink:href="#MicrosoftYaHei-5176" transform="translate(72.851562 0)"/>
    <use xlink:href="#MicrosoftYaHei-4ed6" transform="translate(172.851562 0)"/>
    <use xlink:href="#MicrosoftYaHei-8def" transform="translate(272.851562 0)"/>
    <use xlink:href="#MicrosoftYaHei-7ebf" transform="translate(372.851562 0)"/>
    <use xlink:href="#MicrosoftYaHei-7ea6" transform="translate(472.851562 0)"/>
    <use xlink:href="#MicrosoftYaHei-37" transform="translate(572.851562 0)"/>
    <use xlink:href="#MicrosoftYaHei-25" transform="translate(631.494141 0)"/>
    <use xlink:href="#MicrosoftYaHei-ff08" transform="translate(720.458984 0)"/>
    <use xlink:href="#MicrosoftYaHei-6df7" transform="translate(820.458984 0)"/>
    <use xlink:href="#MicrosoftYaHei-70f7" transform="translate(920.458984 0)"/>
    <use xlink:href="#MicrosoftYaHei-8f7b" transform="translate(1020.458984 0)"/>
    <use xlink:href="#MicrosoftYaHei-70c3" transform="translate(1120.458984 0)"/>
    <use xlink:href="#MicrosoftYaHei-5236" transform="translate(1220.458984 0)"/>
    <use xlink:href="#MicrosoftYaHei-2f" transform="translate(1320.458984 0)"/>
    <use xlink:href="#MicrosoftYaHei-4d" transform="translate(1363.183594 0)"/>
    <use xlink:href="#MicrosoftYaHei-54" transform="translate(1460.888672 0)"/>
    <use xlink:href="#MicrosoftYaHei-4f" transform="translate(1513.337891 0)"/>
    <use xlink:href="#MicrosoftYaHei-2f" transform="translate(1594.832031 0)"/>
    <use xlink:href="#MicrosoftYaHei-4e59" transform="translate(1637.556641 0)"/>
    <use xlink:href="#MicrosoftYaHei-70ef" transform="translate(1737.556641 0)"/>
    <use xlink:href="#MicrosoftYaHei-5355" transform="translate(1837.556641 0)"/>
    <use xlink:href="#MicrosoftYaHei-4f53" transform="translate(1937.556641 0)"/>
    <use xlink:href="#MicrosoftYaHei-5236" transform="translate(2037.556641 0)"/>
    <use xlink:href="#MicrosoftYaHei-7b49" transform="translate(2137.556641 0)"/>
    <use xlink:href="#MicrosoftYaHei-ff09" transform="translate(2237.556641 0)"/>
   </g>
  </g>
  <g id="text_16">
   <!-- 注：中国境内煤头约占中国总产能40% -->
   <g style="fill: #1f2a33" transform="translate(64.8 486.72) scale(0.17 -0.17)">
    <defs>
     <path id="MicrosoftYaHei-6ce8" d="M 1625 16 
L 3725 16 
L 3725 1791 
L 2100 1791 
L 2100 2266 
L 3725 2266 
L 3725 3778 
L 1925 3778 
L 1925 4253 
L 3919 4253 
Q 3625 4719 3319 5103 
L 3731 5366 
Q 4150 4878 4394 4503 
L 4003 4253 
L 6100 4253 
L 6100 3778 
L 4250 3778 
L 4250 2266 
L 5875 2266 
L 5875 1791 
L 4250 1791 
L 4250 16 
L 6275 16 
L 6275 -459 
L 1625 -459 
L 1625 16 
z
M 956 1816 
Q 1213 1703 1450 1609 
Q 1106 509 731 -791 
L 194 -603 
Q 588 466 956 1816 
z
M 631 5234 
Q 1238 4778 1713 4322 
Q 1500 4109 1338 3941 
Q 1000 4297 313 4891 
L 631 5234 
z
M 394 3616 
Q 844 3303 1500 2766 
Q 1269 2503 1131 2359 
Q 475 2959 81 3259 
L 394 3616 
z
" transform="scale(0.015625)"/>
     <path id="MicrosoftYaHei-ff1a" d="M 1606 3531 
Q 1772 3531 1890 3415 
Q 2009 3300 2009 3138 
Q 2009 2975 1893 2858 
Q 1778 2741 1606 2741 
Q 1434 2741 1318 2858 
Q 1203 2975 1203 3138 
Q 1203 3300 1322 3415 
Q 1441 3531 1606 3531 
z
M 1606 716 
Q 1772 716 1890 600 
Q 2009 484 2009 319 
Q 2009 150 1890 36 
Q 1772 -78 1606 -78 
Q 1441 -78 1322 36 
Q 1203 150 1203 319 
Q 1203 484 1322 600 
Q 1441 716 1606 716 
z
" transform="scale(0.015625)"/>
     <path id="MicrosoftYaHei-5883" d="M 2338 2722 
L 5756 2722 
L 5756 591 
L 5325 591 
L 5325 734 
L 4738 734 
L 4738 59 
Q 4738 -284 5063 -284 
L 5456 -284 
Q 5763 -284 5806 28 
Q 5844 272 5856 603 
Q 6094 497 6319 416 
Q 6275 28 6225 -172 
Q 6119 -703 5519 -703 
L 4950 -703 
Q 4294 -703 4294 -78 
L 4294 734 
L 3709 734 
Q 3628 50 3175 -284 
Q 2794 -591 1838 -866 
Q 1706 -653 1550 -434 
Q 2525 -228 2888 66 
Q 3188 300 3250 734 
L 2769 734 
L 2769 591 
L 2338 591 
L 2338 2722 
z
M 106 678 
Q 441 756 881 869 
L 881 3259 
L 169 3259 
L 169 3703 
L 881 3703 
L 881 5266 
L 1338 5266 
L 1338 3703 
L 1981 3703 
L 1981 3259 
L 1338 3259 
L 1338 991 
Q 1688 1084 2094 1197 
Q 2100 928 2113 728 
Q 1150 466 200 159 
L 106 678 
z
M 2113 3522 
L 3238 3522 
Q 3066 3794 2856 4066 
L 3225 4297 
Q 3481 3984 3700 3678 
L 3466 3522 
L 4409 3522 
Q 4663 3909 4881 4303 
L 5331 4053 
Q 5119 3781 4909 3522 
L 6200 3522 
L 6200 3147 
L 2113 3147 
L 2113 3522 
z
M 2263 4703 
L 3913 4703 
Q 3800 4928 3663 5159 
L 4100 5341 
Q 4291 5006 4425 4703 
L 5988 4703 
L 5988 4328 
L 2263 4328 
L 2263 4703 
z
M 2769 1097 
L 5325 1097 
L 5325 1559 
L 2769 1559 
L 2769 1097 
z
M 5325 2359 
L 2769 2359 
L 2769 1909 
L 5325 1909 
L 5325 2359 
z
" transform="scale(0.015625)"/>
     <path id="MicrosoftYaHei-5185" d="M 638 4184 
L 2944 4184 
L 2944 5259 
L 3456 5259 
L 3456 4184 
L 5750 4184 
L 5750 59 
Q 5750 -734 4969 -728 
Q 4556 -728 3956 -716 
Q 3938 -503 3863 -172 
Q 4456 -222 4850 -228 
Q 5244 -241 5244 166 
L 5244 3709 
L 3444 3709 
Q 3419 3141 3306 2697 
Q 4413 1809 5094 1134 
L 4713 728 
Q 4044 1459 3156 2247 
Q 2731 1328 1538 647 
Q 1275 1009 1188 1097 
Q 2206 1634 2581 2291 
Q 2881 2772 2931 3709 
L 1144 3709 
L 1144 -784 
L 638 -784 
L 638 4184 
z
" transform="scale(0.015625)"/>
     <path id="MicrosoftYaHei-5360" d="M 863 2434 
L 2775 2434 
L 2775 5259 
L 3288 5259 
L 3288 4209 
L 6150 4209 
L 6150 3747 
L 3288 3747 
L 3288 2434 
L 5525 2434 
L 5525 -841 
L 5025 -841 
L 5025 -453 
L 1363 -453 
L 1363 -853 
L 863 -853 
L 863 2434 
z
M 5025 1984 
L 1363 1984 
L 1363 -9 
L 5025 -9 
L 5025 1984 
z
" transform="scale(0.015625)"/>
     <path id="MicrosoftYaHei-603b" d="M 900 4253 
L 3631 4253 
Q 4022 4822 4331 5353 
L 4813 5103 
Q 4500 4675 4175 4253 
L 5500 4253 
L 5500 1703 
L 5000 1703 
L 5000 1978 
L 1400 1978 
L 1400 1703 
L 900 1703 
L 900 4253 
z
M 5000 3803 
L 1400 3803 
L 1400 2428 
L 5000 2428 
L 5000 3803 
z
M 1694 1378 
L 2181 1378 
L 2181 284 
Q 2181 -203 2619 -203 
L 3875 -203 
Q 4244 -203 4338 172 
Q 4394 366 4450 872 
Q 4631 791 4931 684 
Q 4850 209 4750 -97 
Q 4556 -641 3900 -641 
L 2519 -641 
Q 1694 -641 1694 197 
L 1694 1378 
z
M 719 1422 
L 1188 1272 
Q 931 491 538 -334 
Q 338 -247 81 -134 
Q 444 597 719 1422 
z
M 4881 1203 
L 5238 1478 
Q 5813 841 6319 197 
L 5900 -134 
Q 5456 491 4881 1203 
z
M 2663 1591 
L 3044 1841 
Q 3488 1372 3863 841 
L 3444 547 
Q 3069 1109 2663 1591 
z
M 1594 5109 
L 1975 5353 
Q 2350 4959 2650 4541 
L 2225 4266 
Q 1956 4653 1594 5109 
z
" transform="scale(0.015625)"/>
     <path id="MicrosoftYaHei-4ea7" d="M 744 2809 
L 3700 2809 
Q 4122 3431 4456 4047 
L 4938 3741 
Q 4606 3275 4244 2809 
L 6094 2809 
L 6094 2372 
L 1250 2372 
L 1250 1934 
Q 1250 828 1081 284 
Q 906 -322 419 -853 
Q 256 -653 81 -428 
Q 450 -34 600 497 
Q 744 1016 744 1934 
L 744 2809 
z
M 231 4597 
L 3084 4597 
Q 2947 4853 2781 5122 
L 3244 5353 
Q 3447 5022 3659 4597 
L 6256 4597 
L 6256 4153 
L 231 4153 
L 231 4597 
z
M 1538 3797 
L 1950 4072 
Q 2338 3584 2638 3147 
L 2194 2841 
Q 1950 3253 1538 3797 
z
" transform="scale(0.015625)"/>
     <path id="MicrosoftYaHei-80fd" d="M 950 -759 
L 463 -759 
L 463 2928 
L 3000 2928 
L 3000 -28 
Q 3000 -703 2375 -703 
Q 2100 -709 1669 -709 
Q 1638 -516 1575 -234 
Q 1969 -266 2206 -266 
Q 2513 -266 2513 53 
L 2513 572 
L 950 572 
L 950 -759 
z
M 3606 2253 
L 4094 2253 
L 4094 1222 
Q 4981 1553 5950 2091 
L 6231 1659 
Q 5209 1122 4094 706 
L 4094 166 
Q 4094 -228 4400 -228 
L 5319 -228 
Q 5638 -228 5688 78 
Q 5731 353 5763 897 
Q 6000 803 6250 722 
Q 6200 172 6144 -109 
Q 6063 -659 5363 -659 
L 4319 -659 
Q 3606 -659 3606 72 
L 3606 2253 
z
M 3619 5303 
L 4106 5303 
L 4106 4231 
Q 4966 4572 5813 5053 
L 6094 4622 
Q 5119 4128 4106 3719 
L 4106 3359 
Q 4106 2941 4438 2941 
L 5231 2941 
Q 5625 2941 5675 3266 
Q 5719 3534 5750 4047 
Q 5988 3953 6238 3866 
Q 6188 3366 6131 3053 
Q 6038 2509 5288 2509 
L 4375 2509 
Q 3619 2509 3619 3259 
L 3619 5303 
z
M 2463 4772 
Q 3031 4034 3450 3353 
Q 3213 3191 3019 3066 
Q 2897 3281 2759 3506 
Q 1231 3394 313 3303 
L 113 3828 
Q 388 3978 719 4391 
Q 1063 4841 1394 5397 
L 1888 5216 
Q 1369 4466 794 3797 
Q 1731 3856 2497 3919 
Q 2300 4216 2075 4528 
L 2463 4772 
z
M 950 947 
L 2513 947 
L 2513 1553 
L 950 1553 
L 950 947 
z
M 2513 2528 
L 950 2528 
L 950 1928 
L 2513 1928 
L 2513 2528 
z
" transform="scale(0.015625)"/>
     <path id="MicrosoftYaHei-34" d="M 2906 4841 
L 2906 1644 
L 3631 1644 
L 3631 1138 
L 2906 1138 
L 2906 0 
L 2313 0 
L 2313 1138 
L 53 1138 
L 53 1616 
Q 656 2294 1265 3178 
Q 1875 4063 2272 4841 
L 2906 4841 
z
M 741 1644 
L 2313 1644 
L 2313 3950 
Q 1988 3366 1616 2817 
Q 1244 2269 741 1644 
z
" transform="scale(0.015625)"/>
    </defs>
    <use xlink:href="#MicrosoftYaHei-6ce8"/>
    <use xlink:href="#MicrosoftYaHei-ff1a" transform="translate(100 0)"/>
    <use xlink:href="#MicrosoftYaHei-4e2d" transform="translate(200 0)"/>
    <use xlink:href="#MicrosoftYaHei-56fd" transform="translate(300 0)"/>
    <use xlink:href="#MicrosoftYaHei-5883" transform="translate(400 0)"/>
    <use xlink:href="#MicrosoftYaHei-5185" transform="translate(500 0)"/>
    <use xlink:href="#MicrosoftYaHei-7164" transform="translate(600 0)"/>
    <use xlink:href="#MicrosoftYaHei-5934" transform="translate(700 0)"/>
    <use xlink:href="#MicrosoftYaHei-7ea6" transform="translate(800 0)"/>
    <use xlink:href="#MicrosoftYaHei-5360" transform="translate(900 0)"/>
    <use xlink:href="#MicrosoftYaHei-4e2d" transform="translate(1000 0)"/>
    <use xlink:href="#MicrosoftYaHei-56fd" transform="translate(1100 0)"/>
    <use xlink:href="#MicrosoftYaHei-603b" transform="translate(1200 0)"/>
    <use xlink:href="#MicrosoftYaHei-4ea7" transform="translate(1300 0)"/>
    <use xlink:href="#MicrosoftYaHei-80fd" transform="translate(1400 0)"/>
    <use xlink:href="#MicrosoftYaHei-34" transform="translate(1500 0)"/>
    <use xlink:href="#MicrosoftYaHei-30" transform="translate(1558.642578 0)"/>
    <use xlink:href="#MicrosoftYaHei-25" transform="translate(1617.285156 0)"/>
   </g>
  </g>
  <g id="text_17">
   <!-- 数据来源：用户给定口径整理；其他路线取5-10%区间中值估算 -->
   <g style="fill: #555555" transform="translate(400.669844 642.24) scale(0.13 -0.13)">
    <defs>
     <path id="MicrosoftYaHei-6570" d="M 4175 5303 
L 4675 5228 
Q 4544 4622 4369 4097 
L 6281 4097 
L 6281 3672 
L 5888 3672 
Q 5731 1834 5088 753 
Q 5594 66 6375 -372 
Q 6175 -647 6038 -866 
Q 5275 -372 4769 309 
Q 4194 -403 3400 -928 
Q 3263 -747 3044 -534 
Q 3919 41 4463 772 
Q 3956 1647 3794 2791 
Q 3663 2559 3519 2359 
Q 3394 2541 3206 2759 
Q 3931 3803 4175 5303 
z
M 150 1697 
L 1100 1697 
Q 1238 1934 1369 2184 
L 1819 2041 
Q 1719 1866 1619 1697 
L 3150 1697 
L 3150 1291 
Q 2913 678 2431 216 
Q 2775 53 3131 -109 
L 2856 -541 
Q 2469 -322 2050 -103 
Q 1344 -609 269 -903 
Q 169 -703 56 -466 
Q 969 -259 1600 128 
Q 1063 403 475 691 
Q 675 978 863 1284 
L 150 1284 
L 150 1697 
z
M 219 3847 
L 1656 3847 
L 1656 5247 
L 2119 5247 
L 2119 3847 
L 3319 3847 
L 3319 3434 
L 2119 3434 
L 2119 3053 
L 2306 3266 
Q 2888 2841 3281 2516 
L 2981 2166 
Q 2638 2491 2119 2897 
L 2119 2184 
L 1656 2184 
L 1656 3059 
Q 1088 2466 331 2016 
Q 213 2197 63 2397 
Q 850 2822 1506 3434 
L 219 3434 
L 219 3847 
z
M 5388 3672 
L 4219 3672 
Q 4188 3591 4150 3516 
Q 4263 2191 4775 1247 
Q 5275 2159 5388 3672 
z
M 1088 834 
Q 1531 634 2000 416 
Q 2431 784 2675 1284 
L 1375 1284 
Q 1231 1053 1088 834 
z
M 3038 5091 
L 3425 4834 
Q 3081 4384 2738 4003 
Q 2594 4128 2400 4266 
Q 2725 4647 3038 5091 
z
M 381 4816 
L 738 5059 
Q 1019 4716 1319 4322 
L 931 4047 
Q 656 4453 381 4816 
z
" transform="scale(0.015625)"/>
     <path id="MicrosoftYaHei-636e" d="M 2900 1334 
L 4188 1334 
L 4188 2128 
L 2731 2128 
Q 2663 206 1844 -841 
Q 1694 -647 1506 -447 
Q 2288 516 2288 2509 
L 2288 4947 
L 5975 4947 
L 5975 3134 
L 5525 3134 
L 5525 3328 
L 2738 3328 
L 2738 2553 
L 4188 2553 
L 4188 3209 
L 4638 3209 
L 4638 2553 
L 6288 2553 
L 6288 2128 
L 4638 2128 
L 4638 1334 
L 5938 1334 
L 5938 -778 
L 5488 -778 
L 5488 -416 
L 3350 -416 
L 3350 -778 
L 2900 -778 
L 2900 1334 
z
M 100 1966 
Q 544 2088 963 2213 
L 963 3641 
L 175 3641 
L 175 4091 
L 963 4091 
L 963 5284 
L 1425 5284 
L 1425 4091 
L 2106 4091 
L 2106 3641 
L 1425 3641 
L 1425 2356 
Q 1722 2450 2006 2547 
Q 2013 2266 2044 2059 
Q 1722 1956 1425 1856 
L 1425 -34 
Q 1425 -741 806 -753 
Q 613 -759 231 -747 
Q 206 -497 156 -228 
Q 500 -266 681 -266 
Q 963 -266 963 53 
L 963 1703 
Q 534 1559 163 1428 
L 100 1966 
z
M 5525 4534 
L 2738 4534 
L 2738 3741 
L 5525 3741 
L 5525 4534 
z
M 5488 922 
L 3350 922 
L 3350 -9 
L 5488 -9 
L 5488 922 
z
" transform="scale(0.015625)"/>
     <path id="MicrosoftYaHei-6765" d="M 6325 141 
Q 6119 -122 5975 -334 
Q 4344 403 3438 1550 
L 3438 -841 
L 2963 -841 
L 2963 1584 
Q 2050 516 413 -409 
Q 281 -222 75 22 
Q 1706 841 2806 1922 
L 181 1922 
L 181 2359 
L 2963 2359 
L 2963 4003 
L 550 4003 
L 550 4441 
L 2963 4441 
L 2963 5341 
L 3438 5341 
L 3438 4441 
L 5900 4441 
L 5900 4003 
L 3438 4003 
L 3438 2359 
L 6225 2359 
L 6225 1922 
L 3566 1922 
Q 4594 778 6325 141 
z
M 4056 2766 
Q 4631 3378 4950 3828 
L 5381 3497 
Q 4913 2941 4419 2453 
L 4056 2766 
z
M 1075 3509 
L 1438 3803 
Q 1900 3347 2313 2828 
L 1900 2484 
Q 1581 2922 1075 3509 
z
" transform="scale(0.015625)"/>
     <path id="MicrosoftYaHei-6e90" d="M 2931 3741 
L 3744 3741 
Q 3878 4094 4006 4478 
L 2425 4478 
L 2425 2678 
Q 2425 222 1463 -841 
Q 1313 -647 1100 -453 
Q 1963 509 1963 2672 
L 1963 4903 
L 6300 4903 
L 6300 4478 
L 4547 4478 
Q 4375 4103 4194 3741 
L 5844 3741 
L 5844 1178 
L 5394 1178 
L 5394 1341 
L 4588 1341 
L 4588 -128 
Q 4588 -797 3938 -797 
Q 3725 -797 3394 -791 
Q 3363 -603 3306 -359 
Q 3619 -384 3850 -384 
Q 4138 -384 4138 -84 
L 4138 1341 
L 3381 1341 
L 3381 1178 
L 2931 1178 
L 2931 3741 
z
M 831 1878 
Q 1056 1734 1275 1666 
Q 1019 603 700 -766 
L 219 -603 
Q 581 678 831 1878 
z
M 3381 1753 
L 5394 1753 
L 5394 2347 
L 3381 2347 
L 3381 1753 
z
M 5394 3328 
L 3381 3328 
L 3381 2747 
L 5394 2747 
L 5394 3328 
z
M 6288 -241 
L 5894 -541 
Q 5450 128 4931 759 
L 5294 1016 
Q 5863 353 6288 -241 
z
M 2363 -297 
Q 2894 272 3306 984 
L 3706 741 
Q 3231 -16 2731 -584 
L 2363 -297 
z
M 400 3622 
Q 888 3272 1500 2784 
Q 1281 2522 1144 2378 
Q 544 2909 88 3266 
L 400 3622 
z
M 669 5228 
Q 1163 4859 1688 4384 
Q 1469 4172 1313 4003 
Q 769 4541 350 4884 
L 669 5228 
z
" transform="scale(0.015625)"/>
     <path id="MicrosoftYaHei-7528" d="M 3088 -734 
L 3088 1253 
L 1269 1253 
Q 1163 -47 513 -903 
Q 350 -697 144 -472 
Q 550 103 694 803 
Q 831 1478 831 2716 
L 831 4947 
L 5925 4947 
L 5925 -22 
Q 5925 -766 5219 -766 
Q 4788 -766 4250 -747 
Q 4219 -541 4156 -228 
Q 4700 -266 5038 -266 
Q 5425 -266 5425 103 
L 5425 1253 
L 3588 1253 
L 3588 -734 
L 3088 -734 
z
M 3588 1703 
L 5425 1703 
L 5425 2872 
L 3588 2872 
L 3588 1703 
z
M 5425 4484 
L 3588 4484 
L 3588 3322 
L 5425 3322 
L 5425 4484 
z
M 1303 1703 
L 3088 1703 
L 3088 2872 
L 1331 2872 
Q 1350 2266 1303 1703 
z
M 1331 4484 
L 1331 3322 
L 3088 3322 
L 3088 4484 
L 1331 4484 
z
" transform="scale(0.015625)"/>
     <path id="MicrosoftYaHei-6237" d="M 2725 5116 
L 3175 5384 
Q 3475 5028 3769 4609 
L 3463 4416 
L 5794 4416 
L 5794 1647 
L 5294 1647 
L 5294 1972 
L 1347 1972 
Q 1263 172 419 -903 
Q 250 -697 56 -491 
Q 856 484 856 2434 
L 856 4416 
L 3241 4416 
Q 3013 4766 2725 5116 
z
M 1356 3966 
L 1356 2422 
L 5294 2422 
L 5294 3966 
L 1356 3966 
z
" transform="scale(0.015625)"/>
     <path id="MicrosoftYaHei-7ed9" d="M 2538 1791 
L 5700 1791 
L 5700 -853 
L 5225 -853 
L 5225 -434 
L 3013 -434 
L 3013 -859 
L 2538 -859 
L 2538 1791 
z
M 856 1572 
Q 881 1572 2150 1672 
Q 2119 1478 2094 1266 
Q 1050 1172 313 1091 
L 213 1491 
Q 588 1847 1156 2803 
Q 763 2778 213 2734 
L 81 3128 
Q 619 3741 1256 5278 
L 1750 5103 
Q 1138 3922 625 3166 
Q 1000 3172 1369 3178 
Q 1594 3566 1838 4034 
L 2306 3834 
Q 1431 2384 856 1572 
z
M 5225 1359 
L 3013 1359 
L 3013 -3 
L 5225 -3 
L 5225 1359 
z
M 4475 5278 
L 4344 5066 
Q 5075 3872 6350 3091 
Q 6169 2903 5988 2684 
Q 4763 3553 4081 4641 
Q 3400 3491 2313 2603 
Q 2194 2741 1950 2953 
Q 3213 3916 3919 5278 
L 4475 5278 
z
M 2750 2959 
L 5488 2959 
L 5488 2528 
L 2750 2528 
L 2750 2959 
z
M 106 122 
Q 1269 341 2194 553 
Q 2188 322 2200 109 
Q 925 -159 269 -341 
L 106 122 
z
" transform="scale(0.015625)"/>
     <path id="MicrosoftYaHei-5b9a" d="M 81 -384 
Q 1119 509 1281 2241 
L 1806 2159 
Q 1731 1581 1578 1081 
Q 2063 50 3081 -103 
L 3081 2647 
L 225 2647 
L 225 3116 
L 6163 3116 
L 6163 2647 
L 3600 2647 
L 3600 1634 
L 5775 1634 
L 5775 1172 
L 3600 1172 
L 3600 -138 
Q 4844 -169 6306 -116 
Q 6200 -359 6125 -634 
Q 4594 -653 3450 -616 
Q 2041 -616 1378 528 
Q 1022 -300 413 -872 
Q 269 -628 81 -384 
z
M 450 4566 
L 3116 4566 
Q 2931 4834 2725 5091 
L 3200 5347 
Q 3444 5066 3731 4716 
L 3450 4566 
L 5981 4566 
L 5981 3378 
L 5488 3378 
L 5488 4097 
L 944 4097 
L 944 3384 
L 450 3384 
L 450 4566 
z
" transform="scale(0.015625)"/>
     <path id="MicrosoftYaHei-53e3" d="M 713 4684 
L 5675 4684 
L 5675 -578 
L 5138 -578 
L 5138 28 
L 1250 28 
L 1250 -578 
L 713 -578 
L 713 4684 
z
M 5138 497 
L 5138 4216 
L 1250 4216 
L 1250 497 
L 5138 497 
z
" transform="scale(0.015625)"/>
     <path id="MicrosoftYaHei-5f84" d="M 2388 4466 
L 2388 4891 
L 5738 4891 
L 5738 4459 
Q 5216 3866 4619 3391 
Q 5559 2888 6338 2428 
L 6038 1972 
Q 5256 2494 4216 3091 
Q 3253 2422 2106 2041 
Q 2000 2247 1850 2459 
Q 3894 3153 5025 4466 
L 2388 4466 
z
M 1931 -66 
L 3881 -66 
L 3881 1403 
L 2288 1403 
L 2288 1828 
L 5950 1828 
L 5950 1403 
L 4344 1403 
L 4344 -66 
L 6300 -66 
L 6300 -491 
L 1931 -491 
L 1931 -66 
z
M 38 1572 
Q 975 2353 1750 3809 
L 2175 3541 
Q 1844 2953 1475 2444 
L 1475 -816 
L 994 -816 
L 994 1831 
Q 638 1419 250 1066 
Q 156 1328 38 1572 
z
M 106 3616 
Q 1038 4359 1638 5391 
L 2063 5116 
Q 1356 3997 344 3134 
Q 238 3359 106 3616 
z
" transform="scale(0.015625)"/>
     <path id="MicrosoftYaHei-6574" d="M 138 -234 
L 1263 -234 
L 1263 891 
L 1713 891 
L 1713 -234 
L 3025 -234 
L 3025 1178 
L 550 1178 
L 550 1578 
L 5800 1578 
L 5800 1178 
L 3475 1178 
L 3475 697 
L 5525 697 
L 5525 297 
L 3475 297 
L 3475 -234 
L 6256 -234 
L 6256 -634 
L 138 -634 
L 138 -234 
z
M 25 2003 
Q 825 2334 1481 2916 
L 913 2916 
L 913 2759 
L 506 2759 
L 506 4109 
L 1650 4109 
L 1650 4491 
L 250 4491 
L 250 4866 
L 1650 4866 
L 1650 5291 
L 2069 5291 
L 2069 4866 
L 3425 4866 
L 3425 4491 
L 2069 4491 
L 2069 4109 
L 3213 4109 
L 3213 2759 
L 2806 2759 
L 2806 2916 
L 2069 2916 
L 2069 2541 
L 2225 2747 
Q 2781 2484 3288 2216 
L 3075 1872 
Q 2550 2184 2069 2397 
L 2069 1722 
L 1650 1722 
L 1650 2647 
Q 1075 2078 288 1647 
Q 175 1803 25 2003 
z
M 3363 2078 
Q 4050 2341 4519 2716 
Q 4144 3134 3938 3716 
Q 3788 3447 3631 3197 
L 3256 3459 
Q 3850 4253 4163 5322 
L 4600 5191 
Q 4481 4872 4356 4572 
L 6263 4572 
L 6263 4172 
L 5850 4172 
Q 5644 3316 5181 2741 
Q 5638 2428 6325 2247 
Q 6169 2047 6013 1778 
Q 5319 2034 4844 2403 
Q 4363 1984 3650 1678 
Q 3525 1859 3363 2078 
z
M 5400 4172 
L 4219 4172 
Q 4394 3484 4838 3022 
Q 5244 3503 5400 4172 
z
M 2806 3266 
L 2806 3759 
L 2069 3759 
L 2069 3266 
L 2806 3266 
z
M 913 3266 
L 1650 3266 
L 1650 3759 
L 913 3759 
L 913 3266 
z
" transform="scale(0.015625)"/>
     <path id="MicrosoftYaHei-7406" d="M 2031 -166 
L 3988 -166 
L 3988 734 
L 2394 734 
L 2394 1172 
L 3988 1172 
L 3988 1997 
L 2988 1997 
L 2988 1766 
L 2525 1766 
L 2525 4991 
L 5913 4991 
L 5913 1766 
L 5450 1766 
L 5450 1997 
L 4450 1997 
L 4450 1172 
L 6044 1172 
L 6044 734 
L 4450 734 
L 4450 -166 
L 6319 -166 
L 6319 -603 
L 2031 -603 
L 2031 -166 
z
M 44 203 
Q 525 319 975 434 
L 975 2328 
L 194 2328 
L 194 2766 
L 975 2766 
L 975 4328 
L 131 4328 
L 131 4766 
L 2281 4766 
L 2281 4328 
L 1438 4328 
L 1438 2766 
L 2231 2766 
L 2231 2328 
L 1438 2328 
L 1438 559 
Q 1850 675 2238 791 
Q 2269 509 2306 303 
Q 1238 16 213 -303 
L 44 203 
z
M 4450 2422 
L 5450 2422 
L 5450 3291 
L 4450 3291 
L 4450 2422 
z
M 2988 2422 
L 3988 2422 
L 3988 3291 
L 2988 3291 
L 2988 2422 
z
M 5450 4566 
L 4450 4566 
L 4450 3703 
L 5450 3703 
L 5450 4566 
z
M 2988 3703 
L 3988 3703 
L 3988 4566 
L 2988 4566 
L 2988 3703 
z
" transform="scale(0.015625)"/>
     <path id="MicrosoftYaHei-ff1b" d="M 1606 3531 
Q 1772 3531 1890 3415 
Q 2009 3300 2009 3138 
Q 2009 2975 1893 2858 
Q 1778 2741 1606 2741 
Q 1434 2741 1318 2858 
Q 1203 2975 1203 3138 
Q 1203 3300 1322 3415 
Q 1441 3531 1606 3531 
z
M 1931 775 
L 1403 -891 
L 966 -891 
L 1350 775 
L 1931 775 
z
" transform="scale(0.015625)"/>
     <path id="MicrosoftYaHei-53d6" d="M 88 641 
Q 363 675 650 713 
L 650 4578 
L 181 4578 
L 181 5016 
L 3244 5016 
L 3244 4797 
L 5975 4797 
L 5975 4403 
Q 5613 2097 4906 1006 
Q 5497 172 6325 -291 
Q 6150 -472 5944 -753 
Q 5275 -266 4625 609 
Q 3994 -219 3125 -828 
Q 2947 -594 2806 -434 
L 2806 -822 
L 2338 -822 
L 2338 531 
Q 1197 353 156 178 
L 88 641 
z
M 3194 4372 
L 3194 4578 
L 2806 4578 
L 2806 1025 
Q 3156 1081 3519 1141 
Q 3500 884 3500 709 
Q 3147 656 2806 603 
L 2806 -403 
Q 3681 109 4350 1006 
Q 3628 2156 3422 4372 
L 3194 4372 
z
M 5506 4372 
L 3875 4372 
Q 4022 2544 4638 1428 
Q 5181 2344 5506 4372 
z
M 2338 953 
L 2338 1866 
L 1119 1866 
L 1119 775 
Q 1703 859 2338 953 
z
M 1119 2266 
L 2338 2266 
L 2338 3222 
L 1119 3222 
L 1119 2266 
z
M 1119 3622 
L 2338 3622 
L 2338 4578 
L 1119 4578 
L 1119 3622 
z
" transform="scale(0.015625)"/>
     <path id="MicrosoftYaHei-533a" d="M 600 4872 
L 5975 4872 
L 5975 4384 
L 1131 4384 
L 1131 22 
L 6075 22 
L 6075 -453 
L 600 -453 
L 600 4872 
z
M 1613 3697 
L 1963 4028 
Q 2744 3384 3597 2616 
Q 4250 3322 4850 4153 
L 5306 3847 
Q 4650 2997 3975 2272 
Q 4753 1563 5588 753 
L 5156 316 
Q 4400 1106 3600 1878 
Q 2697 963 1763 266 
Q 1613 459 1363 672 
Q 2344 1341 3228 2231 
Q 2444 2972 1613 3697 
z
" transform="scale(0.015625)"/>
     <path id="MicrosoftYaHei-95f4" d="M 1863 3647 
L 4513 3647 
L 4513 553 
L 2313 553 
L 2313 166 
L 1863 166 
L 1863 3647 
z
M 2388 4453 
L 2388 4922 
L 6013 4922 
L 6013 -28 
Q 6013 -816 5119 -816 
Q 4756 -816 4169 -803 
Q 4144 -616 4069 -297 
Q 4588 -334 5056 -334 
Q 5525 -334 5525 122 
L 5525 4453 
L 2388 4453 
z
M 419 4084 
L 906 4084 
L 906 -816 
L 419 -816 
L 419 4084 
z
M 2313 997 
L 4063 997 
L 4063 1884 
L 2313 1884 
L 2313 997 
z
M 4063 3203 
L 2313 3203 
L 2313 2328 
L 4063 2328 
L 4063 3203 
z
M 744 5003 
L 1100 5322 
Q 1575 4872 1981 4447 
L 1575 4091 
Q 1194 4541 744 5003 
z
" transform="scale(0.015625)"/>
     <path id="MicrosoftYaHei-503c" d="M 1619 -216 
L 2250 -216 
L 2250 3653 
L 3725 3653 
L 3725 4222 
L 1913 4222 
L 1913 4647 
L 3725 4647 
L 3725 5309 
L 4200 5309 
L 4200 4647 
L 6169 4647 
L 6169 4222 
L 4200 4222 
L 4200 3653 
L 5713 3653 
L 5713 -216 
L 6306 -216 
L 6306 -641 
L 1619 -641 
L 1619 -216 
z
M 69 2247 
Q 906 3497 1369 5278 
L 1831 5141 
Q 1581 4334 1288 3628 
L 1288 -816 
L 831 -816 
L 831 2666 
Q 563 2166 263 1734 
Q 175 1997 69 2247 
z
M 2713 -216 
L 5250 -216 
L 5250 353 
L 2713 353 
L 2713 -216 
z
M 5250 3241 
L 2713 3241 
L 2713 2678 
L 5250 2678 
L 5250 3241 
z
M 2713 1716 
L 5250 1716 
L 5250 2278 
L 2713 2278 
L 2713 1716 
z
M 2713 753 
L 5250 753 
L 5250 1316 
L 2713 1316 
L 2713 753 
z
" transform="scale(0.015625)"/>
     <path id="MicrosoftYaHei-4f30" d="M 2250 2284 
L 3781 2284 
L 3781 3553 
L 1800 3553 
L 1800 4016 
L 3781 4016 
L 3781 5316 
L 4294 5316 
L 4294 4016 
L 6300 4016 
L 6300 3553 
L 4294 3553 
L 4294 2284 
L 5831 2284 
L 5831 -841 
L 5319 -841 
L 5319 -353 
L 2763 -353 
L 2763 -841 
L 2250 -841 
L 2250 2284 
z
M 5319 1822 
L 2763 1822 
L 2763 97 
L 5319 97 
L 5319 1822 
z
M 44 2259 
Q 919 3559 1431 5347 
L 1944 5197 
Q 1713 4494 1456 3878 
L 1456 -853 
L 963 -853 
L 963 2834 
Q 634 2213 269 1716 
Q 175 1984 44 2259 
z
" transform="scale(0.015625)"/>
     <path id="MicrosoftYaHei-7b97" d="M 969 3728 
L 2006 3728 
Q 1775 4016 1544 4266 
L 1769 4428 
L 1244 4428 
Q 875 3963 400 3566 
Q 263 3722 88 3884 
Q 856 4484 1300 5347 
L 1831 5347 
Q 1684 5059 1506 4791 
L 3325 4791 
L 3325 4428 
L 1919 4428 
Q 2144 4200 2369 3953 
L 2072 3728 
L 4953 3728 
Q 4716 4003 4425 4266 
L 4641 4428 
L 4019 4428 
Q 3772 4050 3506 3753 
Q 3344 3897 3125 4047 
Q 3656 4603 4000 5347 
L 4538 5347 
Q 4394 5053 4244 4791 
L 6225 4791 
L 6225 4428 
L 4800 4428 
Q 5069 4206 5294 3972 
L 4991 3728 
L 5475 3728 
L 5475 916 
L 5038 916 
L 5038 1122 
L 1406 1122 
L 1406 916 
L 969 916 
L 969 3728 
z
M 150 609 
L 1850 609 
Q 1875 788 1875 1003 
L 2331 1003 
Q 2331 794 2309 609 
L 4356 609 
L 4356 997 
L 4819 997 
L 4819 609 
L 6300 609 
L 6300 222 
L 4819 222 
L 4819 -828 
L 4356 -828 
L 4356 222 
L 2244 222 
Q 2019 -619 763 -884 
Q 644 -691 488 -472 
Q 1525 -297 1756 222 
L 150 222 
L 150 609 
z
M 5038 3378 
L 1406 3378 
L 1406 2959 
L 5038 2959 
L 5038 3378 
z
M 1406 1472 
L 5038 1472 
L 5038 1891 
L 1406 1891 
L 1406 1472 
z
M 1406 2216 
L 5038 2216 
L 5038 2634 
L 1406 2634 
L 1406 2216 
z
" transform="scale(0.015625)"/>
    </defs>
    <use xlink:href="#MicrosoftYaHei-6570"/>
    <use xlink:href="#MicrosoftYaHei-636e" transform="translate(100 0)"/>
    <use xlink:href="#MicrosoftYaHei-6765" transform="translate(200 0)"/>
    <use xlink:href="#MicrosoftYaHei-6e90" transform="translate(300 0)"/>
    <use xlink:href="#MicrosoftYaHei-ff1a" transform="translate(400 0)"/>
    <use xlink:href="#MicrosoftYaHei-7528" transform="translate(500 0)"/>
    <use xlink:href="#MicrosoftYaHei-6237" transform="translate(600 0)"/>
    <use xlink:href="#MicrosoftYaHei-7ed9" transform="translate(700 0)"/>
    <use xlink:href="#MicrosoftYaHei-5b9a" transform="translate(800 0)"/>
    <use xlink:href="#MicrosoftYaHei-53e3" transform="translate(900 0)"/>
    <use xlink:href="#MicrosoftYaHei-5f84" transform="translate(1000 0)"/>
    <use xlink:href="#MicrosoftYaHei-6574" transform="translate(1100 0)"/>
    <use xlink:href="#MicrosoftYaHei-7406" transform="translate(1200 0)"/>
    <use xlink:href="#MicrosoftYaHei-ff1b" transform="translate(1300 0)"/>
    <use xlink:href="#MicrosoftYaHei-5176" transform="translate(1400 0)"/>
    <use xlink:href="#MicrosoftYaHei-4ed6" transform="translate(1500 0)"/>
    <use xlink:href="#MicrosoftYaHei-8def" transform="translate(1600 0)"/>
    <use xlink:href="#MicrosoftYaHei-7ebf" transform="translate(1700 0)"/>
    <use xlink:href="#MicrosoftYaHei-53d6" transform="translate(1800 0)"/>
    <use xlink:href="#MicrosoftYaHei-35" transform="translate(1900 0)"/>
    <use xlink:href="#MicrosoftYaHei-2d" transform="translate(1958.642578 0)"/>
    <use xlink:href="#MicrosoftYaHei-31" transform="translate(2001.904297 0)"/>
    <use xlink:href="#MicrosoftYaHei-30" transform="translate(2060.546875 0)"/>
    <use xlink:href="#MicrosoftYaHei-25" transform="translate(2119.189453 0)"/>
    <use xlink:href="#MicrosoftYaHei-533a" transform="translate(2208.154297 0)"/>
    <use xlink:href="#MicrosoftYaHei-95f4" transform="translate(2308.154297 0)"/>
    <use xlink:href="#MicrosoftYaHei-4e2d" transform="translate(2408.154297 0)"/>
    <use xlink:href="#MicrosoftYaHei-503c" transform="translate(2508.154297 0)"/>
    <use xlink:href="#MicrosoftYaHei-4f30" transform="translate(2608.154297 0)"/>
    <use xlink:href="#MicrosoftYaHei-7b97" transform="translate(2708.154297 0)"/>
   </g>
  </g>
 </g>
 <defs>
  <clipPath id="pf049d9f070">
   <rect x="7.2" y="7.2" width="1152" height="648"/>
  </clipPath>
 </defs>
</svg>
